<svg width="24" height="24" viewBox="0 0 24 24" fill="none" xmlns="http://www.w3.org/2000/svg">
<path d="M14.2265 9.2182C15.1465 9.2182 15.8923 8.47242 15.8923 7.55246C15.8923 6.6325 15.1465 5.88672 14.2265 5.88672C13.3066 5.88672 12.5608 6.6325 12.5608 7.55246C12.5608 8.47242 13.3066 9.2182 14.2265 9.2182Z" fill='transparent' stroke="#FF6A39" stroke-width="1.5" stroke-linecap="round" stroke-linejoin="round"/>
<path d="M22 16.4364L18.3021 12.7385C17.4581 11.8945 16.0811 11.8945 15.226 12.7385L14.7596 13.2049C13.849 14.1155 12.3609 14.1155 11.4503 13.2049L9.407 11.1616C8.55192 10.3065 7.1749 10.3176 6.33093 11.1616L2 15.4925" fill='transparent' stroke="#FF6A39" stroke-width="1.5" stroke-linecap="round" stroke-linejoin="round"/>
<path d="M16.4477 2H7.5637C4.49716 2 2.01123 4.48593 2.01123 7.55247V16.4364C2.01123 19.503 4.49716 21.9889 7.5637 21.9889H16.4477C19.5142 21.9889 22.0001 19.503 22.0001 16.4364V7.55247C22.0001 4.48593 19.5142 2 16.4477 2Z" fill='transparent' stroke="#000" stroke-width="1.5" stroke-miterlimit="10"/>
</svg>
