<svg width="24" height="24" viewBox="0 0 24 24" fill="none" xmlns="http://www.w3.org/2000/svg">
<path d="M11.7908 15V22" stroke="#FF6A39" stroke-width="1.5" stroke-linecap="round" stroke-linejoin="round"/>
<path d="M7.93071 4.95C7.27071 4.8 6.79071 4.21 6.79071 3.5C6.79071 2.67 7.46071 2 8.29071 2H15.2907C16.1207 2 16.7907 2.67 16.7907 3.5C16.7907 4.21 16.3107 4.8 15.6507 4.95L16.2607 10.01C16.2807 10.24 16.3607 10.45 16.5007 10.63L18.3407 13.07C18.9307 13.86 18.3707 15 17.3707 15H6.21071C5.21071 15 4.65071 13.86 5.24071 13.07L7.08071 10.63C7.22071 10.45 7.30071 10.24 7.32071 10.01L7.93071 4.95Z" fill="white" stroke="white" stroke-width="1.5" stroke-linecap="round" stroke-linejoin="round"/>
</svg>
