<svg width="14" height="10" viewBox="0 0 14 10" fill="none" xmlns="http://www.w3.org/2000/svg">
<path d="M0.583252 9.66671V8.03337C0.583252 7.70282 0.668321 7.399 0.83846 7.12192C1.0086 6.84483 1.23464 6.63337 1.51659 6.48754C2.11936 6.18615 2.73186 5.96011 3.35409 5.80942C3.97631 5.65872 4.60825 5.58337 5.24992 5.58337C5.89159 5.58337 6.52353 5.65872 7.14575 5.80942C7.76797 5.96011 8.38048 6.18615 8.98325 6.48754C9.2652 6.63337 9.49124 6.84483 9.66138 7.12192C9.83152 7.399 9.91659 7.70282 9.91659 8.03337V9.66671H0.583252ZM11.0833 9.66671V7.91671C11.0833 7.48893 10.9642 7.07817 10.726 6.68442C10.4878 6.29067 10.1499 5.95282 9.71242 5.67087C10.2083 5.72921 10.6749 5.82886 11.1124 5.96983C11.5499 6.11081 11.9583 6.28337 12.3374 6.48754C12.6874 6.68199 12.9548 6.89831 13.1395 7.1365C13.3242 7.37469 13.4166 7.63476 13.4166 7.91671V9.66671H11.0833ZM5.24992 5.00004C4.60825 5.00004 4.05895 4.77157 3.602 4.31462C3.14506 3.85768 2.91659 3.30837 2.91659 2.66671C2.91659 2.02504 3.14506 1.47574 3.602 1.01879C4.05895 0.561846 4.60825 0.333374 5.24992 0.333374C5.89159 0.333374 6.44089 0.561846 6.89784 1.01879C7.35478 1.47574 7.58325 2.02504 7.58325 2.66671C7.58325 3.30837 7.35478 3.85768 6.89784 4.31462C6.44089 4.77157 5.89159 5.00004 5.24992 5.00004ZM11.0833 2.66671C11.0833 3.30837 10.8548 3.85768 10.3978 4.31462C9.94089 4.77157 9.39159 5.00004 8.74992 5.00004C8.64297 5.00004 8.50686 4.98789 8.34159 4.96358C8.17631 4.93928 8.0402 4.91254 7.93325 4.88337C8.19575 4.57226 8.39749 4.22712 8.53846 3.84796C8.67943 3.46879 8.74992 3.07504 8.74992 2.66671C8.74992 2.25837 8.67943 1.86462 8.53846 1.48546C8.39749 1.10629 8.19575 0.761152 7.93325 0.450041C8.06936 0.40143 8.20547 0.369832 8.34159 0.355249C8.4777 0.340666 8.61381 0.333374 8.74992 0.333374C9.39159 0.333374 9.94089 0.561846 10.3978 1.01879C10.8548 1.47574 11.0833 2.02504 11.0833 2.66671ZM1.74992 8.50004H8.74992V8.03337C8.74992 7.92643 8.72318 7.82921 8.66971 7.74171C8.61624 7.65421 8.54575 7.58615 8.45825 7.53754C7.93325 7.27504 7.40339 7.07817 6.86867 6.94692C6.33395 6.81567 5.79436 6.75004 5.24992 6.75004C4.70547 6.75004 4.16589 6.81567 3.63117 6.94692C3.09645 7.07817 2.56659 7.27504 2.04159 7.53754C1.95409 7.58615 1.8836 7.65421 1.83013 7.74171C1.77665 7.82921 1.74992 7.92643 1.74992 8.03337V8.50004ZM5.24992 3.83337C5.57075 3.83337 5.84541 3.71914 6.07388 3.49067C6.30235 3.26219 6.41659 2.98754 6.41659 2.66671C6.41659 2.34587 6.30235 2.07122 6.07388 1.84275C5.84541 1.61428 5.57075 1.50004 5.24992 1.50004C4.92909 1.50004 4.65443 1.61428 4.42596 1.84275C4.19749 2.07122 4.08325 2.34587 4.08325 2.66671C4.08325 2.98754 4.19749 3.26219 4.42596 3.49067C4.65443 3.71914 4.92909 3.83337 5.24992 3.83337Z" fill="white"/>
</svg>
