<svg width="24" height="24" viewBox="0 0 24 24" fill="none" xmlns="http://www.w3.org/2000/svg">
<path d="M11.6939 6.12122H12.3028C13.4793 6.12122 14.4356 7.07756 14.4356 8.25407V8.59808C14.4356 8.75289 14.3118 8.87673 14.157 8.87673H9.8431C9.6883 8.87673 9.56445 8.75289 9.56445 8.59808V8.25407C9.56445 7.07756 10.5208 6.12122 11.6973 6.12122H11.6939Z" fill="white" stroke="white" stroke-width="1.5" stroke-miterlimit="10"/>
<path d="M11.9964 5.48137C12.9578 5.48137 13.7371 4.70204 13.7371 3.74069C13.7371 2.77933 12.9578 2 11.9964 2C11.0351 2 10.2557 2.77933 10.2557 3.74069C10.2557 4.70204 11.0351 5.48137 11.9964 5.48137Z" fill="white" stroke="#FF6A39" stroke-width="1.5" stroke-miterlimit="10"/>
<path d="M11.6939 19.187H12.3028C13.4793 19.187 14.4356 20.1434 14.4356 21.3199V21.6639C14.4356 21.8187 14.3118 21.9425 14.157 21.9425H9.8431C9.6883 21.9425 9.56445 21.8187 9.56445 21.6639V21.3199C9.56445 20.1434 10.5208 19.187 11.6973 19.187H11.6939Z" fill="white" stroke="white" stroke-width="1.5" stroke-miterlimit="10"/>
<path d="M11.9964 18.5472C12.9578 18.5472 13.7371 17.7678 13.7371 16.8065C13.7371 15.8451 12.9578 15.0658 11.9964 15.0658C11.0351 15.0658 10.2557 15.8451 10.2557 16.8065C10.2557 17.7678 11.0351 18.5472 11.9964 18.5472Z" fill="white" stroke="#FF6A39" stroke-width="1.5" stroke-miterlimit="10"/>
<path d="M19.2581 12.998H19.867C21.0435 12.998 21.9998 13.9543 21.9998 15.1308V15.4748C21.9998 15.6296 21.876 15.7535 21.7212 15.7535H17.4073C17.2525 15.7535 17.1287 15.6296 17.1287 15.4748V15.1308C17.1287 13.9543 18.085 12.998 19.2615 12.998H19.2581Z" fill="white" stroke="white" stroke-width="1.5" stroke-miterlimit="10"/>
<path d="M19.5608 12.3581C20.5221 12.3581 21.3014 11.5788 21.3014 10.6174C21.3014 9.65607 20.5221 8.87674 19.5608 8.87674C18.5994 8.87674 17.8201 9.65607 17.8201 10.6174C17.8201 11.5788 18.5994 12.3581 19.5608 12.3581Z" fill="white" stroke="#FF6A39" stroke-width="1.5" stroke-miterlimit="10"/>
<path d="M4.12942 12.998H4.73831C5.91482 12.998 6.87117 13.9543 6.87117 15.1308V15.4748C6.87117 15.6296 6.74733 15.7535 6.59252 15.7535H2.27865C2.12384 15.7535 2 15.6296 2 15.4748V15.1308C2 13.9543 2.95635 12.998 4.13286 12.998H4.12942Z" fill="white" stroke="white" stroke-width="1.5" stroke-miterlimit="10"/>
<path d="M4.43209 12.3581C5.39345 12.3581 6.17278 11.5788 6.17278 10.6174C6.17278 9.65607 5.39345 8.87674 4.43209 8.87674C3.47074 8.87674 2.69141 9.65607 2.69141 10.6174C2.69141 11.5788 3.47074 12.3581 4.43209 12.3581Z" fill="white" stroke="#FF6A39" stroke-width="1.5" stroke-miterlimit="10"/>
</svg>
