<svg width="24" height="24" viewBox="0 0 24 24" fill="none" xmlns="http://www.w3.org/2000/svg">
<path d="M18.6899 6.97998L18.6999 6.98998L21.9999 12.13L18.9999 13.79" fill="white"/>
<path d="M18.6899 6.97998L18.6999 6.98998L21.9999 12.13L18.9999 13.79" stroke="white" stroke-width="1.5" stroke-linecap="round" stroke-linejoin="round"/>
<path d="M5.31 6.97998L5.3 6.98998L2 12.13L5 13.79" fill="white"/>
<path d="M5.31 6.97998L5.3 6.98998L2 12.13L5 13.79" stroke="white" stroke-width="1.5" stroke-linecap="round" stroke-linejoin="round"/>
<path d="M15 4C14.97 5.64 13.64 6.95 12 6.95C10.36 6.95 9.03 5.64 9 4C7.3 4.25 5.89 5.41 5.31 6.98H5.3C5.1 7.5 5 8.05 5 8.63V20.95H19V8.63C19 8.05 18.9 7.5 18.7 6.99H18.69C18.11 5.41 16.7 4.25 15 4Z" fill="white" stroke="white" stroke-width="1.5" stroke-linecap="round" stroke-linejoin="round"/>
<path d="M15 4C14.97 5.64 13.64 6.95 12 6.95C10.36 6.95 9.03 5.64 9 4C7.3 4.25 5.89 5.41 5.31 6.98H5.3C5.1 7.5 5 8.05 5 8.63V20.95H19V8.63C19 8.05 18.9 7.5 18.7 6.99H18.69C18.11 5.41 16.7 4.25 15 4Z" stroke="white" stroke-width="1.5" stroke-linecap="round" stroke-linejoin="round"/>
</svg>
