<svg width="24" height="24" viewBox="0 0 24 24" fill="" xmlns="http://www.w3.org/2000/svg">
    <path fill-rule="evenodd" clip-rule="evenodd" d="M19.691 8.842c-.99-1.234-2.378-1.947-3.69-1.947-1.734 0-2.466.824-3.67.824-1.24 0-2.182-.823-3.682-.823-1.474 0-3.04.895-4.033 2.425-1.398 2.15-1.161 6.197 1.105 9.646.81 1.233 1.893 2.62 3.308 2.633 1.258.011 1.614-.802 3.32-.812 1.707-.01 2.03.82 3.288.81 1.415-.014 2.557-1.55 3.367-2.783.58-.884.797-1.33 1.248-2.329-3.277-1.238-3.803-5.867-.561-7.644z" fill=""/>
    <path fill-rule="evenodd" clip-rule="evenodd" d="M14.687 5.517c.63-.808 1.109-1.95.935-3.117-1.03.071-2.233.726-2.936 1.58-.638.774-1.164 1.923-.96 3.04 1.124.034 2.287-.637 2.961-1.503z" fill=""/>
</svg>
