<svg width="104" height="104" viewBox="0 0 104 104" fill="none" xmlns="http://www.w3.org/2000/svg">
  <path
    d="M45.608 70.308L74.858 41.058L71.0663 37.3747L45.608 62.833L32.8247 49.9413L29.1413 53.733L45.608 70.308ZM51.9997 93.1663C46.3663 93.1663 41.0399 92.083 36.0205 89.9163C31.0011 87.7497 26.6316 84.8066 22.9122 81.0872C19.1927 77.3677 16.2497 72.9983 14.083 67.9788C11.9163 62.9594 10.833 57.633 10.833 51.9997C10.833 46.2941 11.9163 40.9316 14.083 35.9122C16.2497 30.8927 19.1927 26.5413 22.9122 22.858C26.6316 19.1747 31.0011 16.2497 36.0205 14.083C41.0399 11.9163 46.3663 10.833 51.9997 10.833C57.7052 10.833 63.0677 11.9163 68.0872 14.083C73.1066 16.2497 77.458 19.1747 81.1413 22.858C84.8247 26.5413 87.7497 30.8927 89.9163 35.9122C92.083 40.9316 93.1663 46.2941 93.1663 51.9997C93.1663 57.633 92.083 62.9594 89.9163 67.9788C87.7497 72.9983 84.8247 77.3677 81.1413 81.0872C77.458 84.8066 73.1066 87.7497 68.0872 89.9163C63.0677 92.083 57.7052 93.1663 51.9997 93.1663ZM51.9997 88.2913C62.1108 88.2913 70.6872 84.7524 77.7288 77.6747C84.7705 70.5969 88.2913 62.0386 88.2913 51.9997C88.2913 41.8886 84.7705 33.3122 77.7288 26.2705C70.6872 19.2288 62.1108 15.708 51.9997 15.708C41.9608 15.708 33.4025 19.2288 26.3247 26.2705C19.2469 33.3122 15.708 41.8886 15.708 51.9997C15.708 62.0386 19.2469 70.5969 26.3247 77.6747C33.4025 84.7524 41.9608 88.2913 51.9997 88.2913Z"
    fill=""
  />
</svg>
