<svg width="24" height="24" viewBox="0 0 24 24" fill="none" xmlns="http://www.w3.org/2000/svg">
<path d="M21.8615 11.9308C21.8615 17.4182 17.4182 21.8615 11.9308 21.8615C10.7644 21.8615 9.63135 21.6616 8.59829 21.2839C7.65409 20.9506 4.04391 22.4502 3.24412 21.8615C2.53319 21.3283 4.63265 18.7179 4.08835 18.0181C2.77758 16.3407 2 14.2302 2 11.9308C2 6.44329 6.44329 2 11.9308 2C17.4182 2 21.8615 6.44329 21.8615 11.9308V11.9308Z" fill="#000" stroke="#000" stroke-width="1.5" stroke-linecap="round" stroke-linejoin="round"/>
<path d="M11.9308 13.5415C12.8203 13.5415 13.5415 12.8203 13.5415 11.9308C13.5415 11.0412 12.8203 10.3201 11.9308 10.3201C11.0412 10.3201 10.3201 11.0412 10.3201 11.9308C10.3201 12.8203 11.0412 13.5415 11.9308 13.5415Z" fill="#FF6A39"/>
<path d="M15.963 13.5415C16.8525 13.5415 17.5737 12.8203 17.5737 11.9308C17.5737 11.0412 16.8525 10.3201 15.963 10.3201C15.0734 10.3201 14.3523 11.0412 14.3523 11.9308C14.3523 12.8203 15.0734 13.5415 15.963 13.5415Z" fill="#FF6A39"/>
<path d="M7.89853 13.5415C8.7881 13.5415 9.50923 12.8203 9.50923 11.9308C9.50923 11.0412 8.7881 10.3201 7.89853 10.3201C7.00897 10.3201 6.28784 11.0412 6.28784 11.9308C6.28784 12.8203 7.00897 13.5415 7.89853 13.5415Z" fill="#FF6A39"/>
</svg>
