<svg width="24" height="24" viewBox="0 0 24 24" fill="none" xmlns="http://www.w3.org/2000/svg">
<path d="M15.1799 5H20.9399C21.5199 5 21.9999 5.48 21.9999 6.06V9C20.0699 9 18.4999 10.57 18.4999 12.5C18.4999 14.43 20.0699 16 21.9999 16V18.94C21.9999 19.52 21.5199 20 20.9399 20H15.1799" fill="#000"/>
<path d="M15.1799 5H20.9399C21.5199 5 21.9999 5.48 21.9999 6.06V9C20.0699 9 18.4999 10.57 18.4999 12.5C18.4999 14.43 20.0699 16 21.9999 16V18.94C21.9999 19.52 21.5199 20 20.9399 20H15.1799" stroke="#000" stroke-width="1.5" stroke-linecap="round" stroke-linejoin="round"/>
<path d="M15.9299 5C15.9299 4.58579 15.5941 4.25 15.1799 4.25C14.7657 4.25 14.4299 4.58579 14.4299 5H15.9299ZM14.4299 20C14.4299 20.4142 14.7657 20.75 15.1799 20.75C15.5941 20.75 15.9299 20.4142 15.9299 20H14.4299ZM14.4299 5V6.875H15.9299V5H14.4299ZM14.4299 10.625V14.375H15.9299V10.625H14.4299ZM14.4299 18.125V20H15.9299V18.125H14.4299Z" fill="#000"/>
<path d="M12.5 5V20H3.06C2.48 20 2 19.52 2 18.94V16C3.93 16 5.5 14.44 5.5 12.5C5.5 10.56 3.93 9 2 9V6.06C2 5.48 2.48 5 3.06 5H12.5Z" fill="#000" stroke="#000" stroke-width="1.5" stroke-linecap="round" stroke-linejoin="round"/>
</svg>
