<svg width="24" height="24" viewBox="0 0 24 24" fill="none" xmlns="http://www.w3.org/2000/svg">
<path d="M4 22H16C17.1046 22 18 21.1046 18 20V6.82843C18 6.29799 17.7893 5.78929 17.4142 5.41421L14.5858 2.58579C14.2107 2.21071 13.702 2 13.1716 2H4C2.89543 2 2 2.89543 2 4V20C2 21.1046 2.89543 22 4 22Z" fill="white" stroke="white" stroke-width="1.5" stroke-linejoin="round"/>
<path d="M5 8H11" stroke="#FF6A39" stroke-width="1.5" stroke-linecap="round"/>
<path d="M5 12.5H13" stroke="#FF6A39" stroke-width="1.5" stroke-linecap="round"/>
<path d="M5 17H13" stroke="#FF6A39" stroke-width="1.5" stroke-linecap="round"/>
<path d="M14 2V6H18" stroke="white" stroke-width="1.5" stroke-linejoin="round"/>
<path d="M11.9778 19.0222L12.7988 16.7733C12.9986 16.2258 13.3157 15.7286 13.7278 15.3165L19.3372 9.70711C19.7277 9.31659 20.3609 9.31659 20.7514 9.70711L21.2928 10.2485C21.6834 10.639 21.6834 11.2722 21.2928 11.6627L15.6834 17.2722C15.2713 17.6843 14.7741 18.0013 14.2267 18.2012L11.9778 19.0222Z" fill="#FF6A39" stroke="#FF6A39" stroke-width="1.5" stroke-linejoin="round"/>
<path d="M18.3595 10.8984L20.1798 12.7187" stroke="#FF6A39" stroke-width="1.5" stroke-linejoin="round"/>
</svg>
