<svg width="24" height="24" viewBox="0 0 24 24" fill="none" xmlns="http://www.w3.org/2000/svg">
<path d="M2.75 6.81L12 2.75L21.25 6.81V7.1V16.9L12 20.95L2.75 16.9V6.81Z" fill='transparent' stroke="#000" stroke-width="1.5" stroke-linecap="round" stroke-linejoin="round"/>
<path d="M21.55 6.12L12.3 2.06C12.11 1.98 11.89 1.98 11.7 2.06L7.52 3.89L5.72 4.69L2.45 6.12C2.18 6.24 2 6.51 2 6.81V16.89C2 17.19 2.18 17.46 2.45 17.58L11.7 21.64C11.79 21.68 11.9 21.7 12 21.7C12.1 21.7 12.21 21.68 12.3 21.64L21.55 17.58C21.82 17.46 22 17.19 22 16.89V6.81C22 6.51 21.82 6.24 21.55 6.12V6.12ZM20.5 7.3V16.4L12 20.13L3.5 16.4V7.3L3.66 7.23L7.49 5.55L9.3 4.75L12 3.57L20.34 7.23L20.5 7.3V7.3Z" fill='#000' />
<path d="M2.75 6.81L12 11.16L21.25 6.81" fill='transparent' stroke="#000" stroke-width="1.5" stroke-linecap="round" stroke-linejoin="round"/>
<path d="M12 11.16V20.95" fill='transparent' stroke="#000" stroke-width="1.5" stroke-linecap="round" stroke-linejoin="round"/>
<path d="M17.38 9.13001V11.75C17.38 12.16 17.04 12.5 16.62 12.5C16.2 12.5 15.88 12.16 15.88 11.75V9.60001L15.6 9.46001L7.48997 5.55001L6.59997 5.11001L5.71997 4.69001L7.51997 3.89001L8.40997 4.32001L9.29997 4.75001L16.95 8.45001C17.06 8.51001 17.16 8.59001 17.23 8.69001C17.33 8.81001 17.38 8.97001 17.38 9.13001V9.13001Z" fill='transparent' fill="#000"/>
</svg>
