<svg width="24" height="24" viewBox="0 0 24 24" fill="none" xmlns="http://www.w3.org/2000/svg">
<g clip-path="url(#clip0_369_3295)">
<path d="M1.86567 11.7932L1.86567 12.1326L1.86567 13.6599C1.86567 14.2963 2.37479 14.8054 3.00411 14.7984L7.04876 14.7984C7.68516 14.7984 8.19427 14.2893 8.1872 13.6599V12.5993C8.1872 11.977 8.69632 11.4679 9.31857 11.4679L14.3815 11.4679C15.0037 11.4679 15.5128 11.977 15.5128 12.5993V13.6599C15.5128 14.2963 16.0219 14.8054 16.6513 14.7984L20.7242 14.7984C21.3606 14.7984 21.8697 14.2893 21.8626 13.6599L21.8626 12.1326V11.7932V12.1326V11.7932C21.8626 9.2193 19.7696 7.12627 17.1957 7.12627L6.53257 7.12627C3.9587 7.12627 1.86567 9.2193 1.86567 11.7932L1.86567 12.1326" fill='transparent' stroke="#FF375E" stroke-width="1.5" stroke-linecap="round" stroke-linejoin="round"/>
</g>
<defs>
<clipPath id="clip0_369_3295">
<rect width="24" height="24" fill="white"/>
</clipPath>
</defs>
</svg>
