<svg width="21" height="21" viewBox="0 0 21 21" fill="" xmlns="http://www.w3.org/2000/svg">
<path d="M19.3246 20.5734L13.4496 14.7234C11.6663 16.1734 9.93294 17.2526 8.24961 17.9609C6.56628 18.6693 4.91628 19.0234 3.29961 19.0234C2.91628 19.0234 2.59961 18.9151 2.34961 18.6984C2.09961 18.4818 1.97461 18.2068 1.97461 17.8734V14.4984C1.97461 14.2318 2.05794 13.9984 2.22461 13.7984C2.39128 13.5984 2.59961 13.4734 2.84961 13.4234L5.82461 12.7734C6.04128 12.7234 6.25794 12.7359 6.47461 12.8109C6.69128 12.8859 6.88294 13.0151 7.04961 13.1984L9.42461 15.6484C9.90794 15.4151 10.4163 15.1068 10.9496 14.7234C11.4829 14.3401 11.9579 13.9818 12.3746 13.6484L0.599609 1.84844L1.67461 0.773438L20.3996 19.5234L19.3246 20.5734ZM8.04961 16.3734L6.07461 14.2984L3.49961 14.8234V17.4984C4.24961 17.4651 5.02461 17.3484 5.82461 17.1484C6.62461 16.9484 7.36628 16.6901 8.04961 16.3734ZM15.5746 12.5734L14.4996 11.4984C14.8496 11.0818 15.2038 10.6109 15.5621 10.0859C15.9204 9.56094 16.2413 9.08177 16.5246 8.64844L14.0284 6.12529C13.8925 5.99072 13.7996 5.8276 13.7496 5.63594C13.6996 5.44427 13.6996 5.23177 13.7496 4.99844L14.3996 1.87344C14.4496 1.60677 14.5621 1.39427 14.7371 1.23594C14.9121 1.0776 15.1163 0.998438 15.3496 0.998438H18.8496C19.1663 0.998438 19.4371 1.10558 19.6621 1.31986C19.8871 1.53415 19.9996 1.802 19.9996 2.12344C19.9996 3.82344 19.5996 5.61094 18.7996 7.48594C17.9996 9.36094 16.9246 11.0568 15.5746 12.5734ZM17.2246 7.22344C17.6579 6.22344 17.9746 5.34844 18.1746 4.59844C18.3746 3.84844 18.4663 3.14844 18.4496 2.49844H15.7996L15.2246 5.22344L17.2246 7.22344Z" fill=""/>
</svg>
