<svg width="24" height="24" viewBox="0 0 24 24" fill="none" xmlns="http://www.w3.org/2000/svg">
<path d="M12.8167 8.9995L11.5152 11.2341C11.2438 11.0698 10.9281 10.9821 10.5902 10.9821C9.57115 10.9821 8.75145 11.7982 8.75145 12.8005V12.8333H6.0985V12.8005C6.0985 11.7982 5.27326 10.9821 4.25971 10.9821C3.92186 10.9821 3.59509 11.0752 3.3237 11.2396L2.02215 9.01045C2.57047 8.69279 2.93601 8.10676 2.93601 7.43857C2.93601 6.77039 2.55939 6.16793 2 5.85575L3.33478 3.57187C3.60617 3.7307 3.92186 3.81834 4.25971 3.81834C5.27326 3.81834 6.0985 3.00228 6.0985 2H8.75145C8.75145 3.00228 9.57115 3.81834 10.5902 3.81834C10.9225 3.81834 11.2327 3.7307 11.4986 3.57735L12.8333 5.8667C12.285 6.17888 11.9139 6.76491 11.9139 7.43857C11.9139 8.11223 12.2739 8.68731 12.8167 8.9995Z" stroke="white" stroke-width="1.5" stroke-linecap="round" stroke-linejoin="round"/>
<path d="M7.41689 9.88119C8.79337 9.88119 9.90922 8.77774 9.90922 7.41658C9.90922 6.05541 8.79337 4.95197 7.41689 4.95197C6.04042 4.95197 4.92456 6.05541 4.92456 7.41658C4.92456 8.77774 6.04042 9.88119 7.41689 9.88119Z" stroke="#FF6A39" stroke-width="1.5" stroke-linecap="round" stroke-linejoin="round"/>
<path d="M21.9885 12.6791L21.0874 14.2262C20.8995 14.1124 20.681 14.0517 20.4471 14.0517C19.7416 14.0517 19.1741 14.6167 19.1741 15.3106V15.3333H17.3374V15.3106C17.3374 14.6167 16.7661 14.0517 16.0644 14.0517C15.8305 14.0517 15.6043 14.1162 15.4164 14.23L14.5153 12.6867C14.8949 12.4668 15.148 12.0611 15.148 11.5985C15.148 11.1359 14.8873 10.7188 14.5 10.5027L15.4241 8.92156C15.612 9.03152 15.8305 9.09219 16.0644 9.09219C16.7661 9.09219 17.3374 8.52723 17.3374 7.83334H19.1741C19.1741 8.52723 19.7416 9.09219 20.4471 9.09219C20.6771 9.09219 20.8919 9.03152 21.0759 8.92536L22 10.5103C21.6204 10.7264 21.3635 11.1321 21.3635 11.5985C21.3635 12.0649 21.6127 12.463 21.9885 12.6791Z" stroke="white" stroke-width="1.5" stroke-linecap="round" stroke-linejoin="round"/>
<path d="M18.2502 13.2896C19.2032 13.2896 19.9757 12.5256 19.9757 11.5833C19.9757 10.6409 19.2032 9.87701 18.2502 9.87701C17.2973 9.87701 16.5248 10.6409 16.5248 11.5833C16.5248 12.5256 17.2973 13.2896 18.2502 13.2896Z" stroke="#FF6A39" stroke-width="1.5" stroke-linecap="round" stroke-linejoin="round"/>
<path d="M13.6564 19.6407L12.8555 21.0159C12.6885 20.9147 12.4942 20.8608 12.2863 20.8608C11.6592 20.8608 11.1547 21.363 11.1547 21.9798V22H9.52215V21.9798C9.52215 21.363 9.01431 20.8608 8.39059 20.8608C8.18269 20.8608 7.9816 20.9181 7.81459 21.0192L7.01363 19.6475C7.35106 19.452 7.57601 19.0913 7.57601 18.6802C7.57601 18.269 7.34424 17.8982 7 17.7061L7.8214 16.3007C7.98841 16.3984 8.18269 16.4523 8.39059 16.4523C9.01431 16.4523 9.52215 15.9501 9.52215 15.3333H11.1547C11.1547 15.9501 11.6592 16.4523 12.2863 16.4523C12.4908 16.4523 12.6817 16.3984 12.8453 16.304L13.6667 17.7129C13.3292 17.905 13.1009 18.2656 13.1009 18.6802C13.1009 19.0947 13.3224 19.4486 13.6564 19.6407Z" stroke="white" stroke-width="1.5" stroke-linecap="round" stroke-linejoin="round"/>
<path d="M10.3334 20.1833C11.1805 20.1833 11.8672 19.5043 11.8672 18.6666C11.8672 17.829 11.1805 17.15 10.3334 17.15C9.48636 17.15 8.79968 17.829 8.79968 18.6666C8.79968 19.5043 9.48636 20.1833 10.3334 20.1833Z" stroke="#FF6A39" stroke-width="1.5" stroke-linecap="round" stroke-linejoin="round"/>
</svg>
