<svg width="24" height="24" viewBox="0 0 24 24" fill="none" xmlns="http://www.w3.org/2000/svg">
<path d="M19.1409 18.174C17.4953 18.174 15.6917 16.5377 14.5295 13.8973C14.4923 13.8137 14.4087 13.7579 14.325 13.7579H9.63924C9.54627 13.7579 9.47189 13.8137 9.4347 13.8973C8.08662 16.9561 5.88321 18.6667 4.06097 18.0438C3.0104 17.6906 2.31312 16.6493 2.08069 15.106C1.87615 13.73 2.0621 12.0751 2.61992 10.4388C2.99181 9.33245 3.80066 7.29639 4.99068 6.10636C5.68797 5.40907 6.71995 5 7.76122 5H16.2402C17.2629 5 18.2855 5.43696 19.0479 6.19933C20.303 7.45444 20.8237 8.80252 21.3815 10.4388C21.93 12.0658 22.1253 13.73 21.9207 15.106C21.6883 16.6493 20.9817 17.6906 19.9404 18.0438C19.6894 18.1275 19.4384 18.1647 19.1781 18.1647L19.1409 18.174Z" fill='transparent' stroke="#000" stroke-width="1.5"/>
<path d="M16.1659 8.76533C16.5818 8.76533 16.919 8.42817 16.919 8.01227C16.919 7.59636 16.5818 7.2592 16.1659 7.2592C15.75 7.2592 15.4128 7.59636 15.4128 8.01227C15.4128 8.42817 15.75 8.76533 16.1659 8.76533Z" fill="#222"/>
<path d="M16.1659 11.759C16.5818 11.759 16.919 11.4218 16.919 11.0059C16.919 10.59 16.5818 10.2529 16.1659 10.2529C15.75 10.2529 15.4128 10.59 15.4128 11.0059C15.4128 11.4218 15.75 11.759 16.1659 11.759Z" fill="#222"/>
<path d="M17.6627 10.2622C18.0786 10.2622 18.4158 9.92501 18.4158 9.5091C18.4158 9.09319 18.0786 8.75603 17.6627 8.75603C17.2468 8.75603 16.9097 9.09319 16.9097 9.5091C16.9097 9.92501 17.2468 10.2622 17.6627 10.2622Z" fill="#222"/>
<path d="M14.6688 10.2622C15.0847 10.2622 15.4219 9.92501 15.4219 9.5091C15.4219 9.09319 15.0847 8.75603 14.6688 8.75603C14.2529 8.75603 13.9158 9.09319 13.9158 9.5091C13.9158 9.92501 14.2529 10.2622 14.6688 10.2622Z" fill="#222"/>
<path d="M7.45435 8.48641V7.77054C7.45435 7.49162 7.67748 7.26849 7.9564 7.26849H8.44914C8.72806 7.26849 8.95119 7.49162 8.95119 7.77054V8.48641C8.95119 8.63517 9.07205 8.76533 9.2301 8.76533H9.94598C10.2249 8.76533 10.448 8.98846 10.448 9.26737V9.76012C10.448 10.039 10.2249 10.2622 9.94598 10.2622H9.2301C9.08135 10.2622 8.95119 10.383 8.95119 10.5411V11.257C8.95119 11.5359 8.72806 11.759 8.44914 11.759H7.9564C7.67748 11.759 7.45435 11.5359 7.45435 11.257V10.5411C7.45435 10.3923 7.33349 10.2622 7.17544 10.2622H6.45956C6.18065 10.2622 5.95752 10.039 5.95752 9.76012V9.26737C5.95752 8.98846 6.18065 8.76533 6.45956 8.76533H7.17544C7.32419 8.76533 7.45435 8.64447 7.45435 8.48641V8.48641Z" fill="#222"/>
</svg>
