<svg width="14" height="14" viewBox="0 0 14 14" fill="none" xmlns="http://www.w3.org/2000/svg">
<path d="M6.33398 10.3333H7.66732V6.33325H6.33398V10.3333ZM7.00065 4.99992C7.18954 4.99992 7.34787 4.93603 7.47565 4.80825C7.60343 4.68047 7.66732 4.52214 7.66732 4.33325C7.66732 4.14436 7.60343 3.98603 7.47565 3.85825C7.34787 3.73047 7.18954 3.66659 7.00065 3.66659C6.81176 3.66659 6.65343 3.73047 6.52565 3.85825C6.39787 3.98603 6.33398 4.14436 6.33398 4.33325C6.33398 4.52214 6.39787 4.68047 6.52565 4.80825C6.65343 4.93603 6.81176 4.99992 7.00065 4.99992ZM7.00065 13.6666C6.07843 13.6666 5.21176 13.4916 4.40065 13.1416C3.58954 12.7916 2.88398 12.3166 2.28398 11.7166C1.68398 11.1166 1.20898 10.411 0.858984 9.59992C0.508984 8.78881 0.333984 7.92214 0.333984 6.99992C0.333984 6.0777 0.508984 5.21103 0.858984 4.39992C1.20898 3.58881 1.68398 2.88325 2.28398 2.28325C2.88398 1.68325 3.58954 1.20825 4.40065 0.858252C5.21176 0.508252 6.07843 0.333252 7.00065 0.333252C7.92287 0.333252 8.78954 0.508252 9.60065 0.858252C10.4118 1.20825 11.1173 1.68325 11.7173 2.28325C12.3173 2.88325 12.7923 3.58881 13.1423 4.39992C13.4923 5.21103 13.6673 6.0777 13.6673 6.99992C13.6673 7.92214 13.4923 8.78881 13.1423 9.59992C12.7923 10.411 12.3173 11.1166 11.7173 11.7166C11.1173 12.3166 10.4118 12.7916 9.60065 13.1416C8.78954 13.4916 7.92287 13.6666 7.00065 13.6666ZM7.00065 12.3333C8.48954 12.3333 9.75065 11.8166 10.784 10.7833C11.8173 9.74992 12.334 8.48881 12.334 6.99992C12.334 5.51103 11.8173 4.24992 10.784 3.21659C9.75065 2.18325 8.48954 1.66659 7.00065 1.66659C5.51176 1.66659 4.25065 2.18325 3.21732 3.21659C2.18398 4.24992 1.66732 5.51103 1.66732 6.99992C1.66732 8.48881 2.18398 9.74992 3.21732 10.7833C4.25065 11.8166 5.51176 12.3333 7.00065 12.3333Z" fill="#8B8A8C"/>
</svg>
