<svg width="18" height="18" viewBox="0 0 18 18" fill="" xmlns="http://www.w3.org/2000/svg">
<path d="M11 17.7266V16.1766C12.6167 15.7099 13.9375 14.8141 14.9625 13.4891C15.9875 12.1641 16.5 10.6599 16.5 8.97656C16.5 7.29323 15.9917 5.7849 14.975 4.45156C13.9583 3.11823 12.6333 2.22656 11 1.77656V0.226562C13.0667 0.693229 14.75 1.73906 16.05 3.36406C17.35 4.98906 18 6.8599 18 8.97656C18 11.0932 17.35 12.9641 16.05 14.5891C14.75 16.2141 13.0667 17.2599 11 17.7266ZM0 12.0016V6.00156H4L9 1.00156V17.0016L4 12.0016H0ZM10.5 13.2016V4.77656C11.4167 5.0599 12.1458 5.59323 12.6875 6.37656C13.2292 7.1599 13.5 8.0349 13.5 9.00156C13.5 9.95156 13.225 10.8182 12.675 11.6016C12.125 12.3849 11.4 12.9182 10.5 13.2016ZM7.5 4.80156L4.675 7.50156H1.5V10.5016H4.675L7.5 13.2266V4.80156Z" fill=""/>
</svg>
