<svg width="24" height="24" viewBox="0 0 24 24" fill="none" xmlns="http://www.w3.org/2000/svg">
<path d="M11.0909 7.45455V4.13504C11.0909 3.2872 12.0798 2.82405 12.7311 3.36682L21.0782 10.3227C21.5579 10.7225 21.5579 11.4593 21.0782 11.8591L12.7311 18.815C12.0798 19.3578 11.0909 18.8946 11.0909 18.0468V14.7273" fill='transparent' stroke="#000" stroke-width="1.5" stroke-linecap="round" stroke-linejoin="round"/>
<path d="M10.7555 15.398C11.126 15.5833 11.5765 15.4331 11.7617 15.0626C11.947 14.6921 11.7968 14.2416 11.4263 14.0564L10.7555 15.398ZM1.25 21.0908C1.25 21.505 1.58579 21.8408 2 21.8408C2.41421 21.8408 2.75 21.505 2.75 21.0908H1.25ZM11.4263 14.0564C7.28274 11.9846 1.25 15.0883 1.25 21.0908H2.75C2.75 16.1843 7.62635 13.8334 10.7555 15.398L11.4263 14.0564ZM2.75 21.0908C2.75 16.1588 3.65087 12.9394 5.10379 10.9675C6.52411 9.03998 8.54796 8.20447 11.0909 8.20447V6.70447C8.17932 6.70447 5.65771 7.68714 3.89621 10.0778C2.16731 12.4241 1.25 16.0229 1.25 21.0908H2.75Z" fill='transparent' fill="#000"/>
</svg>
