<svg width="14" height="19" viewBox="0 0 14 19" fill="" xmlns="http://www.w3.org/2000/svg">
<path d="M7 11.425C6.28333 11.425 5.68333 11.1674 5.2 10.6521C4.71667 10.1368 4.475 9.51112 4.475 8.775V2.5C4.475 1.80555 4.72034 1.21528 5.21103 0.729175C5.70171 0.243059 6.29754 0 6.99853 0C7.69951 0 8.29583 0.243059 8.7875 0.729175C9.27917 1.21528 9.525 1.80555 9.525 2.5V8.775C9.525 9.51112 9.28333 10.1368 8.8 10.6521C8.31667 11.1674 7.71667 11.425 7 11.425ZM6.25 19V15.6C4.48333 15.4167 3 14.675 1.8 13.375C0.6 12.075 0 10.5417 0 8.775H1.5C1.5 10.2917 2.03573 11.5667 3.1072 12.6C4.17867 13.6333 5.4745 14.15 6.9947 14.15C8.5149 14.15 9.8125 13.6333 10.8875 12.6C11.9625 11.5667 12.5 10.2917 12.5 8.775H14C14 10.5417 13.4 12.075 12.2 13.375C11 14.675 9.51667 15.4167 7.75 15.6V19H6.25ZM7 9.925C7.3 9.925 7.54583 9.8125 7.7375 9.5875C7.92917 9.3625 8.025 9.09167 8.025 8.775V2.5C8.025 2.21667 7.92677 1.97917 7.7303 1.7875C7.53385 1.59583 7.29042 1.5 7 1.5C6.70958 1.5 6.46615 1.59583 6.2697 1.7875C6.07323 1.97917 5.975 2.21667 5.975 2.5V8.775C5.975 9.09167 6.07083 9.3625 6.2625 9.5875C6.45417 9.8125 6.7 9.925 7 9.925Z" fill=""/>
</svg>
