<svg width="24" height="24" viewBox="0 0 24 24" fill="none" xmlns="http://www.w3.org/2000/svg">
<path d="M9.96216 5.62289L11.7736 7.43433C12.3774 8.03814 12.3774 9.01038 11.7736 9.60396M9.59374 11.7736C8.98993 12.3774 8.01769 12.3774 7.42411 11.7736L5.61267 9.96215M15.9234 13.7538L16.6604 14.4907L21.5472 19.3775C22.151 19.9813 22.151 20.9433 21.5472 21.5472C20.9434 22.151 19.9814 22.151 19.3775 21.5472L14.4856 16.6604C14.2218 16.3969 13.9741 16.1493 13.7378 15.9134" fill='transparent' stroke="#FF6A39" stroke-width="1.5" stroke-linecap="round" stroke-linejoin="round"/>
<path d="M9.48126 12.6742L19.613 2.54242C20.616 3.54536 21.1072 4.85533 21.1174 6.16529C21.1174 7.47526 20.616 8.78522 19.613 9.78817L13.1041 16.2971L11.6611 14.854L5.51043 21.0047C4.90662 21.6086 3.94461 21.6086 3.3408 21.0047C2.73699 20.4009 2.73699 19.4389 3.3408 18.8351L9.4915 12.6844L9.48126 12.6742Z" stroke="#000" stroke-width="1.5" stroke-linecap="round" stroke-linejoin="round"/>
<path d="M9.96211 5.62287L6.33923 2" fill='transparent' stroke="#FF6A39" stroke-width="1.5" stroke-linecap="round" stroke-linejoin="round"/>
<path d="M7.79255 7.79249L4.16968 4.16962" fill='transparent' stroke="#FF6A39" stroke-width="1.5" stroke-linecap="round" stroke-linejoin="round"/>
<path d="M5.62287 9.96214L2 6.33926" fill='transparent' stroke="#FF6A39" stroke-width="1.5" stroke-linecap="round" stroke-linejoin="round"/>
</svg>
