<svg width="24" height="24" viewBox="0 0 24 24" fill="none" xmlns="http://www.w3.org/2000/svg">
<path d="M22 12C22 6.47715 17.5228 2 12 2C6.47715 2 2 6.47715 2 12C2 17.5228 6.47715 22 12 22C17.5228 22 22 17.5228 22 12Z" fill='transparent' stroke="#000" stroke-width="1.5" stroke-miterlimit="10"/>
<path d="M15.7263 9.0421C15.7263 10.5263 14.8631 11.3684 13.8105 12.2526L12.3894 13.421V14.5158H10.9052V12.8632L13.0421 11.1474C13.6842 10.621 14.1789 10.0105 14.1789 9.13684C14.1789 8.2 13.4842 7.10526 12.0315 7.10526C10.5789 7.10526 9.76839 8.17894 9.76839 9.31578V9.52631H8.28418V9.31578C8.28418 7.36842 9.70523 5.69473 12.0631 5.69473C14.421 5.69473 15.7263 7.43157 15.7263 9.05263V9.0421ZM10.9052 16.2H12.3894V18.3158H10.9052V16.2V16.2Z" fill="#FF6A39"/>
</svg>
