<svg width="24" height="24" viewBox="0 0 24 24" fill="none" xmlns="http://www.w3.org/2000/svg">
<path d="M7.41 7.94165L12.82 3.33165C13.71 2.57165 15.07 3.20165 15.07 4.37165V20.2017C15.07 21.3717 13.7 22.0017 12.82 21.2417L7.41 16.6317C7.16 16.4217 6.85 16.3017 6.52 16.3017H3.92C2.86 16.3017 2 15.4417 2 14.3817V10.1817C2 9.12165 2.86 8.26165 3.92 8.26165H6.53C6.85 8.26165 7.17 8.14165 7.42 7.93165L7.41 7.94165Z" fill='transparent' stroke="#000" stroke-width="1.5" stroke-linecap="round" stroke-linejoin="round"/>
<path d="M17.87 7.03168C18.72 8.52168 19.22 10.2617 19.22 12.1117C19.22 14.0817 18.66 15.9117 17.71 17.4717" fill='transparent' stroke="#000" stroke-width="1.5" stroke-linecap="round" stroke-linejoin="round"/>
<path d="M19.88 5.02167C21.22 7.06167 22 9.50167 22 12.1117C22 14.7217 21.16 17.3717 19.71 19.4717" fill='transparent' stroke="#000" stroke-width="1.5" stroke-linecap="round" stroke-linejoin="round"/>
</svg>
