<svg width="22" height="22" viewBox="0 0 22 22" fill="none" xmlns="http://www.w3.org/2000/svg">
    <path d="M13.226 8.218a1.666 1.666 0 1 0 0-3.331 1.666 1.666 0 0 0 0 3.331zM21 15.435l-3.698-3.697a2.185 2.185 0 0 0-3.076 0l-.466.466c-.911.91-2.4.91-3.31 0L8.407 10.16a2.175 2.175 0 0 0-3.076 0L1 14.49" stroke="#FF6A39" stroke-width="1.5" stroke-linecap="round" stroke-linejoin="round"/>
    <path d="M15.447 1H6.565A5.552 5.552 0 0 0 1.01 6.552v8.884a5.552 5.552 0 0 0 5.553 5.553h8.883A5.552 5.552 0 0 0 21 15.436V6.552A5.552 5.552 0 0 0 15.447 1z" stroke="#FF6A39" stroke-width="1.5" stroke-miterlimit="10"/>
</svg>
