<svg width="24" height="24" viewBox="0 0 24 24" fill="none" xmlns="http://www.w3.org/2000/svg">
<path d="M18.6021 6.04373H5.3979C3.52129 6.04373 2 7.56502 2 9.44163V17.311C2 19.1876 3.52129 20.7089 5.3979 20.7089H18.6021C20.4787 20.7089 22 19.1876 22 17.311V9.44163C22 7.56502 20.4787 6.04373 18.6021 6.04373Z" fill="white" stroke="white" stroke-width="1.5" stroke-linecap="round" stroke-linejoin="round"/>
<path d="M11.9945 17.3664C14.2012 17.3664 15.99 15.5775 15.99 13.3708C15.99 11.1641 14.2012 9.37521 11.9945 9.37521C9.78778 9.37521 7.9989 11.1641 7.9989 13.3708C7.9989 15.5775 9.78778 17.3664 11.9945 17.3664Z" stroke="#FF6A39" stroke-width="1.5" stroke-linecap="round" stroke-linejoin="round"/>
<path d="M6.81458 6.04372L7.95459 4.19535C8.40838 3.45379 9.21635 3 10.0907 3H13.9203C14.7947 3 15.6026 3.45379 16.0564 4.19535L17.1964 6.04372" stroke="white" stroke-width="1.5" stroke-linecap="round" stroke-linejoin="round"/>
<path d="M18.4583 8.55618H18.9674" stroke="#FF6A39" stroke-width="1.5" stroke-linecap="round" stroke-linejoin="round"/>
</svg>
