<svg width="24" height="24" viewBox="0 0 24 24" fill="none" xmlns="http://www.w3.org/2000/svg">
<path d="M17.3846 14.8108H9.57003C8.65701 14.8108 7.85988 14.1925 7.63285 13.3081L5.92571 6.6584H6H19.0458C20.4608 6.6584 21.4283 8.08753 20.9027 9.40127L19.2415 13.5537C18.9378 14.313 18.2024 14.8108 17.3846 14.8108Z" fill="#000"/>
<path d="M2 4H3.69183C4.60486 4 5.40198 4.61833 5.62902 5.50268L5.92571 6.6584M5.92571 6.6584L7.63285 13.3081C7.85988 14.1925 8.65701 14.8108 9.57003 14.8108H17.3846C18.2024 14.8108 18.9378 14.313 19.2415 13.5537L20.9027 9.40127C21.4283 8.08753 20.4608 6.6584 19.0458 6.6584H6H5.92571Z" stroke="#000" stroke-width="1.5" stroke-linecap="round" stroke-linejoin="round"/>
<circle cx="9.56754" cy="18.5946" r="1.62162" fill="#111"/>
<circle cx="17.1352" cy="18.5946" r="1.62162" fill="#111"/>
</svg>
