<svg width="24" height="24" viewBox="0 0 24 24" fill="none" xmlns="http://www.w3.org/2000/svg">
<path d="M6.7619 12.5238C9.94412 12.5238 12.5238 9.94412 12.5238 6.7619C12.5238 3.57969 9.94412 1 6.7619 1C3.57969 1 1 3.57969 1 6.7619C1 9.94412 3.57969 12.5238 6.7619 12.5238Z" fill="#FF6A39" stroke="#FF6A39" stroke-width="1.5" stroke-linecap="round" stroke-linejoin="round"/>
<path d="M9.67931 9.67926L6.76196 6.76192V3.54132" fill='transparent' stroke="#fff" stroke-width="1.5" stroke-linecap="round" stroke-linejoin="round"/>
<path d="M23 9.41136C23 7.49244 21.4444 5.93686 19.5255 5.93686H15.1428C15.5 12.5 10.5 16 4.14282 15.1429V19.2266C4.14282 21.1455 5.69841 22.7011 7.61732 22.7011H19.5255C21.4444 22.7011 23 21.1455 23 19.2266V9.41136Z" fill="#FF6A39" stroke="#FF6A39" stroke-width="1.5" stroke-linecap="round" stroke-linejoin="round"/>
<path d="M17.7625 7.61735V4.14285" fill='transparent' stroke="#fff" stroke-width="1.5" stroke-linecap="round" stroke-linejoin="round"/>
<path d="M9.41131 16.6387H8.4834" fill='transparent' stroke="#fff" stroke-width="1.5" stroke-linecap="round" stroke-linejoin="round"/>
<path d="M14.0405 16.6387H13.1125" fill='transparent' stroke="#fff" stroke-width="1.5" stroke-linecap="round" stroke-linejoin="round"/>
<path d="M18.6696 12.0094H17.7417" fill='transparent' stroke="#fff" stroke-width="1.5" stroke-linecap="round" stroke-linejoin="round"/>
<path d="M18.6696 16.6387H17.7417" fill='transparent' stroke="#fff" stroke-width="1.5" stroke-linecap="round" stroke-linejoin="round"/>
</svg>
