<svg width="24" height="24" viewBox="0 0 24 24" fill="none" xmlns="http://www.w3.org/2000/svg">
<path d="M10.2299 4.86C9.53989 4.33 8.67989 4.02 7.73989 4.02C5.47989 4.02 3.63989 5.86 3.63989 8.13C3.63989 10.4 5.47989 12.23 7.73989 12.23C9.08989 12.23 10.2999 11.58 11.0399 10.57" fill="#000"/>
<path d="M10.2299 4.86C9.53989 4.33 8.67989 4.02 7.73989 4.02C5.47989 4.02 3.63989 5.86 3.63989 8.13C3.63989 10.4 5.47989 12.23 7.73989 12.23C9.08989 12.23 10.2999 11.58 11.0399 10.57" stroke="#FF6A39" stroke-width="1.5" stroke-miterlimit="10"/>
<path d="M7.64 21.15H2.69C2.31 21.15 2 20.83 2 20.45V19.9C2 17 4.35 14.65 7.25 14.65H8.21C9.06 14.65 9.88 14.85 10.59 15.22" fill="#000"/>
<path d="M7.64 21.15H2.69C2.31 21.15 2 20.83 2 20.45V19.9C2 17 4.35 14.65 7.25 14.65H8.21C9.06 14.65 9.88 14.85 10.59 15.22" stroke="#000" stroke-width="1.5" stroke-miterlimit="10"/>
<path d="M14.82 12.24C17.6476 12.24 19.94 9.9477 19.94 7.12C19.94 4.2923 17.6476 2 14.82 2C11.9923 2 9.69995 4.2923 9.69995 7.12C9.69995 9.9477 11.9923 12.24 14.82 12.24Z" fill="#000" stroke="#FF6A39" stroke-width="1.5" stroke-miterlimit="10"/>
<path d="M14.7399 14.12H14.9099C18.8199 14.12 21.9999 17.3 21.9999 21.21V21.31C21.9999 21.82 21.5799 22.24 21.0699 22.24H8.5799C8.0699 22.24 7.6499 21.82 7.6499 21.31V21.21C7.6499 17.3 10.8299 14.12 14.7399 14.12Z" fill="#000" stroke="#000" stroke-width="1.5" stroke-miterlimit="10"/>
</svg>
