<svg width="24" height="24" viewBox="0 0 24 24" fill="none" xmlns="http://www.w3.org/2000/svg">
    <path d="M8.067 16.752c-2.048-.067-3.429-1.486-3.838-2.857a4.01 4.01 0 0 0 1.81-.076c-.944-.22-1.744-.696-2.353-1.458a4.09 4.09 0 0 1-.915-2.628c.581.314 1.181.486 1.858.514a5.202 5.202 0 0 1-.477-.38 4.02 4.02 0 0 1-1.295-2.43 4.109 4.109 0 0 1 .448-2.58c.047-.086.066-.086.133-.01a11.538 11.538 0 0 0 4.829 3.457c.923.353 1.885.59 2.866.695l.629.058c.076 0 .095 0 .076-.086-.428-2.076.743-4.124 2.762-4.753 1.571-.495 2.981-.142 4.181 1 .067.067.124.086.219.067a8.64 8.64 0 0 0 2.362-.895c.029-.02.057-.057.095-.029.029.029 0 .067-.019.096a4.137 4.137 0 0 1-1.743 2.123c.22-.01.41-.047.6-.085.19-.038.39-.086.581-.134.19-.047.381-.114.572-.18.18-.067.371-.143.552-.21 0 .057-.038.086-.057.124a7.92 7.92 0 0 1-1.867 1.914c-.067.048-.085.095-.085.18.066 3.106-.924 5.848-2.924 8.21-1.4 1.658-3.153 2.79-5.238 3.42-.781.238-1.572.38-2.381.457-.953.085-1.896.066-2.838-.067a11.688 11.688 0 0 1-4.562-1.676s-.02-.01-.048-.048a8.2 8.2 0 0 0 3.2-.257 8.257 8.257 0 0 0 2.867-1.457v-.02z" fill="#55ACEE"/>
</svg>
