<svg width="24" height="24" viewBox="0 0 24 24" fill="none" xmlns="http://www.w3.org/2000/svg">
<path d="M18.505 18.7975L18.745 18.5575L19.825 17.4775C20.275 17.0275 20.275 16.3075 19.825 15.8675L16.965 13.0075C16.515 12.5575 15.795 12.5575 15.355 13.0075L14.605 13.7575C14.165 14.1975 13.445 14.1975 13.005 13.7575L9.425 10.1775C8.985 9.7375 8.985 9.0175 9.425 8.5775L10.175 7.8275C10.625 7.3775 10.625 6.6575 10.175 6.2175L7.295 3.3375C6.845 2.8875 6.125 2.8875 5.685 3.3375L4.605 4.4175L4.365 4.6575L4.605 4.4175L4.365 4.6575C2.545 6.4775 2.545 9.4375 4.365 11.2575L11.905 18.7975C13.725 20.6175 16.685 20.6175 18.505 18.7975L18.745 18.5575" fill="#000"/>
<path d="M18.505 18.7975L18.745 18.5575L19.825 17.4775C20.275 17.0275 20.275 16.3075 19.825 15.8675L16.965 13.0075C16.515 12.5575 15.795 12.5575 15.355 13.0075L14.605 13.7575C14.165 14.1975 13.445 14.1975 13.005 13.7575L9.425 10.1775C8.985 9.7375 8.985 9.0175 9.425 8.5775L10.175 7.8275C10.625 7.3775 10.625 6.6575 10.175 6.2175L7.295 3.3375C6.845 2.8875 6.125 2.8875 5.685 3.3375L4.605 4.4175L4.365 4.6575L4.605 4.4175L4.365 4.6575C2.545 6.4775 2.545 9.4375 4.365 11.2575L11.905 18.7975C13.725 20.6175 16.685 20.6175 18.505 18.7975L18.745 18.5575" stroke="#000" stroke-width="1.5" stroke-linecap="round" stroke-linejoin="round"/>
</svg>
