<svg width="24" height="24" viewBox="0 0 24 24" fill="none" xmlns="http://www.w3.org/2000/svg">
<path d="M21.9693 15.0675L19.5665 19.2393C19.0654 18.9325 18.4826 18.7689 17.8589 18.7689C15.9775 18.7689 14.4642 20.2924 14.4642 22.1636V22.2249H9.56646V22.1636C9.56646 20.2924 8.04294 18.7689 6.17178 18.7689C5.54806 18.7689 4.94479 18.9427 4.44376 19.2495L2.0409 15.0879C3.05317 14.4949 3.72802 13.4008 3.72802 12.1534C3.72802 10.9059 3.03272 9.78119 2 9.19836L4.46421 4.93456C4.96523 5.23108 5.54806 5.39468 6.17178 5.39468C8.04294 5.39468 9.56646 3.87117 9.56646 2H14.4642C14.4642 3.87117 15.9775 5.39468 17.8589 5.39468C18.4724 5.39468 19.045 5.23108 19.5358 4.94479L22 9.21881C20.9877 9.80164 20.3027 10.8957 20.3027 12.1534C20.3027 13.411 20.9673 14.4847 21.9693 15.0675Z" fill="#000" stroke="#000" stroke-width="1.5" stroke-linecap="round" stroke-linejoin="round"/>
<path d="M12 16.7137C14.5412 16.7137 16.6013 14.6537 16.6013 12.1125C16.6013 9.5713 14.5412 7.51126 12 7.51126C9.45884 7.51126 7.3988 9.5713 7.3988 12.1125C7.3988 14.6537 9.45884 16.7137 12 16.7137Z" stroke="#FF6A39" stroke-width="1.5" stroke-linecap="round" stroke-linejoin="round"/>
</svg>
