<svg width="24" height="24" viewBox="0 0 24 24" fill="none" xmlns="http://www.w3.org/2000/svg">
<path d="M12.4401 11.87C15.2347 11.87 17.5001 9.60456 17.5001 6.81C17.5001 4.01544 15.2347 1.75 12.4401 1.75C9.64557 1.75 7.38013 4.01544 7.38013 6.81C7.38013 9.60456 9.64557 11.87 12.4401 11.87Z" fill="transparent"/>
<path d="M6.5002 17.33H5.9502C6.0602 17.07 6.2002 16.82 6.3602 16.58C6.7802 15.9 7.3402 15.32 8.0002 14.86V15.83H9.7502C10.1602 15.83 10.5002 16.17 10.5002 16.58C10.5002 16.99 10.1602 17.33 9.7502 17.33H8.0002V19.08C8.0002 19.49 7.6602 19.83 7.2502 19.83C6.8402 19.83 6.5002 19.49 6.5002 19.08V17.33V17.33Z" fill="#000"/>
<path d="M12.4501 1C9.25014 1 6.64014 3.61 6.64014 6.81C6.64014 10.01 9.25014 12.62 12.4501 12.62C15.6501 12.62 18.2601 10.02 18.2601 6.81C18.2601 3.6 15.6501 1 12.4501 1ZM12.4501 11.12C10.0701 11.12 8.14014 9.19 8.14014 6.81C8.14014 4.43 10.0701 2.5 12.4501 2.5C14.8301 2.5 16.7601 4.44 16.7601 6.81C16.7601 9.18 14.8301 11.12 12.4501 11.12V11.12Z" fill="#000"/>
<path d="M19.5301 19.92V20.92C19.5301 21.37 19.1701 21.73 18.7201 21.73H6.18012C5.73012 21.73 5.37012 21.37 5.37012 20.92V19.92C5.37012 19.28 5.47012 18.66 5.65012 18.08H5.75012V19.08C5.75012 19.45 5.88012 19.79 6.12012 20.05C6.38012 20.38 6.79012 20.58 7.25012 20.58C8.08012 20.58 8.75012 19.91 8.75012 19.08V18.08H9.75012C10.5801 18.08 11.2501 17.41 11.2501 16.58C11.2501 15.75 10.5801 15.08 9.75012 15.08H8.75012V14.41C9.60012 13.96 10.5501 13.72 11.5701 13.72H13.3401C16.7601 13.72 19.5401 16.5 19.5401 19.92H19.5301Z" fill="transparent"/>
<path d="M13.3301 12.97H11.5601C10.5201 12.97 9.54011 13.2 8.66011 13.62C8.71011 13.76 8.74011 13.92 8.74011 14.08V15.08H9.07011C9.81011 14.69 10.6601 14.47 11.5601 14.47H13.3301C16.3301 14.47 18.7801 16.92 18.7801 19.92L18.7201 20.98L6.11011 20.92V20.05C5.87011 19.79 5.74011 19.45 5.74011 19.08V18.08H4.86011C4.70011 18.67 4.61011 19.28 4.61011 19.92V20.92C4.61011 21.78 5.31011 22.48 6.17011 22.48H18.7201C19.5801 22.48 20.2801 21.78 20.2801 20.92V19.92C20.2801 16.09 17.1601 12.97 13.3301 12.97V12.97ZM6.49011 17.33V17.94C6.67011 17.47 6.92011 17.02 7.24011 16.62C7.24011 16.6 7.25011 16.59 7.27011 16.58C7.48011 16.3 7.72011 16.04 7.99011 15.82V14.08C7.99011 14.08 7.99011 14.01 7.98011 13.98C7.43011 14.3 6.92011 14.71 6.49011 15.18V15.83H5.96011C5.77011 16.07 5.61011 16.32 5.47011 16.58C5.34011 16.82 5.22011 17.07 5.12011 17.33H6.49011V17.33Z" fill="#000"/>
<path d="M10.5 16.58C10.5 16.99 10.16 17.33 9.75 17.33H8V19.08C8 19.49 7.66 19.83 7.25 19.83C6.84 19.83 6.5 19.49 6.5 19.08V17.33H4.75C4.33 17.33 4 16.99 4 16.58C4 16.17 4.33 15.83 4.75 15.83H6.5V14.08C6.5 13.67 6.83 13.33 7.25 13.33C7.63 13.33 7.94 13.62 7.99 13.98C8 14.01 8 14.05 8 14.08V15.83H9.75C10.16 15.83 10.5 16.17 10.5 16.58Z" fill="#222"/>
<path d="M9.75 15.83H8V14.08C8 14.08 8 14.01 7.99 13.98C7.94 13.62 7.63 13.33 7.25 13.33C6.83 13.33 6.5 13.67 6.5 14.08V15.83H4.75C4.33 15.83 4 16.17 4 16.58C4 16.99 4.33 17.33 4.75 17.33H6.5V19.08C6.5 19.49 6.83 19.83 7.25 19.83C7.67 19.83 8 19.49 8 19.08V17.33H9.75C10.16 17.33 10.5 16.99 10.5 16.58C10.5 16.17 10.16 15.83 9.75 15.83Z" fill="#222"/>
</svg>
