<svg width="24" height="24" viewBox="0 0 24 24" fill="none" xmlns="http://www.w3.org/2000/svg">
<path d="M21.0476 10V7C21.0476 5.34315 19.7045 4 18.0476 4H5C3.34315 4 2 5.34315 2 7V17C2 18.6569 3.34315 20 5 20H18.0476C19.7045 20 21.0476 18.6569 21.0476 17V14" fill='transparent' stroke="#000" stroke-width="1.5"/>
<path d="M14.381 12C14.381 10.8954 15.2764 10 16.381 10H21C21.5523 10 22 10.4477 22 11V13C22 13.5523 21.5523 14 21 14H16.381C15.2764 14 14.381 13.1046 14.381 12V12Z" fill='transparent' stroke="#FF6A39" stroke-width="1.5" stroke-linejoin="round"/>
</svg>
