<svg width="24" height="24" viewBox="0 0 24 24" fill="none" xmlns="http://www.w3.org/2000/svg">
<path d="M8.30272 6.1951C7.77429 5.7905 7.11567 5.55385 6.39579 5.55385C4.665 5.55385 3.25586 6.95849 3.25586 8.69139C3.25586 10.4243 4.665 11.8213 6.39579 11.8213C7.42967 11.8213 8.35633 11.3251 8.92305 10.5541" fill='transparent' stroke="#222" stroke-width="1.5" stroke-miterlimit="10"/>
<path d="M6.31932 18.6308H2.52843C2.23741 18.6308 2 18.3865 2 18.0964V17.6765C2 15.4627 3.79972 13.6687 6.02064 13.6687H6.75584C7.4068 13.6687 8.03479 13.8214 8.57853 14.1039" fill='transparent' stroke="#000" stroke-width="1.5" stroke-miterlimit="10"/>
<path d="M15.6663 6.16809C16.1684 5.77083 16.7942 5.53847 17.4782 5.53847C19.1227 5.53847 20.4615 6.91765 20.4615 8.61914C20.4615 10.3206 19.1227 11.6923 17.4782 11.6923C16.4959 11.6923 15.6154 11.2051 15.0769 10.4481" fill='transparent' stroke="#222" stroke-width="1.5" stroke-miterlimit="10"/>
<path d="M17.4545 18.6154H21.4439C21.7502 18.6154 22 18.3882 22 18.1183V17.7278C22 15.6686 20.106 14 17.7688 14H16.9951C16.31 14 15.6491 14.142 15.0769 14.4047" fill='transparent' stroke="#000" stroke-width="1.5" stroke-miterlimit="10"/>
<path d="M11.8614 11.8769C14.0366 11.8769 15.7999 10.1136 15.7999 7.93846C15.7999 5.76331 14.0366 4 11.8614 4C9.68628 4 7.92297 5.76331 7.92297 7.93846C7.92297 10.1136 9.68628 11.8769 11.8614 11.8769Z" fill='transparent' stroke="#222" stroke-width="1.5" stroke-miterlimit="10"/>
<path d="M11.7998 13.3231H11.9306C14.9383 13.3231 17.3844 15.7692 17.3844 18.7769V18.8538C17.3844 19.2462 17.0613 19.5692 16.669 19.5692H7.06133C6.66902 19.5692 6.34595 19.2462 6.34595 18.8538V18.7769C6.34595 15.7692 8.7921 13.3231 11.7998 13.3231Z" fill='transparent' stroke="#000" stroke-width="1.5" stroke-miterlimit="10"/>
</svg>
