<svg width="24" height="24" viewBox="0 0 24 24" fill="none" xmlns="http://www.w3.org/2000/svg">
<path d="M9.67931 9.67926L6.76196 6.76192V3.54132" fill='transparent' stroke="#FF6A39" stroke-width="1.5" stroke-linecap="round" stroke-linejoin="round"/>
<path d="M6.7619 12.5238C9.94412 12.5238 12.5238 9.94412 12.5238 6.7619C12.5238 3.57969 9.94412 1 6.7619 1C3.57969 1 1 3.57969 1 6.7619C1 9.94412 3.57969 12.5238 6.7619 12.5238Z" fill='transparent' stroke="#FF6A39" stroke-width="1.5" stroke-linecap="round" stroke-linejoin="round"/>
<path d="M15.1428 5.93686H19.5255C21.4444 5.93686 23 7.49244 23 9.41136V19.2266C23 21.1455 21.4444 22.7011 19.5255 22.7011H7.61732C5.69841 22.7011 4.14282 21.1455 4.14282 19.2266V15.1429" fill='transparent' stroke="#000" stroke-width="1.5" stroke-linecap="round" stroke-linejoin="round"/>
<path d="M17.7625 7.61735V4.14285" stroke="#FF6A39" stroke-width="1.5" stroke-linecap="round" stroke-linejoin="round"/>
<path d="M9.41131 16.6387H8.4834" stroke="#FF6A39" stroke-width="1.5" stroke-linecap="round" stroke-linejoin="round"/>
<path d="M14.0405 12.0094H13.1125" stroke="#FF6A39" stroke-width="1.5" stroke-linecap="round" stroke-linejoin="round"/>
<path d="M14.0405 16.6387H13.1125" stroke="#FF6A39" stroke-width="1.5" stroke-linecap="round" stroke-linejoin="round"/>
<path d="M18.6696 12.0094H17.7417" stroke="#FF6A39" stroke-width="1.5" stroke-linecap="round" stroke-linejoin="round"/>
<path d="M18.6696 16.6387H17.7417" stroke="#FF6A39" stroke-width="1.5" stroke-linecap="round" stroke-linejoin="round"/>
</svg>
