<svg width="24" height="24" viewBox="0 0 24 24" fill="none" xmlns="http://www.w3.org/2000/svg">
<path d="M13.8039 6.6719L2.70718 17.7686C2.31666 18.1591 2.31666 18.7923 2.70718 19.1828L4.81733 21.293C5.20786 21.6835 5.84102 21.6835 6.23155 21.293L17.3282 10.1963C17.7188 9.80573 17.7188 9.17257 17.3282 8.78204L15.2181 6.6719C14.8276 6.28138 14.1944 6.28138 13.8039 6.6719Z" stroke="#000" stroke-width="1.5" stroke-linejoin="round"/>
<path d="M11.4744 9.38605L14.7549 12.6666" stroke="#000" stroke-width="1.5" stroke-linejoin="round"/>
<path d="M8.68653 4.91632C8.80103 4.21717 9.34925 3.67068 10.0484 3.55445C10.1247 3.5423 10.1247 3.43127 10.0484 3.41913C9.34925 3.30463 8.80276 2.75641 8.68653 2.05725C8.67438 1.98092 8.56335 1.98092 8.55121 2.05725C8.43671 2.75641 7.88849 3.30289 7.18933 3.41913C7.113 3.43127 7.113 3.5423 7.18933 3.55445C7.88849 3.66895 8.43497 4.21717 8.55121 4.91632C8.56335 4.99266 8.67438 4.99266 8.68653 4.91632V4.91632Z" stroke="#000" stroke-width="1.5" stroke-linecap="round" stroke-linejoin="round"/>
<path d="M17.6072 4.91632C17.7217 4.21717 18.2699 3.67068 18.9691 3.55445C19.0454 3.5423 19.0454 3.43127 18.9691 3.41913C18.2699 3.30463 17.7234 2.75641 17.6072 2.05725C17.595 1.98092 17.484 1.98092 17.4719 2.05725C17.3574 2.75641 16.8091 3.30289 16.11 3.41913C16.0337 3.43127 16.0337 3.5423 16.11 3.55445C16.8091 3.66895 17.3556 4.21717 17.4719 4.91632C17.484 4.99266 17.595 4.99266 17.6072 4.91632V4.91632Z" stroke="#000" stroke-width="1.5" stroke-linecap="round" stroke-linejoin="round"/>
<path d="M20.5808 14.8283C20.6953 14.1291 21.2435 13.5826 21.9427 13.4664C22.019 13.4542 22.019 13.3432 21.9427 13.3311C21.2435 13.2166 20.6971 12.6683 20.5808 11.9692C20.5687 11.8928 20.4576 11.8928 20.4455 11.9692C20.331 12.6683 19.7828 13.2148 19.0836 13.3311C19.0073 13.3432 19.0073 13.4542 19.0836 13.4664C19.7828 13.5809 20.3293 14.1291 20.4455 14.8283C20.4576 14.9046 20.5687 14.9046 20.5808 14.8283V14.8283Z" stroke="#000" stroke-width="1.5" stroke-linecap="round" stroke-linejoin="round"/>
</svg>
