<svg width="26" height="26" viewBox="0 0 26 26" fill="none" xmlns="http://www.w3.org/2000/svg">
    <path d="M22.6 1H3.4A2.4 2.4 0 0 0 1 3.4v19.2A2.4 2.4 0 0 0 3.4 25h19.2a2.4 2.4 0 0 0 2.4-2.4V3.4A2.4 2.4 0 0 0 22.6 1z" fill="none" stroke="#000" stroke-opacity=".5" stroke-miterlimit="10" stroke-linecap="square"/>
    <path d="m21.337 18.133-4.2-8.4a.6.6 0 0 0-.48-.33.618.618 0 0 0-.534.24l-4.946 6.598-2.52-3.019a.6.6 0 0 0-.97.066l-3 4.8a.6.6 0 0 0 .513.913h15.6a.6.6 0 0 0 .537-.868zM10 9.4a1.8 1.8 0 1 0 0-3.6 1.8 1.8 0 0 0 0 3.6z" fill="#000" fill-opacity=".5"/>
</svg>
