<svg width="24" height="24" viewBox="0 0 24 24" fill="none" xmlns="http://www.w3.org/2000/svg">
<path d="M14.6888 18.4671C14.7444 18.7004 14.7777 18.9449 14.7777 19.2115C14.7777 20.756 13.5333 22.0004 11.9888 22.0004C10.4444 22.0004 9.19995 20.756 9.19995 19.2115C9.19995 18.956 9.23329 18.7004 9.28884 18.4671" fill='transparent' stroke="#FF6A39" stroke-width="1.5" stroke-miterlimit="10"/>
<path d="M4.35556 10.4227C4.35556 12.1671 3.62222 13.7782 2.46667 15.0782C2.18889 15.3893 2 15.7449 2 16.1116C2 17.4116 3.05556 18.4671 4.35556 18.4671H19.6444C20.9444 18.4671 22 17.4116 22 16.1116C22 15.7449 21.8111 15.3893 21.5333 15.0782C20.3889 13.7671 19.6444 12.156 19.6444 10.4227V9.64488C19.6444 7.52266 18.7889 5.62266 17.4111 4.23377C15.7667 2.61155 13.4111 1.70044 10.8222 2.08933C7.23333 2.62266 4.34444 6.28933 4.34444 9.91155V10.4227H4.35556Z" fill='transparent' stroke="#000" stroke-width="1.5" stroke-linecap="round" stroke-linejoin="round"/>
</svg>
