<svg width="24" height="24" viewBox="0 0 24 24" fill="none" xmlns="http://www.w3.org/2000/svg">
<path d="M18.7858 2L20.1915 3.40563C22.6028 5.81703 22.6028 9.73099 20.1915 12.1424L12.5453 19.7885C10.1339 22.1999 6.21993 22.1999 3.80854 19.7885C1.39715 17.3772 1.39715 13.4632 3.80854 11.0518L10.1945 4.66586C11.8304 3.02999 14.4841 3.02999 16.12 4.66586C17.671 6.2169 17.671 8.73735 16.12 10.2884L9.22508 17.1833C8.4738 17.9346 7.24992 17.9346 6.49864 17.1833L6.46228 17.1469C5.67464 16.3593 5.67464 15.1112 6.45017 14.3357C8.74038 12.0454 13.03 7.75583 13.03 7.75583" fill='transparent' stroke="#000" stroke-width="1.5" stroke-linecap="round" stroke-linejoin="round"/>
</svg>
