<svg width="24" height="24" viewBox="0 0 24 24" fill="none" xmlns="http://www.w3.org/2000/svg">
<path d="M16.8907 4V14.2185" fill='transparent' stroke="#000" stroke-width="1.5" stroke-linecap="round" stroke-linejoin="round"/>
<path d="M11.7815 9.10925H22" fill='transparent' stroke="#000" stroke-width="1.5" stroke-linecap="round" stroke-linejoin="round"/>
<path d="M7.63533 7.9126C6.61681 7.9126 5.60738 8.31273 4.92533 8.99478C3.76131 10.1588 2.97013 12.1504 2.60638 13.2326C2.06074 14.8331 1.87886 16.4518 2.07893 17.7977C2.30628 19.3073 2.98832 20.3258 4.01594 20.6714C5.79835 21.2807 7.95362 19.6074 9.27224 16.6155C9.30861 16.5337 9.38137 16.4791 9.4723 16.4791H14.0557C14.1375 16.4791 14.2193 16.5337 14.2557 16.6155C15.3925 19.1982 17.1567 20.7987 18.7663 20.7987L18.8027 20.7896C19.0573 20.7896 19.3029 20.7532 19.5484 20.6714C20.5669 20.3258 21.2581 19.3073 21.4854 17.7977C21.6855 16.4518 21.4945 14.824 20.958 13.2326" fill='transparent' stroke="#000" stroke-width="1.5" stroke-linecap="round"/>
</svg>
