<svg width="21" height="22" viewBox="0 0 21 22" fill="none" xmlns="http://www.w3.org/2000/svg">
    <path d="M16.651 1H2.74C1.78 1 1 1.779 1 2.74V16.65c0 .961.779 1.74 1.74 1.74H16.65c.961 0 1.74-.779 1.74-1.74V2.74c0-.96-.779-1.739-1.74-1.739z" fill="none" stroke="#222" stroke-miterlimit="10" stroke-linecap="square"/>
    <path d="m15.735 13.414-3.043-6.087a.436.436 0 0 0-.348-.238.448.448 0 0 0-.387.174l-3.583 4.78-1.826-2.187a.435.435 0 0 0-.703.048l-2.174 3.478a.435.435 0 0 0 .372.662h11.303a.435.435 0 0 0 .39-.63zM7.521 7.087a1.304 1.304 0 1 0 0-2.608 1.304 1.304 0 0 0 0 2.608zM18.608 20.567h-2.174V18.61H14.477v-2.174H16.434V14.479h2.174V16.436h1.957v2.174h-1.957v1.957z" fill="#222"/>
    <path d="M16.868 14.915v1.957H14.91v1.304h1.957v1.957h1.304v-1.957h1.957v-1.304h-1.957v-1.957h-1.304zm-.87-.87h3.044v1.957h1.957v3.044h-1.957v1.957h-3.044v-1.957h-1.957v-3.044h1.957v-1.957z" fill="#222"/>
</svg>
