<svg width="120" height="40" viewBox="0 0 120 40" fill="none" xmlns="http://www.w3.org/2000/svg">
<path d="M110.444 0.00013H9.56145C9.19372 0.00013 8.8304 0.00013 8.46364 0.00213C8.15663 0.00413 7.85207 0.00994 7.54211 0.01483C6.86874 0.0227318 6.19695 0.0818063 5.53259 0.19154C4.86915 0.303663 4.2265 0.515046 3.62637 0.81854C3.02697 1.1246 2.47929 1.5223 2.00318 1.9972C1.52457 2.47077 1.12561 3.01815 0.82165 3.61829C0.516847 4.21724 0.305496 4.85907 0.194896 5.52161C0.083244 6.18332 0.0231632 6.85265 0.0151925 7.52361C0.00588648 7.83021 0.00490373 8.13783 0 8.44447V31.5587C0.00490373 31.8692 0.00588648 32.17 0.0151925 32.4806C0.0231657 33.1516 0.0832464 33.8209 0.194896 34.4825C0.30519 35.1455 0.516554 35.7877 0.82165 36.3868C1.12548 36.985 1.52449 37.5302 2.00318 38.0011C2.47748 38.4781 3.02552 38.8761 3.62637 39.1798C4.2265 39.4841 4.86908 39.6968 5.53259 39.8106C6.19707 39.9195 6.86879 39.9786 7.54211 39.9874C7.85207 39.9942 8.15663 39.9981 8.46364 39.9981C8.83039 40.0001 9.19374 40.0001 9.56145 40.0001H110.444C110.804 40.0001 111.171 40.0001 111.531 39.9981C111.837 39.9981 112.15 39.9942 112.455 39.9874C113.128 39.9791 113.798 39.92 114.461 39.8106C115.127 39.696 115.772 39.4834 116.375 39.1798C116.975 38.8759 117.522 38.478 117.996 38.0011C118.474 37.5284 118.874 36.9836 119.181 36.3868C119.484 35.7872 119.693 35.1451 119.802 34.4825C119.914 33.8208 119.976 33.1516 119.988 32.4806C119.992 32.17 119.992 31.8692 119.992 31.5587C120 31.1954 120 30.8341 120 30.4649V9.53626C120 9.17005 120 8.80677 119.992 8.44447C119.992 8.13783 119.992 7.83021 119.988 7.52357C119.976 6.85255 119.914 6.18337 119.802 5.52157C119.693 4.85941 119.484 4.21763 119.181 3.61825C118.562 2.41533 117.581 1.43616 116.375 0.81845C115.772 0.515697 115.127 0.30437 114.461 0.19145C113.798 0.0812328 113.128 0.0221378 112.455 0.01469C112.15 0.00981 111.837 0.00395 111.531 0.002C111.171 0 110.804 0 110.444 0V0.00013Z" fill="#A6A6A6"/>
<path d="M8.57708 38.998C8.27219 38.998 7.97466 38.9941 7.67216 38.9874C7.04551 38.9793 6.42032 38.9251 5.80172 38.8254C5.22491 38.7267 4.66614 38.5433 4.14383 38.2811C3.62632 38.021 3.1543 37.68 2.74586 37.2712C2.33152 36.8671 1.98655 36.3985 1.72464 35.8839C1.45985 35.3659 1.27659 34.8107 1.18127 34.2376C1.07832 33.6218 1.02262 32.9991 1.01465 32.3749C1.00831 32.1654 1 31.4679 1 31.4679V8.51947C1 8.51947 1.00885 7.83262 1.0147 7.63083C1.02233 7.00764 1.07771 6.38594 1.18035 5.77109C1.27585 5.19642 1.45925 4.63961 1.72418 4.11994C1.98513 3.60566 2.32818 3.13669 2.74003 2.7312C3.15142 2.32186 3.62494 1.97911 4.14334 1.71547C4.66445 1.45408 5.22217 1.27193 5.79781 1.17511C6.41844 1.07434 7.0458 1.01986 7.67462 1.01213L8.57757 1H111.418L112.331 1.01262C112.954 1.01997 113.576 1.07396 114.191 1.17414C114.772 1.27217 115.336 1.45559 115.863 1.71838C116.902 2.2497 117.747 3.0903 118.28 4.12236C118.54 4.63845 118.721 5.19072 118.815 5.76042C118.919 6.38031 118.977 7.0069 118.989 7.6352C118.992 7.91653 118.992 8.21873 118.992 8.51947C119 8.892 119 9.24658 119 9.60407V30.3949C119 30.7558 119 31.1079 118.992 31.463C118.992 31.786 118.992 32.082 118.988 32.3866C118.977 33.0036 118.919 33.619 118.817 34.2278C118.724 34.8051 118.542 35.3646 118.277 35.8868C118.013 36.3959 117.67 36.8605 117.26 37.2634C116.852 37.6745 116.379 38.0175 115.86 38.2792C115.335 38.5434 114.772 38.7275 114.191 38.8254C113.572 38.9257 112.947 38.9798 112.32 38.9874C112.027 38.9941 111.72 38.998 111.422 38.998L110.338 39L8.57708 38.998Z" fill="#171724"/>
<path d="M42.3047 27.1475H37.5713L36.4346 30.5039H34.4297L38.9131 18.0859H40.9961L45.4795 30.5039H43.4404L42.3047 27.1475ZM38.0615 25.5987H41.8135L39.9639 20.1514H39.9121L38.0615 25.5987Z" fill="white"/>
<path d="M55.1612 25.9753C55.1612 28.7888 53.6553 30.5964 51.3828 30.5964C50.8072 30.6265 50.2347 30.4939 49.7309 30.2138C49.2271 29.9336 48.8124 29.5173 48.5342 29.0124H48.4912V33.4968H46.6328V21.448H48.4317V22.9538H48.4659C48.7568 22.4514 49.1785 22.0372 49.6862 21.7553C50.1938 21.4735 50.7683 21.3345 51.3487 21.3532C53.6465 21.3532 55.1612 23.1696 55.1612 25.9753ZM53.251 25.9753C53.251 24.1423 52.3037 22.9372 50.8584 22.9372C49.4385 22.9372 48.4834 24.1677 48.4834 25.9753C48.4834 27.7995 49.4385 29.0212 50.8584 29.0212C52.3037 29.0212 53.251 27.8249 53.251 25.9753Z" fill="white"/>
<path d="M65.1221 25.9753C65.1221 28.7888 63.6162 30.5964 61.3438 30.5964C60.7681 30.6265 60.1956 30.4939 59.6918 30.2138C59.188 29.9336 58.7733 29.5173 58.4952 29.0124H58.4521V33.4968H56.5938V21.448H58.3926V22.9538H58.4268C58.7177 22.4513 59.1394 22.0372 59.6471 21.7553C60.1547 21.4735 60.7292 21.3345 61.3096 21.3532C63.6075 21.3532 65.1221 23.1696 65.1221 25.9753ZM63.2119 25.9753C63.2119 24.1423 62.2647 22.9372 60.8194 22.9372C59.3994 22.9372 58.4444 24.1677 58.4444 25.9753C58.4444 27.7995 59.3994 29.0212 60.8194 29.0212C62.2647 29.0212 63.2119 27.8249 63.2119 25.9753H63.2119Z" fill="white"/>
<path d="M71.7149 27.0401C71.8526 28.2715 73.0489 29.0801 74.6836 29.0801C76.25 29.0801 77.377 28.2715 77.377 27.1611C77.377 26.1973 76.6973 25.6201 75.0879 25.2246L73.4786 24.8369C71.1983 24.2861 70.1397 23.2197 70.1397 21.4893C70.1397 19.3467 72.0069 17.875 74.6582 17.875C77.2822 17.875 79.0811 19.3467 79.1416 21.4893H77.2656C77.1533 20.25 76.1289 19.502 74.6318 19.502C73.1348 19.502 72.1104 20.2588 72.1104 21.3604C72.1104 22.2383 72.7647 22.7549 74.3652 23.1504L75.7334 23.4863C78.2812 24.0888 79.3399 25.1123 79.3399 26.9287C79.3399 29.2519 77.4893 30.707 74.5459 30.707C71.792 30.707 69.9326 29.2861 69.8125 27.04L71.7149 27.0401Z" fill="white"/>
<path d="M83.3476 19.3047V21.4473H85.0693V22.9189H83.3476V27.9102C83.3476 28.6855 83.6924 29.0469 84.4492 29.0469C84.6536 29.0433 84.8577 29.029 85.0605 29.0039V30.4668C84.7203 30.5303 84.3744 30.5591 84.0283 30.5527C82.1953 30.5527 81.4805 29.8642 81.4805 28.1084V22.9189H80.1641V21.4473H81.4804V19.3047H83.3476Z" fill="white"/>
<path d="M86.0625 25.9746C86.0625 23.126 87.7402 21.3359 90.3564 21.3359C92.9814 21.3359 94.6514 23.1259 94.6514 25.9746C94.6514 28.8311 92.9902 30.6133 90.3564 30.6133C87.7236 30.6133 86.0625 28.831 86.0625 25.9746ZM92.7578 25.9746C92.7578 24.0205 91.8623 22.8672 90.3564 22.8672C88.8506 22.8672 87.956 24.0293 87.956 25.9746C87.956 27.9365 88.8506 29.0811 90.3564 29.0811C91.8623 29.0811 92.7578 27.9365 92.7578 25.9746H92.7578Z" fill="white"/>
<path d="M96.1875 21.4479H97.96V22.9889H98.003C98.1229 22.5076 98.4048 22.0823 98.8014 21.7844C99.198 21.4865 99.6851 21.3342 100.181 21.3531C100.395 21.3524 100.608 21.3756 100.817 21.4225V23.1608C100.547 23.0781 100.265 23.0402 99.9824 23.0485C99.7124 23.0375 99.4433 23.0851 99.1935 23.188C98.9436 23.2909 98.719 23.4466 98.535 23.6445C98.351 23.8424 98.2121 24.0778 98.1276 24.3344C98.0432 24.5911 98.0153 24.863 98.0459 25.1315V30.5016H96.1875L96.1875 21.4479Z" fill="white"/>
<path d="M109.386 27.8418C109.136 29.4853 107.535 30.6133 105.487 30.6133C102.854 30.6133 101.219 28.8486 101.219 26.0176C101.219 23.1777 102.862 21.3359 105.409 21.3359C107.914 21.3359 109.489 23.0566 109.489 25.8018V26.4385H103.095V26.5508C103.065 26.884 103.107 27.2196 103.217 27.5355C103.327 27.8513 103.503 28.1401 103.734 28.3827C103.964 28.6252 104.243 28.816 104.553 28.9423C104.863 29.0686 105.196 29.1275 105.53 29.1152C105.969 29.1564 106.41 29.0547 106.787 28.8252C107.164 28.5958 107.456 28.2509 107.621 27.8418L109.386 27.8418ZM103.104 25.1396H107.63C107.647 24.8401 107.601 24.5402 107.496 24.259C107.392 23.9778 107.23 23.7213 107.022 23.5055C106.813 23.2898 106.562 23.1194 106.285 23.0052C106.007 22.891 105.709 22.8354 105.409 22.8418C105.107 22.84 104.807 22.8981 104.527 23.0129C104.246 23.1276 103.992 23.2967 103.778 23.5103C103.563 23.724 103.393 23.9779 103.278 24.2576C103.162 24.5372 103.103 24.837 103.104 25.1397V25.1396Z" fill="white"/>
<path d="M37.8271 8.73333C38.2168 8.70537 38.6077 8.76423 38.9718 8.90567C39.3359 9.0471 39.6641 9.26758 39.9327 9.55121C40.2013 9.83483 40.4036 10.1745 40.525 10.5458C40.6464 10.9171 40.6839 11.3107 40.6348 11.6982C40.6348 13.6044 39.6045 14.7002 37.8271 14.7002H35.6719V8.73333H37.8271ZM36.5986 13.8563H37.7236C38.002 13.873 38.2806 13.8273 38.5392 13.7227C38.7977 13.6181 39.0297 13.4571 39.2182 13.2516C39.4067 13.046 39.5469 12.801 39.6288 12.5344C39.7107 12.2678 39.7321 11.9863 39.6914 11.7103C39.7291 11.4355 39.7056 11.1557 39.6224 10.8911C39.5393 10.6264 39.3987 10.3834 39.2106 10.1795C39.0226 9.97554 38.7917 9.81573 38.5346 9.71149C38.2776 9.60726 38.0006 9.56117 37.7236 9.57654H36.5986V13.8563Z" fill="white"/>
<path d="M41.6819 12.4458C41.6536 12.1498 41.6875 11.8513 41.7813 11.5692C41.8751 11.2871 42.0269 11.0278 42.2268 10.8078C42.4268 10.5878 42.6705 10.4121 42.9423 10.2918C43.2142 10.1715 43.5082 10.1094 43.8055 10.1094C44.1027 10.1094 44.3967 10.1715 44.6686 10.2918C44.9404 10.4121 45.1841 10.5878 45.3841 10.8078C45.584 11.0278 45.7358 11.2871 45.8296 11.5692C45.9235 11.8513 45.9573 12.1498 45.929 12.4458C45.9578 12.742 45.9244 13.041 45.8308 13.3235C45.7372 13.606 45.5855 13.8658 45.3855 14.0862C45.1856 14.3067 44.9417 14.4828 44.6695 14.6033C44.3974 14.7239 44.1031 14.7861 43.8055 14.7861C43.5078 14.7861 43.2135 14.7239 42.9414 14.6033C42.6693 14.4828 42.4254 14.3067 42.2254 14.0862C42.0254 13.8658 41.8737 13.606 41.7801 13.3235C41.6865 13.041 41.6531 12.742 41.6819 12.4458ZM45.0149 12.4458C45.0149 11.4697 44.5764 10.8989 43.8069 10.8989C43.0345 10.8989 42.5999 11.4697 42.5999 12.4458C42.5999 13.4297 43.0345 13.9961 43.8069 13.9961C44.5765 13.996 45.0149 13.4257 45.0149 12.4458H45.0149Z" fill="white"/>
<path d="M51.5742 14.6982H50.6523L49.7217 11.3818H49.6514L48.7246 14.6982H47.8115L46.5703 10.1953H47.4717L48.2783 13.6313H48.3447L49.2705 10.1953H50.1231L51.0488 13.6313H51.1191L51.9219 10.1953H52.8105L51.5742 14.6982Z" fill="white"/>
<path d="M53.8594 10.1929H54.7148V10.9082H54.7813C54.8939 10.6513 55.0839 10.436 55.3248 10.2921C55.5657 10.1483 55.8454 10.0833 56.125 10.106C56.3441 10.0895 56.5641 10.1226 56.7687 10.2027C56.9733 10.2827 57.1573 10.4079 57.3069 10.5687C57.4566 10.7295 57.5682 10.922 57.6334 11.1318C57.6986 11.3416 57.7158 11.5634 57.6836 11.7808V14.6958H56.7949V12.004C56.7949 11.2803 56.4805 10.9205 55.8232 10.9205C55.6745 10.9135 55.526 10.9388 55.3879 10.9947C55.2499 11.0505 55.1255 11.1355 55.0234 11.2439C54.9213 11.3523 54.8438 11.4815 54.7963 11.6226C54.7487 11.7637 54.7323 11.9135 54.748 12.0616V14.6958H53.8594L53.8594 10.1929Z" fill="white"/>
<path d="M59.0938 8.4375H59.9824V14.6982H59.0938V8.4375Z" fill="white"/>
<path d="M61.221 12.4458C61.1927 12.1499 61.2265 11.8513 61.3204 11.5692C61.4143 11.2872 61.5661 11.0278 61.766 10.8078C61.966 10.5878 62.2097 10.4121 62.4816 10.2918C62.7534 10.1715 63.0475 10.1094 63.3447 10.1094C63.642 10.1094 63.936 10.1715 64.2079 10.2918C64.4798 10.4121 64.7235 10.5878 64.9235 10.8078C65.1234 11.0278 65.2752 11.2872 65.3691 11.5692C65.4629 11.8513 65.4968 12.1499 65.4685 12.4458C65.4973 12.7421 65.4638 13.0411 65.3702 13.3236C65.2766 13.6061 65.1249 13.8659 64.9249 14.0863C64.7249 14.3067 64.481 14.4829 64.2088 14.6034C63.9367 14.7239 63.6424 14.7862 63.3447 14.7862C63.0471 14.7862 62.7528 14.7239 62.4806 14.6034C62.2085 14.4829 61.9646 14.3067 61.7646 14.0863C61.5646 13.8659 61.4129 13.6061 61.3193 13.3236C61.2256 13.0411 61.1921 12.7421 61.221 12.4458ZM64.554 12.4458C64.554 11.4698 64.1155 10.899 63.346 10.899C62.5735 10.899 62.139 11.4698 62.139 12.4458C62.139 13.4297 62.5735 13.9961 63.346 13.9961C64.1155 13.9961 64.554 13.4258 64.554 12.4458H64.554Z" fill="white"/>
<path d="M66.4062 13.4258C66.4062 12.6152 67.0098 12.1479 68.081 12.0815L69.3008 12.0112V11.6226C69.3008 11.147 68.9863 10.8784 68.3789 10.8784C67.8828 10.8784 67.5391 11.0605 67.4404 11.3789H66.5801C66.6709 10.6055 67.3984 10.1094 68.4199 10.1094C69.5488 10.1094 70.1855 10.6714 70.1855 11.6226V14.6992H69.3301V14.0664H69.2598C69.117 14.2934 68.9166 14.4784 68.679 14.6027C68.4414 14.7269 68.1751 14.7858 67.9072 14.7734C67.7182 14.7931 67.5271 14.7729 67.3464 14.7142C67.1656 14.6555 66.9992 14.5596 66.8577 14.4326C66.7163 14.3056 66.6031 14.1504 66.5253 13.977C66.4476 13.8036 66.407 13.6158 66.4062 13.4258ZM69.3008 13.041V12.6645L68.2012 12.7349C67.5811 12.7764 67.2998 12.9873 67.2998 13.3843C67.2998 13.7895 67.6514 14.0254 68.1348 14.0254C68.2764 14.0397 68.4195 14.0254 68.5555 13.9833C68.6915 13.9412 68.8177 13.8722 68.9265 13.7804C69.0353 13.6885 69.1245 13.5757 69.1888 13.4487C69.2531 13.3217 69.2912 13.183 69.3008 13.041Z" fill="white"/>
<path d="M71.3438 12.4448C71.3438 11.022 72.0752 10.1206 73.2129 10.1206C73.4943 10.1077 73.7736 10.1751 74.0181 10.315C74.2627 10.4548 74.4623 10.6615 74.5938 10.9106H74.6602V8.4375H75.5488V14.6982H74.6973V13.9868H74.627C74.4854 14.2343 74.2787 14.4383 74.0295 14.5768C73.7802 14.7153 73.4978 14.783 73.2129 14.7724C72.0674 14.7725 71.3438 13.8711 71.3438 12.4448ZM72.2617 12.4448C72.2617 13.3999 72.712 13.9746 73.4649 13.9746C74.2139 13.9746 74.6768 13.3916 74.6768 12.4487C74.6768 11.5103 74.209 10.919 73.4649 10.919C72.7168 10.919 72.2617 11.4976 72.2617 12.4448H72.2617Z" fill="white"/>
<path d="M79.2288 12.4458C79.2005 12.1498 79.2343 11.8513 79.3282 11.5692C79.422 11.2871 79.5738 11.0278 79.7737 10.8078C79.9737 10.5878 80.2174 10.4121 80.4892 10.2918C80.7611 10.1715 81.0551 10.1094 81.3523 10.1094C81.6496 10.1094 81.9436 10.1715 82.2154 10.2918C82.4873 10.4121 82.731 10.5878 82.9309 10.8078C83.1309 11.0278 83.2826 11.2871 83.3765 11.5692C83.4703 11.8513 83.5042 12.1498 83.4759 12.4458C83.5047 12.742 83.4713 13.041 83.3777 13.3235C83.2841 13.606 83.1324 13.8658 82.9324 14.0862C82.7324 14.3067 82.4885 14.4828 82.2164 14.6033C81.9443 14.7239 81.65 14.7861 81.3523 14.7861C81.0547 14.7861 80.7604 14.7239 80.4882 14.6033C80.2161 14.4828 79.9722 14.3067 79.7722 14.0862C79.5722 13.8658 79.4206 13.606 79.327 13.3235C79.2334 13.041 79.1999 12.742 79.2288 12.4458ZM82.5618 12.4458C82.5618 11.4697 82.1233 10.8989 81.3538 10.8989C80.5813 10.8989 80.1468 11.4697 80.1468 12.4458C80.1468 13.4297 80.5814 13.9961 81.3538 13.9961C82.1233 13.996 82.5618 13.4257 82.5618 12.4458Z" fill="white"/>
<path d="M84.6719 10.1929H85.5273V10.9082H85.5938C85.7064 10.6513 85.8964 10.436 86.1373 10.2921C86.3782 10.1483 86.6579 10.0833 86.9375 10.106C87.1566 10.0895 87.3766 10.1226 87.5812 10.2027C87.7858 10.2827 87.9698 10.4079 88.1194 10.5687C88.2691 10.7295 88.3807 10.922 88.4459 11.1318C88.5111 11.3416 88.5283 11.5634 88.4961 11.7808V14.6958H87.6074V12.004C87.6074 11.2803 87.293 10.9205 86.6357 10.9205C86.487 10.9135 86.3385 10.9388 86.2004 10.9947C86.0624 11.0505 85.938 11.1355 85.8359 11.2439C85.7338 11.3523 85.6563 11.4815 85.6088 11.6226C85.5612 11.7637 85.5448 11.9135 85.5605 12.0616V14.6958H84.6719V10.1929Z" fill="white"/>
<path d="M93.5107 9.07812V10.2197H94.4863V10.9683H93.5107V13.2837C93.5107 13.7554 93.7051 13.9619 94.1475 13.9619C94.2607 13.9616 94.3739 13.9547 94.4863 13.9414V14.6816C94.3267 14.7102 94.165 14.7254 94.0029 14.727C93.0146 14.727 92.6211 14.3794 92.6211 13.5112V10.9682H91.9062V10.2197H92.6211V9.07812H93.5107Z" fill="white"/>
<path d="M95.7031 8.4375H96.584V10.919H96.6543C96.7724 10.6596 96.9676 10.443 97.2133 10.2987C97.459 10.1543 97.7433 10.0893 98.0273 10.1123C98.2453 10.1004 98.4631 10.1368 98.6654 10.2189C98.8677 10.3009 99.0494 10.4266 99.1975 10.5869C99.3456 10.7473 99.4565 10.9383 99.5223 11.1465C99.5881 11.3546 99.6071 11.5747 99.5781 11.791V14.6982H98.6885V12.0103C98.6885 11.291 98.3535 10.9268 97.7256 10.9268C97.5729 10.9142 97.4193 10.9352 97.2755 10.9883C97.1317 11.0413 97.0013 11.1252 96.8933 11.2339C96.7853 11.3426 96.7023 11.4737 96.6503 11.6178C96.5982 11.7619 96.5783 11.9157 96.5918 12.0683V14.6982H95.7032L95.7031 8.4375Z" fill="white"/>
<path d="M104.761 13.4835C104.641 13.895 104.379 14.251 104.022 14.4891C103.666 14.7273 103.237 14.8324 102.81 14.7862C102.514 14.794 102.219 14.7372 101.946 14.6197C101.674 14.5022 101.43 14.3267 101.232 14.1056C101.034 13.8845 100.887 13.6229 100.8 13.3391C100.713 13.0553 100.69 12.756 100.73 12.462C100.691 12.1671 100.715 11.8672 100.801 11.5825C100.888 11.2978 101.035 11.0351 101.231 10.812C101.428 10.5889 101.671 10.4107 101.943 10.2895C102.214 10.1683 102.509 10.1069 102.806 10.1095C104.059 10.1095 104.815 10.9655 104.815 12.3795V12.6895H101.635V12.7393C101.621 12.9046 101.642 13.0709 101.696 13.2277C101.751 13.3844 101.837 13.5281 101.95 13.6496C102.063 13.771 102.2 13.8676 102.352 13.933C102.504 13.9984 102.669 14.0312 102.835 14.0293C103.047 14.0549 103.263 14.0166 103.453 13.9194C103.644 13.8222 103.802 13.6704 103.906 13.4834L104.761 13.4835ZM101.635 12.0323H103.91C103.921 11.8812 103.9 11.7294 103.85 11.5867C103.799 11.4439 103.718 11.3135 103.614 11.2036C103.51 11.0937 103.383 11.0069 103.243 10.9488C103.103 10.8906 102.953 10.8623 102.801 10.8658C102.648 10.8639 102.495 10.8927 102.353 10.9507C102.21 11.0086 102.081 11.0945 101.972 11.2032C101.864 11.3119 101.778 11.4413 101.72 11.5837C101.662 11.7261 101.633 11.8786 101.635 12.0323H101.635Z" fill="white"/>
<path d="M24.7661 20.3003C24.7768 19.4657 24.9985 18.6473 25.4105 17.9213C25.8226 17.1954 26.4115 16.5854 27.1226 16.1483C26.6709 15.5031 26.0749 14.9722 25.3821 14.5976C24.6893 14.2231 23.9187 14.0152 23.1315 13.9906C21.4522 13.8143 19.8243 14.9954 18.9686 14.9954C18.0963 14.9954 16.7788 14.0081 15.3601 14.0373C14.4424 14.0669 13.548 14.3338 12.7642 14.8118C11.9803 15.2899 11.3336 15.9629 10.8871 16.7651C8.95314 20.1136 10.3957 25.0346 12.2483 27.7412C13.1752 29.0666 14.2585 30.547 15.676 30.4945C17.063 30.437 17.5811 29.61 19.2554 29.61C20.9141 29.61 21.4002 30.4945 22.8464 30.4611C24.3348 30.437 25.2725 29.1299 26.1669 27.792C26.8329 26.8476 27.3453 25.8039 27.6853 24.6995C26.8206 24.3338 26.0827 23.7216 25.5636 22.9393C25.0444 22.157 24.7671 21.2392 24.7661 20.3003Z" fill="white"/>
<path d="M22.0346 12.2094C22.8462 11.2352 23.246 9.98298 23.1492 8.71875C21.9093 8.84897 20.7641 9.44153 19.9416 10.3784C19.5394 10.836 19.2314 11.3685 19.0352 11.9452C18.839 12.522 18.7583 13.1318 18.7979 13.7397C19.418 13.7461 20.0315 13.6117 20.5922 13.3466C21.1528 13.0815 21.646 12.6927 22.0346 12.2094Z" fill="white"/>
</svg>
