<svg width="24" height="24" viewBox="0 0 24 24" fill="none" xmlns="http://www.w3.org/2000/svg">
<path d="M11.0642 2C4.8551 2 2.17328 7.52727 2.17328 7.52727L2.96419 8.09091C2.96419 8.09091 1.97328 9.98182 2.00055 12.4C2.00055 17.3455 5.93692 22 11.7278 22C16.9915 22 21.3369 17.7182 21.3369 12.4091C21.3369 5.49091 15.9733 2 11.0642 2ZM11.1187 3.69091C15.9733 3.69091 19.7369 7.6 19.7369 12.1455C19.7369 16.9636 16.1096 20.3091 11.8915 20.3091C8.78237 20.3091 5.98237 17.9455 5.98237 14.7C5.98237 12.8273 6.98237 11.5182 8.09146 10.8273L8.2551 11C7.94601 11.2364 7.08237 12.6364 7.08237 14.0091C7.08237 16.5636 9.08237 18.3273 11.6096 18.3273C14.8187 18.3273 16.9642 15.5909 16.9642 12.4091C16.9642 8.70909 13.7006 5.56364 9.76419 5.56364C7.59146 5.56364 5.74601 6.5 4.68237 7.32727L4.51873 7.18182C5.90964 5.04545 8.30964 3.69091 11.1278 3.69091H11.1187ZM9.67328 7.23636C12.1824 7.23636 14.6369 8.9 15.246 11.2545L15.0278 11.3364C13.9278 9.89091 12.1278 8.68182 10.0096 8.68182C6.10055 8.68182 4.04601 12.2364 4.34601 15.2L4.11873 15.2818C4.11873 15.2818 3.69146 14.3273 3.69146 13.2C3.69146 9.92727 6.38237 7.22727 9.69146 7.22727L9.67328 7.23636ZM11.3278 11.3455C12.5187 11.3455 13.4642 12.3091 13.4642 13.4545C13.4642 14.4 12.8551 14.9636 12.8551 14.9636L13.5733 15.4636C13.5733 15.4636 12.8642 16.5818 11.4006 16.5818C9.93692 16.5818 8.77328 15.4545 8.77328 13.9455C8.77328 12.4364 10.1096 11.3455 11.3187 11.3455H11.3278Z" fill="#000"/>
</svg>
