<svg width="50" height="50" viewBox="0 0 50 50" fill="none" xmlns="http://www.w3.org/2000/svg">
  <rect opacity="0.00" width="50" height="50" rx="2" fill="white"/>
  <path
    fill-rule="evenodd" clip-rule="evenodd" d="M25.0026 11.6641C21.3814 11.6641 20.927 11.6799 19.5047 11.7446C18.0853 11.8096 17.1164 12.0343 16.2686 12.3641C15.3916 12.7046 14.6477 13.1602 13.9066 13.9016C13.1649 14.6427 12.7094 15.3866 12.3677 16.2633C12.0371 17.1113 11.8121 18.0805 11.7482 19.4994C11.6846 20.9217 11.668 21.3764 11.668 24.9975C11.668 28.6187 11.6841 29.0717 11.7485 30.494C11.8138 31.9134 12.0385 32.8823 12.368 33.7301C12.7088 34.6071 13.1644 35.351 13.9058 36.0921C14.6466 36.8338 15.3905 37.2904 16.2669 37.631C17.1152 37.9607 18.0844 38.1854 19.5036 38.2505C20.9258 38.3152 21.38 38.331 25.0009 38.331C28.6223 38.331 29.0754 38.3152 30.4976 38.2505C31.9171 38.1854 32.8871 37.9607 33.7354 37.631C34.6121 37.2904 35.3549 36.8338 36.0957 36.0921C36.8374 35.351 37.293 34.6071 37.6346 33.7304C37.9624 32.8823 38.1874 31.9132 38.2541 30.4943C38.318 29.072 38.3346 28.6187 38.3346 24.9975C38.3346 21.3764 38.318 20.9219 38.2541 19.4997C38.1874 18.0802 37.9624 17.1113 37.6346 16.2636C37.293 15.3866 36.8374 14.6427 36.0957 13.9016C35.354 13.1599 34.6124 12.7044 33.7346 12.3641C32.8846 12.0343 31.9151 11.8096 30.4957 11.7446C29.0734 11.6799 28.6206 11.6641 24.9984 11.6641H25.0026ZM23.8049 14.0678C24.1599 14.0672 24.556 14.0678 25.001 14.0678C28.561 14.0678 28.983 14.0806 30.3888 14.1445C31.6888 14.2039 32.3944 14.4211 32.8644 14.6036C33.4866 14.8453 33.9302 15.1342 34.3966 15.6009C34.8633 16.0675 35.1522 16.512 35.3944 17.1342C35.5769 17.6037 35.7944 18.3092 35.8536 19.6092C35.9175 21.0148 35.9314 21.437 35.9314 24.9954C35.9314 28.5538 35.9175 28.976 35.8536 30.3816C35.7942 31.6816 35.5769 32.3871 35.3944 32.8566C35.1528 33.4788 34.8633 33.9219 34.3966 34.3883C33.93 34.8549 33.4869 35.1438 32.8644 35.3855C32.3949 35.5688 31.6888 35.7855 30.3888 35.845C28.9832 35.9088 28.561 35.9227 25.001 35.9227C21.4407 35.9227 21.0187 35.9088 19.6131 35.845C18.3131 35.785 17.6076 35.5677 17.1373 35.3852C16.5151 35.1436 16.0706 34.8547 15.6039 34.388C15.1373 33.9213 14.8484 33.478 14.6062 32.8555C14.4236 32.386 14.2061 31.6805 14.147 30.3805C14.0831 28.9749 14.0703 28.5527 14.0703 24.9921C14.0703 21.4315 14.0831 21.0115 14.147 19.6059C14.2064 18.3059 14.4236 17.6003 14.6062 17.1303C14.8478 16.5081 15.1373 16.0636 15.6039 15.597C16.0706 15.1303 16.5151 14.8414 17.1373 14.5992C17.6073 14.4158 18.3131 14.1992 19.6131 14.1395C20.8432 14.0839 21.3198 14.0672 23.8049 14.0645V14.0678ZM32.1195 16.2799C31.2362 16.2799 30.5195 16.9957 30.5195 17.8793C30.5195 18.7627 31.2362 19.4793 32.1195 19.4793C33.0029 19.4793 33.7196 18.7627 33.7196 17.8793C33.7196 16.996 33.0029 16.2793 32.1195 16.2793V16.2799ZM25.0035 18.1504C21.2221 18.1504 18.1562 21.2163 18.1562 24.9977C18.1562 28.7791 21.2221 31.8436 25.0035 31.8436C28.785 31.8436 31.8497 28.7791 31.8497 24.9977C31.8497 21.2163 28.7847 18.1504 25.0033 18.1504H25.0035ZM25.0031 20.5527C27.4576 20.5527 29.4476 22.5425 29.4476 24.9972C29.4476 27.4517 27.4576 29.4417 25.0031 29.4417C22.5483 29.4417 20.5586 27.4517 20.5586 24.9972C20.5586 22.5425 22.5483 20.5527 25.0031 20.5527Z"
    fill=""/>
</svg>
