<svg width="24" height="24" viewBox="0 0 24 24" fill="none" xmlns="http://www.w3.org/2000/svg">
<path d="M12.0001 8.61902C10.1334 8.61902 8.61914 10.1333 8.61914 12C8.61914 13.8666 10.1334 15.3809 12.0001 15.3809C13.8668 15.3809 15.381 13.8666 15.381 12C15.381 10.1333 13.8668 8.61902 12.0001 8.61902Z" fill="#000"/>
<path d="M16.1524 2H7.84762C4.62857 2 2 4.62857 2 7.84762V16.1524C2 19.381 4.62857 22 7.84762 22H16.1524C19.381 22 22 19.3714 22 16.1524V7.84762C22 4.61905 19.3714 2 16.1524 2ZM12 17.1619C9.15238 17.1619 6.8381 14.8476 6.8381 12C6.8381 9.15238 9.15238 6.8381 12 6.8381C14.8476 6.8381 17.1619 9.15238 17.1619 12C17.1619 14.8476 14.8476 17.1619 12 17.1619ZM17.3143 5.44762C18 5.44762 18.5524 6 18.5524 6.68571C18.5524 7.37143 18 7.92381 17.3143 7.92381C16.6286 7.92381 16.0762 7.37143 16.0762 6.68571C16.0762 6 16.6286 5.44762 17.3143 5.44762Z" fill="#000"/>
</svg>
