<svg width="40" height="40" viewBox="0 0 40 40" fill="none" xmlns="http://www.w3.org/2000/svg">
<path d="M20 0C9 0 0 9 0 20C0 31 9 40 20 40C31 40 40 31 40 20C40 8.9 31 0 20 0ZM14.7 29.7H10.3V15.5H14.7V29.7ZM15 11C15 12.4 13.8 13.6 12.4 13.6C11 13.6 9.8 12.4 9.8 11C9.8 9.6 11 8.4 12.4 8.4C13.9 8.4 15 9.5 15 11ZM31.1 29.7H26.7V22.2C26.7 20.2 25.9 19 24.3 19C22.5 19 21.6 20.2 21.6 22.2V29.6H17.4V15.5H21.6V17.4C22.5 15.9 24.1 15 25.9 15.1C28.9 15.1 31.1 16.9 31.1 20.7V29.7Z" fill="url(#paint0_linear_500_9889)"/>
<path d="M31.0999 20.7V29.7H26.6999V22.2C26.6999 20.2 25.8999 19 24.2999 19C22.4999 19 21.5999 20.2 21.5999 22.2V29.6H17.3999V15.5H21.5999V17.4C22.4999 15.9 24.0999 15 25.8999 15.1C28.9999 15 31.0999 16.9 31.0999 20.7Z" fill="white"/>
<path d="M15 10.9999C15 12.4999 13.8001 13.5999 12.4001 13.5999C11.0001 13.5999 9.80005 12.3999 9.80005 10.9999C9.80005 9.5999 11.0001 8.3999 12.4001 8.3999C13.9001 8.3999 15 9.4999 15 10.9999Z" fill="white"/>
<path d="M14.7001 15.5H10.3V29.7H14.7001V15.5Z" fill="white"/>
<defs>
<linearGradient id="paint0_linear_500_9889" x1="12.775" y1="12.7691" x2="41.0586" y2="41.0526" gradientUnits="userSpaceOnUse">
<stop stop-color="#2489BE"/>
<stop offset="1" stop-color="#0575B3"/>
</linearGradient>
</defs>
</svg>
