<svg width="24" height="24" viewBox="0 0 24 24" fill="none" xmlns="http://www.w3.org/2000/svg">
<path d="M12 21.878C10.4673 21.878 9.73422 21.4496 8.211 20.4785C7.85876 20.25 7.35419 20.25 6.82106 20.2405C6.3165 20.2405 5.79289 20.231 5.32641 20.0216C4.85992 19.8121 4.54576 19.4313 4.39344 18.8887C3.85079 18.7649 3.36527 18.584 2.99398 18.3746C2.47038 18.0795 2.13717 17.6987 2.03245 17.2893C1.91821 16.8228 2.10861 16.3563 2.55606 16.0136C2.73694 15.8708 2.9559 15.747 3.20342 15.6042C4.02215 15.1282 5.12649 14.4904 5.88809 12.7863L5.77385 12.7196C5.22169 12.3864 4.69808 12.0723 4.30776 11.6819C3.79367 11.1679 3.59375 10.5871 3.71751 9.96833C3.84127 9.35904 4.19352 8.90208 4.72664 8.68311C5.05984 8.54031 5.45969 8.50223 5.86905 8.56887C5.93569 8.57839 6.00233 8.58791 6.06898 8.60695C5.97377 6.83621 6.4593 5.18923 7.46843 3.98018C7.99204 3.35185 8.6394 2.86633 9.38197 2.53313C10.1626 2.18088 11.048 2 12 2C12.952 2 13.8374 2.18088 14.618 2.53313C15.3606 2.86633 16.008 3.35185 16.5316 3.98018C17.5407 5.18923 18.0357 6.83621 17.931 8.60695C17.9977 8.58791 18.0643 8.57839 18.1309 8.56887C18.5403 8.50223 18.9306 8.54031 19.2734 8.68311C19.797 8.9116 20.1587 9.36856 20.2825 9.96833C20.4063 10.5967 20.2063 11.1679 19.6922 11.6819C19.3019 12.0723 18.7783 12.3864 18.2262 12.7196L18.1119 12.7863C18.8735 14.4904 19.9778 15.1282 20.7966 15.6042C21.0441 15.747 21.2631 15.8708 21.4439 16.0136C21.8914 16.3563 22.0818 16.8133 21.9676 17.2893C21.8723 17.6987 21.5391 18.0795 21.006 18.3746C20.6252 18.584 20.1492 18.7649 19.6066 18.8887C19.4542 19.4313 19.1401 19.8121 18.6736 20.0216C18.2166 20.231 17.693 20.231 17.1789 20.2405C16.6458 20.2405 16.1412 20.25 15.789 20.4785C14.2658 21.4496 13.5327 21.878 12 21.878Z" fill="#000"/>
</svg>
