<svg width="24" height="24" viewBox="0 0 24 24" fill="none" xmlns="http://www.w3.org/2000/svg">
<path d="M8.06667 16.7518C6.01905 16.6851 4.6381 15.2661 4.22857 13.8947C4.8381 13.9994 5.4381 13.9899 6.0381 13.8185C5.09524 13.5994 4.29524 13.1232 3.68571 12.3613C3.07619 11.5994 2.77143 10.7232 2.77143 9.73275C3.35238 10.047 3.95238 10.2185 4.62857 10.247C4.44762 10.1137 4.29524 9.99941 4.15238 9.86608C3.4381 9.20894 3 8.39941 2.85714 7.43751C2.72381 6.52322 2.87619 5.66608 3.30476 4.85656C3.35238 4.77084 3.37143 4.77084 3.4381 4.84703C4.74286 6.41846 6.35238 7.57084 8.26667 8.30417C9.19048 8.65656 10.1524 8.89465 11.1333 8.99941C11.3429 9.01846 11.5524 9.03751 11.7619 9.05656C11.8381 9.05656 11.8571 9.05656 11.8381 8.97084C11.4095 6.89465 12.581 4.84703 14.6 4.21846C16.1714 3.72322 17.581 4.0756 18.781 5.21846C18.8476 5.28513 18.9048 5.30417 19 5.28513C19.8381 5.10417 20.619 4.79941 21.3619 4.38989C21.3905 4.37084 21.419 4.33275 21.4571 4.36132C21.4857 4.38989 21.4571 4.42798 21.4381 4.45656C21.1048 5.35179 20.5333 6.05656 19.6952 6.58037C19.9143 6.57084 20.1048 6.53275 20.2952 6.49465C20.4857 6.45656 20.6857 6.40894 20.8762 6.36132C21.0667 6.3137 21.2571 6.24703 21.4476 6.18037C21.6286 6.1137 21.819 6.03751 22 5.97084C22 6.02798 21.9619 6.05656 21.9429 6.09465C21.4286 6.83751 20.8095 7.4756 20.0762 8.00894C20.0095 8.05656 19.9905 8.10418 19.9905 8.18989C20.0571 11.2947 19.0667 14.0375 17.0667 16.3994C15.6667 18.0566 13.9143 19.1899 11.8286 19.8185C11.0476 20.0566 10.2571 20.1994 9.44762 20.2756C8.49524 20.3613 7.55238 20.3423 6.60952 20.2089C4.97143 19.9708 3.44762 19.4089 2.04762 18.5327C2.04762 18.5327 2.02857 18.5232 2 18.4851C3.10476 18.6089 4.1619 18.5232 5.2 18.228C6.2381 17.9327 7.19048 17.4566 8.06667 16.7708V16.7518Z" fill="#000"/>
</svg>
