<svg width="24" height="24" viewBox="0 0 24 24" fill="none" xmlns="http://www.w3.org/2000/svg">
<path d="M18.52 9.1312C18.96 7.5612 19.09 5.9012 18.79 4.2012C18.76 5.7812 18.39 7.3112 17.79 8.7412C15.13 7.4112 11.55 6.5612 8.13 6.9712C8.52 4.6012 9.98 3.7212 12.37 6.3712L14.34 6.8112C9.23 -1.0988 6.24 1.9512 6.29 7.3312C4.76 7.7412 3.29 8.4512 2 9.5312C3.34 8.7912 4.82 8.3512 6.31 8.1412C6.49 11.0912 7.53 14.5612 9.57 17.3012C7.39 18.0812 5.97 17.2212 7.05 13.8812L6.45 11.9612C2.18 20.2712 6.22 21.3812 10.8 18.7412C11.93 19.8812 13.28 20.8012 14.88 21.3812C13.55 20.5812 12.43 19.5212 11.5 18.3112C13.98 16.6912 16.5 14.0512 17.88 10.9012C19.71 12.4112 19.72 14.1012 16.25 14.8512L14.89 16.3312C24.26 15.8712 23.16 11.7812 18.52 9.1312V9.1312ZM10.53 16.8812C8.74 13.9212 7.94 10.4712 8.03 8.0112C11.51 7.9312 14.94 8.9712 17.03 10.2912C15.33 13.3412 12.71 15.7612 10.53 16.8812Z" fill="#000"/>
</svg>
