<svg width="50" height="50" viewBox="0 0 50 50" fill="none" xmlns="http://www.w3.org/2000/svg">
  <path d="M37.325 18.8839C36.9875 17.6964 36.1438 16.8482 34.9625 16.5089C32.9375 16 24.3312 16 24.3312 16C24.3312 16 15.8938 16 13.7 16.5089C12.5188 16.8482 11.675 17.6964 11.3375 18.8839C11 21.0893 11 25.5 11 25.5C11 25.5 11 29.9107 11.5063 32.1161C11.8438 33.3036 12.6875 34.1518 13.8687 34.4911C15.8937 35 24.5 35 24.5 35C24.5 35 32.9375 35 35.1312 34.4911C36.3125 34.1518 37.1563 33.3036 37.4938 32.1161C38 29.9107 38 25.5 38 25.5C38 25.5 38 21.0893 37.325 18.8839ZM21.8 29.5714V21.4286L28.8875 25.5L21.8 29.5714Z" fill=""/>
</svg>
