<svg width="184" height="50" viewBox="0 0 184 50" fill="none" xmlns="http://www.w3.org/2000/svg">
<!-- "#FF6A39 -->
<g clip-path="url(#clip0_1728_3113)" fill="">
<!-- white -->
  <path
      d="M16.6355 50C21.9158 50 26.2515 48.3667 29.0903 45.6366C31.217 43.5339 32.4814 40.7319 32.4814 37.4605C32.4814 34.5004 31.3768 31.8517 29.3277 29.8304C27.2785 27.8044 24.3622 26.3244 20.6563 25.6251L14.5863 24.4564C12.0624 23.987 10.643 22.7416 10.643 21.0317C10.643 18.771 12.8521 17.2143 16.3981 17.2143C18.6071 17.2143 20.4964 17.9136 21.7608 19.1589C22.5504 20.0163 23.1027 21.1036 23.2577 22.3537L32.0066 20.409C31.7692 17.9184 30.5872 15.7343 28.7754 13.9429C25.9366 11.1409 21.5234 9.34956 16.3206 9.34956C11.5102 9.34956 7.48936 10.9062 4.73293 13.3969C2.36889 15.5762 1.027 18.5363 1.027 21.8076C1.027 24.6911 1.97165 27.1051 3.86579 28.9731C5.75993 30.8411 8.51636 32.2445 12.1448 33.1018L18.1372 34.5052C21.131 35.2045 22.4729 36.2966 22.4729 38.2412C22.4729 40.6552 20.2639 42.0586 16.6403 42.0586C14.0389 42.0586 11.9123 41.2013 10.5704 39.7979C9.62572 38.8639 9.07346 37.6186 8.99595 36.2152L0 38.1598C0.237373 40.8085 1.4969 43.1459 3.39104 45.0139C6.38485 48.1272 11.1953 50 16.6355 50ZM83.1726 50C89.0052 50 93.5008 47.8973 96.5721 44.9373C99.0185 42.5999 100.515 39.8745 101.3 37.0725L92.0765 34.0358C91.6841 35.4392 90.8945 36.9193 89.6301 38.0879C88.1332 39.4913 86.0841 40.502 83.1678 40.502C80.4888 40.502 77.9649 39.4913 76.1532 37.7C74.3414 35.832 73.2369 33.1066 73.2369 29.6772C73.2369 26.2477 74.3414 23.5272 76.1532 21.6544C77.9649 19.863 80.4113 18.929 83.0903 18.929C85.929 18.929 87.9007 19.863 89.3201 21.2664C90.5021 22.4351 91.2142 23.9151 91.6841 25.3952L101.068 22.2818C100.356 19.5565 98.8586 16.8311 96.6544 14.5704C93.5008 11.5337 88.9277 9.35435 82.8577 9.35435C77.2625 9.35435 72.2147 11.457 68.5863 15.0398C64.9579 18.6991 62.7537 23.7619 62.7537 29.682C62.7537 35.6021 65.0402 40.6648 68.7461 44.3242C72.3746 47.9069 77.495 50.0096 83.1726 50.0096M51.321 50.0096C55.4193 50.0096 58.3356 48.7643 59.6 47.6722V39.2614C58.6554 39.9607 56.7612 40.8181 54.3197 40.8181C52.5854 40.8181 51.3259 40.4301 50.3764 39.5728C49.5867 38.792 49.1944 37.4701 49.1944 35.6787V0H38.7887V10.5135H59.6V20.4809H38.7887V38.1598C38.7887 41.7425 39.8932 44.6211 41.8649 46.6472C44.0739 48.8265 47.3051 49.9952 51.3259 49.9952"
      fill=""
  />

  <path
      d="M131.171 20.0018C131.171 25.898 127.383 30.0842 122.127 30.0842C119.54 30.0842 117.51 29.1215 116.125 27.4163V36.9431H111.547V10.5134H116.125V12.6257C117.515 10.9205 119.579 9.99609 122.127 9.99609C127.383 9.99609 131.171 14.1105 131.171 20.0018ZM126.404 20.0018C126.404 16.4048 124.38 14.2206 121.337 14.2206C118.823 14.2206 117.098 15.557 116.12 17.5926V22.4494C117.094 24.4132 118.823 25.8597 121.337 25.8597C124.375 25.8597 126.404 23.6372 126.404 20.0018Z"
      fill="#FF6A39"
    />

  <path
    d="M140.559 29.5301C136.732 29.5301 134.929 27.4896 134.929 24.3428V5.80653H131.703V1.73047H139.619V23.8973C139.619 24.9702 140.181 25.454 141.082 25.454H143.107V29.5301H140.554H140.559Z"
    fill="#FF6A39"
  />

  <path
    d="M163.328 15.7756V29.5269H158.711V27.1896C157.359 29.0432 155.145 30.0826 152.292 30.0826C148.276 30.0826 145.539 27.6733 145.539 24.1146C145.539 20.8911 147.564 18.6638 150.941 18.2567L158.706 17.294V16.3312C158.706 15.1817 158.105 14.5878 157.015 14.5878H147.259V10.5117H157.204C161.143 10.5117 163.323 12.4037 163.323 15.7756M158.706 23.262V20.8527L152.777 21.667C151.125 21.8873 150.224 22.7399 150.224 24.1146C150.224 25.5994 151.386 26.4519 153.411 26.4519C155.736 26.4519 157.916 25.1539 158.701 23.262"
    fill="#FF6A39"
  />

  <path
    d="M183.677 10.5156L175.946 32.3472C174.894 35.3504 173.509 36.9454 170.094 36.9454H166.378V32.8693H169.716C170.99 32.8693 171.557 32.352 171.968 31.2025L172.569 29.5356L165.516 10.5204H170.282L174.671 23.7544H174.783L178.988 10.5204H183.677V10.5156Z"
    fill="#FF6A39"
  />
</g>
<defs>
<clipPath id="clip0_1728_3113">
<rect width="183.673" height="50" fill="white"/>
</clipPath>
</defs>
</svg>
