<svg width="24" height="24" viewBox="0 0 24 24" fill="none" xmlns="http://www.w3.org/2000/svg">
<path d="M22 12.25C21.99 11.28 21.94 10.32 21.89 9.35C21.86 8.68 21.78 8.01 21.62 7.35C21.39 6.35 20.79 5.67 19.78 5.42C19.24 5.28 18.67 5.24 18.11 5.19C17.38 5.13 16.65 5.09 15.91 5.07C14.68 5.03 13.43 5 12.19 5C10.26 5 8.33 5.02 6.4 5.16C5.76 5.2 5.13 5.27 4.5 5.36C3.43 5.51 2.65 6.23 2.39 7.27C2.18 8.12 2.12 9 2.06 9.87C2.03 10.5 2 11.13 2 11.75C2.01 12.72 2.06 13.68 2.11 14.65C2.14 15.32 2.22 15.99 2.38 16.65C2.64 17.73 3.3 18.42 4.4 18.62C5.12 18.75 5.85 18.8 6.58 18.86C7.32 18.91 8.06 18.94 8.8 18.96C9.87 18.99 10.93 19 11.91 19.01C13.87 18.98 15.74 18.98 17.6 18.84C18.24 18.79 18.87 18.73 19.5 18.64C20.56 18.49 21.34 17.76 21.6 16.72C21.81 15.87 21.87 14.99 21.93 14.12C21.97 13.49 22 12.87 22 12.24V12.25ZM10 15V9C11.73 10 13.45 10.99 15.19 12C13.45 13 11.74 14 10 15Z" fill="#000"/>
</svg>
