<svg width="135" height="40" viewBox="0 0 135 40" fill="none" xmlns="http://www.w3.org/2000/svg">
<path fill-rule="evenodd" clip-rule="evenodd" d="M129.978 40H5.02161C2.25399 40 0 37.7456 0 35V5C0 2.24439 2.25399 0 5.02161 0H129.978C132.744 0 135 2.24439 135 5V35C135 37.7456 132.744 40 129.978 40Z" fill="#171724"/>
<path fill-rule="evenodd" clip-rule="evenodd" d="M129.978 0.800499C132.3 0.800499 134.2 2.68828 134.2 5V35C134.2 37.3117 132.312 39.1995 129.978 39.1995H5.02161C2.7003 39.1995 0.800366 37.3117 0.800366 35V5C0.800366 2.68828 2.68783 0.800499 5.02161 0.800499H129.978ZM129.978 0H5.02161C2.25399 0 0 2.25436 0 5V35C0 37.7556 2.25399 40 5.02161 40H129.978C132.744 40 135 37.7556 135 35V5C135 2.25436 132.744 0 129.978 0Z" fill="#A6A6A6"/>
<path d="M68.1409 21.7519C65.7889 21.7519 63.8719 23.5399 63.8719 26.0049C63.8719 28.4539 65.7889 30.2579 68.1409 30.2579C70.4929 30.2579 72.4099 28.4539 72.4099 26.0049C72.4099 23.5399 70.4929 21.7519 68.1409 21.7519ZM68.1409 28.5829C66.8519 28.5829 65.7399 27.5199 65.7399 26.0049C65.7399 24.4739 66.8519 23.4269 68.1409 23.4269C69.4299 23.4269 70.5409 24.4739 70.5409 26.0049C70.5409 27.5189 69.4299 28.5829 68.1409 28.5829ZM58.8269 21.7519C56.4749 21.7519 54.5579 23.5399 54.5579 26.0049C54.5579 28.4539 56.4749 30.2579 58.8269 30.2579C61.1789 30.2579 63.0959 28.4539 63.0959 26.0049C63.0969 23.5399 61.1789 21.7519 58.8269 21.7519ZM58.8269 28.5829C57.5379 28.5829 56.4269 27.5199 56.4269 26.0049C56.4269 24.4739 57.5389 23.4269 58.8269 23.4269C60.1159 23.4269 61.2269 24.4739 61.2269 26.0049C61.2279 27.5189 60.1159 28.5829 58.8269 28.5829ZM47.7489 23.0569V24.8609H52.0669C51.9379 25.8759 51.5999 26.6169 51.0839 27.1329C50.4559 27.7609 49.4729 28.4539 47.7489 28.4539C45.0909 28.4539 43.0129 26.3109 43.0129 23.6529C43.0129 20.9949 45.0909 18.8519 47.7489 18.8519C49.1829 18.8519 50.2299 19.4159 51.0029 20.1409L52.2759 18.8679C51.1969 17.8369 49.7629 17.0469 47.7489 17.0469C44.1079 17.0469 41.0469 20.0109 41.0469 23.6519C41.0469 27.2929 44.1079 30.2569 47.7489 30.2569C49.7139 30.2569 51.1969 29.6129 52.3569 28.4039C53.5489 27.2119 53.9199 25.5359 53.9199 24.1829C53.9199 23.7639 53.8879 23.3769 53.8229 23.0549H47.7489V23.0569ZM93.0569 24.4579C92.7029 23.5069 91.6229 21.7509 89.4159 21.7509C87.2249 21.7509 85.4049 23.4749 85.4049 26.0039C85.4049 28.3879 87.2089 30.2569 89.6259 30.2569C91.5749 30.2569 92.7029 29.0649 93.1699 28.3719L91.7199 27.4049C91.2369 28.1139 90.5759 28.5809 89.6259 28.5809C88.6749 28.5809 87.9989 28.1459 87.5639 27.2919L93.2509 24.9399L93.0569 24.4579ZM87.2569 25.8759C87.2089 24.2329 88.5299 23.3949 89.4799 23.3949C90.2209 23.3949 90.8489 23.7649 91.0589 24.2969L87.2569 25.8759ZM82.6329 29.9999H84.5019V17.4989H82.6329V29.9999ZM79.5719 22.7019H79.5079C79.0889 22.2029 78.2839 21.7509 77.2689 21.7509C75.1419 21.7509 73.1929 23.6199 73.1929 26.0199C73.1929 28.4039 75.1419 30.2569 77.2689 30.2569C78.2839 30.2569 79.0889 29.8059 79.5079 29.2899H79.5719V29.9019C79.5719 31.5289 78.7019 32.3989 77.2999 32.3989C76.1559 32.3989 75.4469 31.5769 75.1569 30.8849L73.5299 31.5619C73.9969 32.6899 75.2379 34.0749 77.2999 34.0749C79.4909 34.0749 81.3439 32.7859 81.3439 29.6449V22.0089H79.5719V22.7019V22.7019ZM77.4299 28.5829C76.1409 28.5829 75.0619 27.5039 75.0619 26.0209C75.0619 24.5229 76.1409 23.4269 77.4299 23.4269C78.7029 23.4269 79.7009 24.5219 79.7009 26.0209C79.7009 27.5029 78.7029 28.5829 77.4299 28.5829ZM101.811 17.4989H97.3399V29.9999H99.2049V25.2639H101.81C103.878 25.2639 105.911 23.7669 105.911 21.3819C105.911 18.9969 103.879 17.4989 101.811 17.4989ZM101.859 23.5239H99.2049V19.2389H101.859C103.254 19.2389 104.046 20.3939 104.046 21.3819C104.046 22.3499 103.254 23.5239 101.859 23.5239ZM113.391 21.7289C112.04 21.7289 110.641 22.3239 110.062 23.6429L111.719 24.3349C112.073 23.6429 112.732 23.4179 113.424 23.4179C114.389 23.4179 115.37 23.9969 115.386 25.0259V25.1549C115.048 24.9619 114.324 24.6719 113.44 24.6719C111.655 24.6719 109.837 25.6529 109.837 27.4869C109.837 29.1599 111.301 30.2369 112.941 30.2369C114.196 30.2369 114.887 29.6739 115.321 29.0149H115.385V29.9799H117.186V25.1869C117.186 22.9669 115.53 21.7289 113.391 21.7289ZM113.165 28.5799C112.554 28.5799 111.701 28.2739 111.701 27.5189C111.701 26.5539 112.763 26.1839 113.679 26.1839C114.499 26.1839 114.885 26.3609 115.384 26.6019C115.24 27.7599 114.243 28.5799 113.165 28.5799ZM123.748 22.0019L121.609 27.4219H121.545L119.326 22.0019H117.316L120.645 29.5769L118.747 33.7909H120.693L125.824 22.0019H123.748V22.0019ZM106.941 29.9999H108.807V17.4989H106.941V29.9999Z" fill="white"/>
<path d="M10.4318 7.53784C10.1408 7.84584 9.96875 8.32384 9.96875 8.94284V31.0588C9.96875 31.6788 10.1408 32.1558 10.4318 32.4638L10.5057 32.5358L22.8948 20.1468V20.0008V19.8548L10.5057 7.46484L10.4318 7.53784Z" fill="url(#paint0_linear_1638_3276)"/>
<path d="M27.0245 24.2796L22.8955 20.1486V20.0026V19.8566L27.0255 15.7266L27.1185 15.7796L32.0115 18.5596C33.4095 19.3536 33.4095 20.6526 32.0115 21.4476L27.1185 24.2276L27.0245 24.2796Z" fill="url(#paint1_linear_1638_3276)"/>
<path d="M27.1186 24.224L22.8956 20L10.4316 32.463C10.8926 32.951 11.6526 33.011 12.5096 32.524L27.1186 24.224Z" fill="url(#paint2_linear_1638_3276)"/>
<path d="M27.1186 15.7768L12.5106 7.4768C11.6536 6.9898 10.8936 7.0508 10.4326 7.5378L22.8956 20.0008L27.1186 15.7768Z" fill="url(#paint3_linear_1638_3276)"/>
<path opacity="0.2" d="M27.0256 24.1328L12.5106 32.3798C11.6986 32.8408 10.9726 32.8108 10.5066 32.3908L10.4316 32.4658L10.5056 32.5378C10.9716 32.9578 11.6976 32.9888 12.5096 32.5268L27.1176 24.2268L27.0256 24.1328Z" fill="#171724"/>
<path opacity="0.12" d="M10.4318 32.3191C10.1408 32.0111 9.96875 31.5331 9.96875 30.9141V31.0601C9.96875 31.6791 10.1408 32.1571 10.4318 32.4651L10.5068 32.3901L10.4318 32.3191Z" fill="#171724"/>
<path opacity="0.12" d="M32.0114 21.3009L27.0254 24.1339L27.1184 24.2269L32.0114 21.4469C32.7104 21.0499 33.0594 20.5269 33.0594 20.0039C33.0004 20.4769 32.6444 20.9409 32.0114 21.3009Z" fill="#171724"/>
<path opacity="0.25" d="M12.5097 7.62329L32.0107 18.7033C32.6447 19.0633 32.9998 19.5273 33.0588 20.0013C33.0588 19.4783 32.7097 18.9543 32.0107 18.5573L12.5097 7.4773C11.1117 6.6833 9.96875 7.34229 9.96875 8.94329V9.09029C9.96875 7.4893 11.1127 6.82929 12.5097 7.62329Z" fill="white"/>
<path d="M43.1553 8.73333C43.5449 8.70537 43.9358 8.76423 44.3 8.90567C44.6641 9.0471 44.9923 9.26758 45.2608 9.55121C45.5294 9.83483 45.7317 10.1745 45.8531 10.5458C45.9745 10.9171 46.012 11.3107 45.9629 11.6982C45.9629 13.6044 44.9326 14.7002 43.1553 14.7002H41V8.73333H43.1553ZM41.9268 13.8563H43.0518C43.3302 13.873 43.6088 13.8273 43.8673 13.7227C44.1258 13.6181 44.3578 13.4571 44.5463 13.2516C44.7348 13.046 44.8751 12.801 44.9569 12.5344C45.0388 12.2678 45.0602 11.9863 45.0195 11.7103C45.0572 11.4355 45.0337 11.1557 44.9506 10.8911C44.8674 10.6264 44.7268 10.3834 44.5387 10.1795C44.3507 9.97554 44.1198 9.81573 43.8628 9.71149C43.6057 9.60726 43.3287 9.56117 43.0518 9.57654H41.9268V13.8563Z" fill="white"/>
<path d="M47.01 12.4458C46.9817 12.1498 47.0156 11.8513 47.1094 11.5692C47.2033 11.2871 47.355 11.0278 47.555 10.8078C47.7549 10.5878 47.9986 10.4121 48.2705 10.2918C48.5423 10.1715 48.8363 10.1094 49.1336 10.1094C49.4308 10.1094 49.7248 10.1715 49.9967 10.2918C50.2685 10.4121 50.5123 10.5878 50.7122 10.8078C50.9121 11.0278 51.0639 11.2871 51.1577 11.5692C51.2516 11.8513 51.2854 12.1498 51.2571 12.4458C51.286 12.742 51.2525 13.041 51.1589 13.3235C51.0653 13.606 50.9137 13.8658 50.7137 14.0862C50.5137 14.3067 50.2698 14.4828 49.9977 14.6033C49.7255 14.7239 49.4312 14.7861 49.1336 14.7861C48.836 14.7861 48.5416 14.7239 48.2695 14.6033C47.9974 14.4828 47.7535 14.3067 47.5535 14.0862C47.3535 13.8658 47.2018 13.606 47.1082 13.3235C47.0146 13.041 46.9812 12.742 47.01 12.4458V12.4458ZM50.343 12.4458C50.343 11.4697 49.9046 10.8989 49.135 10.8989C48.3626 10.8989 47.928 11.4697 47.928 12.4458C47.928 13.4297 48.3626 13.9961 49.135 13.9961C49.9046 13.996 50.3431 13.4257 50.3431 12.4458H50.343Z" fill="white"/>
<path d="M56.9023 14.6982H55.9805L55.0498 11.3818H54.9795L54.0527 14.6982H53.1396L51.8984 10.1953H52.7998L53.6064 13.6313H53.6729L54.5986 10.1953H55.4512L56.377 13.6313H56.4473L57.25 10.1953H58.1387L56.9023 14.6982Z" fill="white"/>
<path d="M59.1875 10.1929H60.043V10.9082H60.1094C60.222 10.6513 60.412 10.436 60.6529 10.2921C60.8938 10.1483 61.1735 10.0833 61.4531 10.106C61.6722 10.0895 61.8922 10.1226 62.0968 10.2027C62.3014 10.2827 62.4854 10.4079 62.6351 10.5687C62.7847 10.7295 62.8963 10.922 62.9615 11.1318C63.0267 11.3416 63.0439 11.5634 63.0117 11.7808V14.6958H62.1231V12.004C62.1231 11.2803 61.8086 10.9205 61.1514 10.9205C61.0026 10.9135 60.8541 10.9388 60.7161 10.9947C60.578 11.0505 60.4536 11.1355 60.3515 11.2439C60.2494 11.3523 60.1719 11.4815 60.1244 11.6226C60.0769 11.7637 60.0604 11.9135 60.0762 12.0616V14.6958H59.1875L59.1875 10.1929Z" fill="white"/>
<path d="M64.4219 8.4375H65.3105V14.6982H64.4219V8.4375Z" fill="white"/>
<path d="M66.5491 12.4458C66.5208 12.1499 66.5547 11.8513 66.6485 11.5692C66.7424 11.2872 66.8942 11.0278 67.0941 10.8078C67.2941 10.5878 67.5378 10.4121 67.8097 10.2918C68.0816 10.1715 68.3756 10.1094 68.6729 10.1094C68.9702 10.1094 69.2642 10.1715 69.536 10.2918C69.8079 10.4121 70.0516 10.5878 70.2516 10.8078C70.4516 11.0278 70.6033 11.2872 70.6972 11.5692C70.7911 11.8513 70.8249 12.1499 70.7966 12.4458C70.8255 12.7421 70.792 13.0411 70.6984 13.3236C70.6047 13.6061 70.453 13.8659 70.253 14.0863C70.053 14.3067 69.8091 14.4829 69.537 14.6034C69.2648 14.7239 68.9705 14.7862 68.6729 14.7862C68.3752 14.7862 68.0809 14.7239 67.8088 14.6034C67.5366 14.4829 67.2927 14.3067 67.0927 14.0863C66.8927 13.8659 66.741 13.6061 66.6474 13.3236C66.5538 13.0411 66.5203 12.7421 66.5491 12.4458V12.4458ZM69.8821 12.4458C69.8821 11.4698 69.4436 10.899 68.6741 10.899C67.9016 10.899 67.4671 11.4698 67.4671 12.4458C67.4671 13.4297 67.9017 13.9961 68.6741 13.9961C69.4436 13.9961 69.8821 13.4258 69.8821 12.4458H69.8821Z" fill="white"/>
<path d="M71.7344 13.4258C71.7344 12.6152 72.3379 12.1479 73.4092 12.0815L74.6289 12.0112V11.6226C74.6289 11.147 74.3145 10.8784 73.707 10.8784C73.2109 10.8784 72.8672 11.0605 72.7686 11.3789H71.9082C71.999 10.6055 72.7266 10.1094 73.748 10.1094C74.877 10.1094 75.5137 10.6714 75.5137 11.6226V14.6992H74.6582V14.0664H74.5879C74.4452 14.2934 74.2448 14.4784 74.0071 14.6027C73.7695 14.7269 73.5032 14.7858 73.2354 14.7734C73.0463 14.7931 72.8553 14.7729 72.6745 14.7142C72.4937 14.6555 72.3273 14.5596 72.1859 14.4326C72.0444 14.3056 71.9312 14.1504 71.8534 13.977C71.7757 13.8036 71.7351 13.6158 71.7344 13.4258V13.4258ZM74.6289 13.041V12.6645L73.5293 12.7349C72.9092 12.7764 72.6279 12.9873 72.6279 13.3843C72.6279 13.7895 72.9795 14.0254 73.4629 14.0254C73.6046 14.0397 73.7476 14.0254 73.8837 13.9833C74.0197 13.9412 74.1458 13.8722 74.2546 13.7804C74.3634 13.6885 74.4526 13.5757 74.5169 13.4487C74.5812 13.3217 74.6193 13.183 74.6289 13.041V13.041Z" fill="white"/>
<path d="M76.6719 12.4448C76.6719 11.022 77.4033 10.1206 78.541 10.1206C78.8224 10.1077 79.1017 10.1751 79.3463 10.315C79.5908 10.4548 79.7904 10.6615 79.9219 10.9106H79.9883V8.4375H80.877V14.6982H80.0254V13.9868H79.9551C79.8135 14.2343 79.6069 14.4383 79.3576 14.5768C79.1084 14.7153 78.826 14.783 78.541 14.7724C77.3955 14.7725 76.6719 13.8711 76.6719 12.4448ZM77.5899 12.4448C77.5899 13.3999 78.0401 13.9746 78.793 13.9746C79.542 13.9746 80.0049 13.3916 80.0049 12.4487C80.0049 11.5103 79.5371 10.919 78.793 10.919C78.0449 10.919 77.5898 11.4976 77.5898 12.4448H77.5899Z" fill="white"/>
<path d="M84.5569 12.4458C84.5286 12.1498 84.5625 11.8513 84.6563 11.5692C84.7501 11.2871 84.9019 11.0278 85.1018 10.8078C85.3018 10.5878 85.5455 10.4121 85.8173 10.2918C86.0892 10.1715 86.3832 10.1094 86.6805 10.1094C86.9777 10.1094 87.2717 10.1715 87.5436 10.2918C87.8154 10.4121 88.0591 10.5878 88.2591 10.8078C88.459 11.0278 88.6108 11.2871 88.7046 11.5692C88.7984 11.8513 88.8323 12.1498 88.804 12.4458C88.8328 12.742 88.7994 13.041 88.7058 13.3235C88.6122 13.606 88.4605 13.8658 88.2605 14.0862C88.0605 14.3067 87.8167 14.4828 87.5445 14.6033C87.2724 14.7239 86.9781 14.7861 86.6805 14.7861C86.3828 14.7861 86.0885 14.7239 85.8164 14.6033C85.5443 14.4828 85.3004 14.3067 85.1004 14.0862C84.9004 13.8658 84.7487 13.606 84.6551 13.3235C84.5615 13.041 84.5281 12.742 84.5569 12.4458V12.4458ZM87.8899 12.4458C87.8899 11.4697 87.4514 10.8989 86.6819 10.8989C85.9095 10.8989 85.4749 11.4697 85.4749 12.4458C85.4749 13.4297 85.9095 13.9961 86.6819 13.9961C87.4515 13.996 87.8899 13.4257 87.8899 12.4458Z" fill="white"/>
<path d="M90 10.1929H90.8555V10.9082H90.9219C91.0345 10.6513 91.2245 10.436 91.4654 10.2921C91.7063 10.1483 91.986 10.0833 92.2656 10.106C92.4847 10.0895 92.7047 10.1226 92.9093 10.2027C93.1139 10.2827 93.2979 10.4079 93.4476 10.5687C93.5972 10.7295 93.7088 10.922 93.774 11.1318C93.8392 11.3416 93.8564 11.5634 93.8242 11.7808V14.6958H92.9356V12.004C92.9356 11.2803 92.6211 10.9205 91.9639 10.9205C91.8151 10.9135 91.6666 10.9388 91.5286 10.9947C91.3905 11.0505 91.2661 11.1355 91.164 11.2439C91.0619 11.3523 90.9844 11.4815 90.9369 11.6226C90.8894 11.7637 90.8729 11.9135 90.8887 12.0616V14.6958H90V10.1929Z" fill="white"/>
<path d="M98.8389 9.07812V10.2197H99.8145V10.9683H98.8389V13.2837C98.8389 13.7554 99.0332 13.9619 99.4756 13.9619C99.5888 13.9616 99.702 13.9547 99.8145 13.9414V14.6816C99.6549 14.7102 99.4932 14.7254 99.3311 14.727C98.3428 14.727 97.9492 14.3794 97.9492 13.5112V10.9682H97.2344V10.2197H97.9492V9.07812H98.8389Z" fill="white"/>
<path d="M101.031 8.4375H101.912V10.919H101.982C102.101 10.6596 102.296 10.443 102.541 10.2987C102.787 10.1543 103.071 10.0893 103.355 10.1123C103.573 10.1004 103.791 10.1368 103.994 10.2189C104.196 10.3009 104.378 10.4266 104.526 10.5869C104.674 10.7473 104.785 10.9383 104.85 11.1465C104.916 11.3546 104.935 11.5747 104.906 11.791V14.6982H104.017V12.0103C104.017 11.291 103.682 10.9268 103.054 10.9268C102.901 10.9142 102.747 10.9352 102.604 10.9883C102.46 11.0413 102.329 11.1252 102.221 11.2339C102.113 11.3426 102.03 11.4737 101.978 11.6178C101.926 11.7619 101.906 11.9157 101.92 12.0683V14.6982H101.031L101.031 8.4375Z" fill="white"/>
<path d="M110.09 13.4835C109.969 13.895 109.707 14.251 109.35 14.4891C108.994 14.7273 108.565 14.8324 108.138 14.7862C107.842 14.794 107.547 14.7372 107.274 14.6197C107.002 14.5022 106.758 14.3267 106.56 14.1056C106.362 13.8845 106.215 13.6229 106.128 13.3391C106.042 13.0553 106.018 12.756 106.058 12.462C106.019 12.1671 106.043 11.8672 106.13 11.5825C106.216 11.2978 106.363 11.0351 106.56 10.812C106.756 10.5889 106.999 10.4107 107.271 10.2895C107.542 10.1683 107.837 10.1069 108.134 10.1095C109.387 10.1095 110.143 10.9655 110.143 12.3795V12.6895H106.964V12.7393C106.95 12.9046 106.97 13.0709 107.025 13.2277C107.079 13.3844 107.165 13.5281 107.278 13.6496C107.391 13.771 107.528 13.8676 107.68 13.933C107.833 13.9984 107.997 14.0312 108.163 14.0293C108.375 14.0549 108.591 14.0166 108.781 13.9194C108.972 13.8222 109.13 13.6704 109.234 13.4834L110.09 13.4835ZM106.964 12.0323H109.238C109.249 11.8812 109.229 11.7294 109.178 11.5867C109.127 11.4439 109.046 11.3135 108.942 11.2036C108.838 11.0937 108.711 11.0069 108.572 10.9488C108.432 10.8906 108.281 10.8623 108.13 10.8658C107.976 10.8639 107.823 10.8927 107.681 10.9507C107.539 11.0086 107.409 11.0945 107.301 11.2032C107.192 11.3119 107.106 11.4413 107.048 11.5837C106.99 11.7261 106.962 11.8786 106.964 12.0323H106.964Z" fill="white"/>
<defs>
<linearGradient id="paint0_linear_1638_3276" x1="21.7964" y1="8.70964" x2="5.01395" y2="25.492" gradientUnits="userSpaceOnUse">
<stop stop-color="#00A0FF"/>
<stop offset="0.0066" stop-color="#00A1FF"/>
<stop offset="0.2601" stop-color="#00BEFF"/>
<stop offset="0.5122" stop-color="#00D2FF"/>
<stop offset="0.7604" stop-color="#00DFFF"/>
<stop offset="1" stop-color="#00E3FF"/>
</linearGradient>
<linearGradient id="paint1_linear_1638_3276" x1="33.8308" y1="20.0021" x2="9.63391" y2="20.0021" gradientUnits="userSpaceOnUse">
<stop stop-color="#FFE000"/>
<stop offset="0.4087" stop-color="#FFBD00"/>
<stop offset="0.7754" stop-color="#FFA500"/>
<stop offset="1" stop-color="#FF9C00"/>
</linearGradient>
<linearGradient id="paint2_linear_1638_3276" x1="24.8235" y1="22.2952" x2="2.06524" y2="45.0535" gradientUnits="userSpaceOnUse">
<stop stop-color="#FF3A44"/>
<stop offset="1" stop-color="#C31162"/>
</linearGradient>
<linearGradient id="paint3_linear_1638_3276" x1="7.29382" y1="0.176104" x2="17.4564" y2="10.3386" gradientUnits="userSpaceOnUse">
<stop stop-color="#32A071"/>
<stop offset="0.0685" stop-color="#2DA771"/>
<stop offset="0.4762" stop-color="#15CF74"/>
<stop offset="0.8009" stop-color="#06E775"/>
<stop offset="1" stop-color="#00F076"/>
</linearGradient>
</defs>
</svg>
