<svg width="50" height="50" viewBox="0 0 50 50" fill="none" xmlns="http://www.w3.org/2000/svg">
<rect opacity="0.00" width="50" height="50" rx="2" fill=""/>
<path fill-rule="evenodd" clip-rule="evenodd" d="M18.0417 15.4403C18.0049 13.7713 16.8114 12.5 14.8732 12.5C12.9351 12.5 11.668 13.7713 11.668 15.4403C11.668 17.0748 12.8976 18.3827 14.7997 18.3827H14.8359C16.8114 18.3827 18.0417 17.0748 18.0417 15.4403ZM17.6695 20.707H12.0039V37.7296H17.6695V20.707ZM31.5776 20.3066C35.3058 20.3066 38.1008 22.7401 38.1008 27.9687L38.1006 37.729H32.4353V28.6219C32.4353 26.3344 31.6154 24.7734 29.5645 24.7734C27.9993 24.7734 27.067 25.8257 26.6575 26.8421C26.5077 27.2063 26.4709 27.7139 26.4709 28.2226V37.7294H20.8047C20.8047 37.7294 20.8794 22.3041 20.8047 20.7068H26.4709V23.1179C27.2229 21.9589 28.5696 20.3066 31.5776 20.3066Z" fill=""/>
</svg>
