<svg width="20" height="20" viewBox="0 0 20 20" fill="none" xmlns="http://www.w3.org/2000/svg">
<path d="M18.7511 4.23226C18.4631 4.36 18.167 4.46781 17.8644 4.55534C18.2226 4.15023 18.4957 3.67357 18.6624 3.15195C18.6998 3.03504 18.6611 2.90706 18.565 2.83059C18.469 2.75406 18.3356 2.7449 18.2299 2.80753C17.5874 3.18862 16.8942 3.4625 16.1673 3.62265C15.4351 2.90718 14.4406 2.5 13.4125 2.5C11.2424 2.5 9.47681 4.26549 9.47681 6.43556C9.47681 6.60648 9.48763 6.77644 9.50904 6.94404C6.81612 6.7076 4.31256 5.384 2.59338 3.27514C2.53211 3.19998 2.43772 3.15947 2.34109 3.16721C2.24439 3.17478 2.15752 3.22931 2.10867 3.31311C1.75998 3.91143 1.57564 4.59573 1.57564 5.29198C1.57564 6.24028 1.91422 7.14003 2.5123 7.84308C2.33044 7.7801 2.15397 7.70139 1.98554 7.60789C1.89512 7.55756 1.78476 7.55833 1.69493 7.60984C1.60504 7.66135 1.54868 7.75609 1.54631 7.85964C1.5459 7.87709 1.5459 7.89454 1.5459 7.91222C1.5459 9.32772 2.30773 10.6021 3.47249 11.2967C3.37242 11.2867 3.27242 11.2722 3.17306 11.2532C3.07063 11.2337 2.96531 11.2696 2.89623 11.3477C2.82704 11.4258 2.80415 11.5346 2.83603 11.6339C3.26715 12.9799 4.37715 13.97 5.71902 14.2719C4.60607 14.9689 3.33333 15.3341 1.99725 15.3341C1.71847 15.3341 1.43809 15.3177 1.16368 15.2852C1.02736 15.269 0.897017 15.3495 0.850592 15.4791C0.804168 15.6088 0.853372 15.7534 0.969345 15.8278C2.68575 16.9283 4.67042 17.51 6.70866 17.51C10.7156 17.51 13.2222 15.6205 14.6194 14.0354C16.3617 12.0588 17.3609 9.44269 17.3609 6.85776C17.3609 6.74977 17.3592 6.64072 17.3559 6.53202C18.0433 6.01413 18.6351 5.38737 19.1167 4.66699C19.1898 4.55758 19.1819 4.41299 19.0972 4.31227C19.0125 4.2115 18.8715 4.17891 18.7511 4.23226Z" fill="#00ACEE"/>
</svg>
