<svg width="20" height="20" viewBox="0 0 20 20" fill="none" xmlns="http://www.w3.org/2000/svg">
  <path
      d="M0.833008 16.6667V14.3333C0.833008 13.8611 0.954536 13.4271 1.19759 13.0313C1.44065 12.6354 1.76356 12.3333 2.16634 12.125C3.02745 11.6945 3.90245 11.3715 4.79134 11.1563C5.68023 10.941 6.58301 10.8333 7.49967 10.8333C8.41634 10.8333 9.31912 10.941 10.208 11.1563C11.0969 11.3715 11.9719 11.6945 12.833 12.125C13.2358 12.3333 13.5587 12.6354 13.8018 13.0313C14.0448 13.4271 14.1663 13.8611 14.1663 14.3333V16.6667H0.833008ZM15.833 16.6667V14.1667C15.833 13.5556 15.6629 12.9688 15.3226 12.4063C14.9823 11.8438 14.4997 11.3611 13.8747 10.9583C14.583 11.0417 15.2497 11.184 15.8747 11.3854C16.4997 11.5868 17.083 11.8333 17.6247 12.125C18.1247 12.4028 18.5066 12.7118 18.7705 13.0521C19.0344 13.3924 19.1663 13.7639 19.1663 14.1667V16.6667H15.833ZM7.49967 10C6.58301 10 5.79829 9.67362 5.14551 9.02084C4.49273 8.36807 4.16634 7.58334 4.16634 6.66668C4.16634 5.75001 4.49273 4.96529 5.14551 4.31251C5.79829 3.65973 6.58301 3.33334 7.49967 3.33334C8.41634 3.33334 9.20106 3.65973 9.85384 4.31251C10.5066 4.96529 10.833 5.75001 10.833 6.66668C10.833 7.58334 10.5066 8.36807 9.85384 9.02084C9.20106 9.67362 8.41634 10 7.49967 10ZM15.833 6.66668C15.833 7.58334 15.5066 8.36807 14.8538 9.02084C14.2011 9.67362 13.4163 10 12.4997 10C12.3469 10 12.1525 9.98265 11.9163 9.94793C11.6802 9.9132 11.4858 9.87501 11.333 9.83334C11.708 9.3889 11.9962 8.89584 12.1976 8.35418C12.399 7.81251 12.4997 7.25001 12.4997 6.66668C12.4997 6.08334 12.399 5.52084 12.1976 4.97918C11.9962 4.43751 11.708 3.94445 11.333 3.50001C11.5275 3.43057 11.7219 3.38543 11.9163 3.36459C12.1108 3.34376 12.3052 3.33334 12.4997 3.33334C13.4163 3.33334 14.2011 3.65973 14.8538 4.31251C15.5066 4.96529 15.833 5.75001 15.833 6.66668ZM2.49967 15H12.4997V14.3333C12.4997 14.1806 12.4615 14.0417 12.3851 13.9167C12.3087 13.7917 12.208 13.6945 12.083 13.625C11.333 13.25 10.5761 12.9688 9.81217 12.7813C9.04829 12.5938 8.27745 12.5 7.49967 12.5C6.7219 12.5 5.95106 12.5938 5.18717 12.7813C4.42329 12.9688 3.66634 13.25 2.91634 13.625C2.79134 13.6945 2.69065 13.7917 2.61426 13.9167C2.53787 14.0417 2.49967 14.1806 2.49967 14.3333V15ZM7.49967 8.33334C7.95801 8.33334 8.35037 8.17015 8.67676 7.84376C9.00315 7.51737 9.16634 7.12501 9.16634 6.66668C9.16634 6.20834 9.00315 5.81598 8.67676 5.48959C8.35037 5.1632 7.95801 5.00001 7.49967 5.00001C7.04134 5.00001 6.64898 5.1632 6.32259 5.48959C5.9962 5.81598 5.83301 6.20834 5.83301 6.66668C5.83301 7.12501 5.9962 7.51737 6.32259 7.84376C6.64898 8.17015 7.04134 8.33334 7.49967 8.33334Z"
      fill=""
      fill-opacity=""
  />
</svg>
