<svg width="24" height="24" viewBox="0 0 24 24" fill="none" xmlns="http://www.w3.org/2000/svg">
<path d="M14.7503 7.45969L12.0003 3.92969L13.9703 3.53969L16.7103 7.06969L14.7503 7.45969ZM21.6203 6.09969L20.8403 2.17969L16.9103 2.95969L19.6503 6.49969L21.6203 6.09969ZM4.00032 19.9997V11.9997H20.0003V13.0897C20.7203 13.2097 21.3903 13.4597 22.0003 13.8097V9.99969H2.00032V19.9997C2.00032 21.1097 2.90032 21.9997 4.00032 21.9997H13.8103C13.4603 21.3897 13.2203 20.7197 13.0903 19.9997H4.00032ZM11.8103 8.04969L9.07032 4.49969L7.10032 4.90969L9.85033 8.43969L11.8103 8.04969ZM4.16032 5.49969L3.18032 5.68969C2.10032 5.89969 1.39032 6.95969 1.61032 8.03969L2.00032 9.99969L6.90032 9.02969L4.16032 5.49969ZM20.0003 17.9997V14.9997H18.0003V17.9997H15.0003V19.9997H18.0003V22.9997H20.0003V19.9997H23.0003V17.9997H20.0003Z"/>
</svg>
