<svg width="104" height="104" viewBox="0 0 104 104" fill="none" xmlns="http://www.w3.org/2000/svg">
<path d="M45.6085 70.3083L74.8585 41.0583L71.0668 37.3749L45.6085 62.8332L32.8252 49.9416L29.1418 53.7332L45.6085 70.3083ZM52.0002 93.1666C46.3668 93.1666 41.0404 92.0832 36.021 89.9166C31.0016 87.7499 26.6321 84.8069 22.9127 81.0874C19.1932 77.368 16.2502 72.9985 14.0835 67.9791C11.9168 62.9596 10.8335 57.6332 10.8335 51.9999C10.8335 46.2944 11.9168 40.9319 14.0835 35.9124C16.2502 30.893 19.1932 26.5416 22.9127 22.8583C26.6321 19.1749 31.0016 16.2499 36.021 14.0833C41.0404 11.9166 46.3668 10.8333 52.0002 10.8333C57.7057 10.8333 63.0682 11.9166 68.0877 14.0833C73.1071 16.2499 77.4585 19.1749 81.1418 22.8583C84.8252 26.5416 87.7502 30.893 89.9168 35.9124C92.0835 40.9319 93.1668 46.2944 93.1668 51.9999C93.1668 57.6332 92.0835 62.9596 89.9168 67.9791C87.7502 72.9985 84.8252 77.368 81.1418 81.0874C77.4585 84.8069 73.1071 87.7499 68.0877 89.9166C63.0682 92.0832 57.7057 93.1666 52.0002 93.1666ZM52.0002 88.2916C62.1113 88.2916 70.6877 84.7527 77.7293 77.6749C84.771 70.5971 88.2918 62.0388 88.2918 51.9999C88.2918 41.8888 84.771 33.3124 77.7293 26.2708C70.6877 19.2291 62.1113 15.7083 52.0002 15.7083C41.9613 15.7083 33.4029 19.2291 26.3252 26.2708C19.2474 33.3124 15.7085 41.8888 15.7085 51.9999C15.7085 62.0388 19.2474 70.5971 26.3252 77.6749C33.4029 84.7527 41.9613 88.2916 52.0002 88.2916Z" fill="#E95F2A"/>
</svg>
