<svg width="25" height="24" viewBox="0 0 25 24" fill="none" xmlns="http://www.w3.org/2000/svg">
<path d="M9.49998 10C9.51034 9.20758 9.82974 8.45052 10.3901 7.89014C10.9505 7.32976 11.7076 7.01037 12.5 7.00001C13.2924 7.01037 14.0495 7.32976 14.6098 7.89014C15.1702 8.45052 15.4896 9.20758 15.5 10C15.4896 10.7924 15.1702 11.5495 14.6098 12.1099C14.0495 12.6703 13.2924 12.9896 12.5 13C11.7076 12.9896 10.9505 12.6703 10.3901 12.1099C9.82974 11.5495 9.51034 10.7924 9.49998 10ZM12.5 19L16.5 20V16.92C15.2937 17.6465 13.908 18.0206 12.5 18C11.092 18.0206 9.70631 17.6465 8.49998 16.92V20M12.5 4.00001C11.712 3.98563 10.9293 4.13257 10.2002 4.4318C9.471 4.73102 8.81075 5.17622 8.25998 5.74001C7.6901 6.29137 7.23976 6.95411 6.93697 7.68698C6.63419 8.41985 6.48544 9.20718 6.49998 10C6.48956 10.7878 6.64031 11.5694 6.94298 12.2968C7.24564 13.0243 7.69381 13.6821 8.25998 14.23C8.80818 14.7992 9.46728 15.25 10.1966 15.5544C10.9258 15.8588 11.7098 16.0105 12.5 16C13.2902 16.0105 14.0741 15.8588 14.8034 15.5544C15.5327 15.25 16.1918 14.7992 16.74 14.23C17.3062 13.6821 17.7543 13.0243 18.057 12.2968C18.3597 11.5694 18.5104 10.7878 18.5 10C18.5145 9.20718 18.3658 8.41985 18.063 7.68698C17.7602 6.95411 17.3099 6.29137 16.74 5.74001C16.1892 5.17622 15.529 4.73102 14.7998 4.4318C14.0707 4.13257 13.288 3.98563 12.5 4.00001ZM20.5 10C20.4787 10.9599 20.2856 11.9082 19.93 12.8C19.6096 13.7074 19.1248 14.5481 18.5 15.28V23L12.5 21L6.49998 23V15.28C5.20567 13.8265 4.49349 11.9463 4.49998 10C4.48236 8.95059 4.68002 7.9087 5.08077 6.93865C5.48151 5.96861 6.07684 5.091 6.82998 4.36001C7.56369 3.6001 8.44535 2.99864 9.42055 2.59274C10.3957 2.18683 11.4438 1.98511 12.5 2.00001C13.5562 1.98511 14.6042 2.18683 15.5794 2.59274C16.5546 2.99864 17.4363 3.6001 18.17 4.36001C18.9231 5.091 19.5185 5.96861 19.9192 6.93865C20.3199 7.9087 20.5176 8.95059 20.5 10Z" fill="white"/>
</svg>
