<svg width="24" height="24" viewBox="0 0 24 24" fill="none" xmlns="http://www.w3.org/2000/svg">
<mask id="mask0_1330_3121" style="mask-type:alpha" maskUnits="userSpaceOnUse" x="0" y="-1" width="24" height="25">
<rect y="-0.00012207" width="24" height="24" fill="#D9D9D9"/>
</mask>
<g mask="url(#mask0_1330_3121)">
<path d="M8 13.9999H16V13.4499C16 12.7165 15.6333 12.1249 14.9 11.6749C14.1667 11.2249 13.2 10.9999 12 10.9999C10.8 10.9999 9.83333 11.2249 9.1 11.6749C8.36667 12.1249 8 12.7165 8 13.4499V13.9999ZM12 9.99988C12.55 9.99988 13.0208 9.80404 13.4125 9.41238C13.8042 9.02071 14 8.54988 14 7.99988C14 7.44988 13.8042 6.97904 13.4125 6.58738C13.0208 6.19571 12.55 5.99988 12 5.99988C11.45 5.99988 10.9792 6.19571 10.5875 6.58738C10.1958 6.97904 10 7.44988 10 7.99988C10 8.54988 10.1958 9.02071 10.5875 9.41238C10.9792 9.80404 11.45 9.99988 12 9.99988ZM2 21.9999V3.99988C2 3.44988 2.19583 2.97904 2.5875 2.58738C2.97917 2.19571 3.45 1.99988 4 1.99988H20C20.55 1.99988 21.0208 2.19571 21.4125 2.58738C21.8042 2.97904 22 3.44988 22 3.99988V15.9999C22 16.5499 21.8042 17.0207 21.4125 17.4124C21.0208 17.804 20.55 17.9999 20 17.9999H6L2 21.9999ZM4 17.1749L5.175 15.9999H20V3.99988H4V17.1749Z" fill=""/>
</g>
</svg>
