<svg width="16" height="16" viewBox="0 0 16 16" fill="none" xmlns="http://www.w3.org/2000/svg">
<path d="M8 15.5C5.91667 15.5 4.14583 14.7708 2.6875 13.3125C1.22917 11.8542 0.5 10.0833 0.5 8C0.5 5.91667 1.22917 4.14583 2.6875 2.6875C4.14583 1.22917 5.91667 0.5 8 0.5C8.19444 0.5 8.38542 0.506944 8.57292 0.520833C8.76042 0.534722 8.94444 0.555556 9.125 0.583333C8.55556 0.986111 8.10069 1.51042 7.76042 2.15625C7.42014 2.80208 7.25 3.5 7.25 4.25C7.25 5.5 7.6875 6.5625 8.5625 7.4375C9.4375 8.3125 10.5 8.75 11.75 8.75C12.5139 8.75 13.2153 8.57986 13.8542 8.23958C14.4931 7.89931 15.0139 7.44444 15.4167 6.875C15.4444 7.05556 15.4653 7.23958 15.4792 7.42708C15.4931 7.61458 15.5 7.80556 15.5 8C15.5 10.0833 14.7708 11.8542 13.3125 13.3125C11.8542 14.7708 10.0833 15.5 8 15.5ZM8 13.8333C9.22222 13.8333 10.3194 13.4965 11.2917 12.8229C12.2639 12.1493 12.9722 11.2708 13.4167 10.1875C13.1389 10.2569 12.8611 10.3125 12.5833 10.3542C12.3056 10.3958 12.0278 10.4167 11.75 10.4167C10.0417 10.4167 8.58681 9.81597 7.38542 8.61458C6.18403 7.41319 5.58333 5.95833 5.58333 4.25C5.58333 3.97222 5.60417 3.69444 5.64583 3.41667C5.6875 3.13889 5.74306 2.86111 5.8125 2.58333C4.72917 3.02778 3.85069 3.73611 3.17708 4.70833C2.50347 5.68056 2.16667 6.77778 2.16667 8C2.16667 9.61111 2.73611 10.9861 3.875 12.125C5.01389 13.2639 6.38889 13.8333 8 13.8333Z" fill="white"/>
</svg>
