<svg width="14" height="4" viewBox="0 0 14 4" fill="none" xmlns="http://www.w3.org/2000/svg">
    <path
      d="M2.00004 3.66659C1.54171 3.66659 1.14935 3.50339 0.822957 3.177C0.496568 2.85061 0.333374 2.45825 0.333374 1.99992C0.333374 1.54159 0.496568 1.14922 0.822957 0.822835C1.14935 0.496446 1.54171 0.333252 2.00004 0.333252C2.45837 0.333252 2.85074 0.496446 3.17712 0.822835C3.50351 1.14922 3.66671 1.54159 3.66671 1.99992C3.66671 2.45825 3.50351 2.85061 3.17712 3.177C2.85074 3.50339 2.45837 3.66659 2.00004 3.66659ZM7.00004 3.66659C6.54171 3.66659 6.14935 3.50339 5.82296 3.177C5.49657 2.85061 5.33337 2.45825 5.33337 1.99992C5.33337 1.54159 5.49657 1.14922 5.82296 0.822835C6.14935 0.496446 6.54171 0.333252 7.00004 0.333252C7.45837 0.333252 7.85074 0.496446 8.17712 0.822835C8.50351 1.14922 8.66671 1.54159 8.66671 1.99992C8.66671 2.45825 8.50351 2.85061 8.17712 3.177C7.85074 3.50339 7.45837 3.66659 7.00004 3.66659ZM12 3.66659C11.5417 3.66659 11.1493 3.50339 10.823 3.177C10.4966 2.85061 10.3334 2.45825 10.3334 1.99992C10.3334 1.54159 10.4966 1.14922 10.823 0.822835C11.1493 0.496446 11.5417 0.333252 12 0.333252C12.4584 0.333252 12.8507 0.496446 13.1771 0.822835C13.5035 1.14922 13.6667 1.54159 13.6667 1.99992C13.6667 2.45825 13.5035 2.85061 13.1771 3.177C12.8507 3.50339 12.4584 3.66659 12 3.66659Z"
    />
</svg>
