<svg width="25" height="24" viewBox="0 0 25 24" fill="none" xmlns="http://www.w3.org/2000/svg">
<path d="M16.08 17L12.5 14.84L8.92 17L9.87 12.93L6.71 10.2L10.88 9.84L12.5 6L14.12 9.83L18.29 10.19L15.13 12.92L16.08 17ZM19.5 3C20.0304 3 20.5391 3.21071 20.9142 3.58579C21.2893 3.96086 21.5 4.46957 21.5 5V19C21.5 20.11 20.6 21 19.5 21H5.5C4.96957 21 4.46086 20.7893 4.08579 20.4142C3.71071 20.0391 3.5 19.5304 3.5 19V5C3.5 4.46957 3.71071 3.96086 4.08579 3.58579C4.46086 3.21071 4.96957 3 5.5 3H19.5ZM5.5 5V19H19.5V5H5.5Z"/>
</svg>
