<svg width="20" height="20" viewBox="0 0 20 20" fill="none" xmlns="http://www.w3.org/2000/svg">
<path d="M5.29573 10.5978H7.30535V18.8711C7.30535 19.0345 7.43769 19.1668 7.60104 19.1668H11.0084C11.1718 19.1668 11.3041 19.0345 11.3041 18.8711V10.6368H13.6144C13.7646 10.6368 13.891 10.5241 13.9081 10.3749L14.259 7.32908C14.2686 7.24529 14.2421 7.16136 14.186 7.09848C14.1299 7.03557 14.0496 6.99955 13.9653 6.99955H11.3043V5.09027C11.3043 4.51474 11.6141 4.22287 12.2254 4.22287C12.3126 4.22287 13.9653 4.22287 13.9653 4.22287C14.1287 4.22287 14.261 4.09046 14.261 3.92717V1.13138C14.261 0.968024 14.1287 0.83568 13.9653 0.83568H11.5675C11.5506 0.834857 11.513 0.833496 11.4577 0.833496C11.0416 0.833496 9.59547 0.915172 8.45311 1.96608C7.1874 3.13068 7.36335 4.52505 7.40539 4.76682V6.99948H5.2957C5.13234 6.99948 5 7.13182 5 7.29517V10.3021C5.00004 10.4654 5.13238 10.5978 5.29573 10.5978Z" fill="#4689F7"/>
</svg>
