<svg width="21" height="20" viewBox="0 0 21 20" fill="none" xmlns="http://www.w3.org/2000/svg">
  <path
    d="M7.73672 18C7.29631 18 6.9193 17.8433 6.60568 17.53C6.29205 17.2167 6.13524 16.84 6.13524 16.4C6.13524 15.96 6.29205 15.5833 6.60568 15.27C6.9193 14.9567 7.29631 14.8 7.73672 14.8C8.17713 14.8 8.55414 14.9567 8.86777 15.27C9.18139 15.5833 9.3382 15.96 9.3382 16.4C9.3382 16.84 9.18139 17.2167 8.86777 17.53C8.55414 17.8433 8.17713 18 7.73672 18ZM15.7441 18C15.3037 18 14.9267 17.8433 14.6131 17.53C14.2995 17.2167 14.1426 16.84 14.1426 16.4C14.1426 15.96 14.2995 15.5833 14.6131 15.27C14.9267 14.9567 15.3037 14.8 15.7441 14.8C16.1845 14.8 16.5615 14.9567 16.8752 15.27C17.1888 15.5833 17.3456 15.96 17.3456 16.4C17.3456 16.84 17.1888 17.2167 16.8752 17.53C16.5615 17.8433 16.1845 18 15.7441 18ZM7.05609 5.2L8.97787 9.2H14.583L16.7851 5.2H7.05609ZM6.29539 3.6H18.1063C18.4133 3.6 18.6468 3.73667 18.8069 4.01C18.9671 4.28333 18.9738 4.56 18.827 4.84L15.9843 9.96C15.8375 10.2267 15.6407 10.4333 15.3938 10.58C15.1469 10.7267 14.8767 10.8 14.583 10.8H8.61753L7.73672 12.4H17.3456V14H7.73672C7.13617 14 6.68241 13.7367 6.37546 13.21C6.06851 12.6833 6.05517 12.16 6.33543 11.64L7.41642 9.68L4.53376 3.6H2.93228V2H5.53469L6.29539 3.6Z"
  />
</svg>
