<svg width="20" height="20" viewBox="0 0 20 20" fill="none" xmlns="http://www.w3.org/2000/svg">
<path d="M10.1699 8.48486V11.7121H14.7463C14.5454 12.75 13.9423 13.6288 13.0379 14.2197L15.7976 16.3182C17.4056 14.8637 18.3332 12.7274 18.3332 10.1895C18.3332 9.59859 18.2791 9.03036 18.1786 8.48495L10.1699 8.48486Z" fill="#4285F4"/>
<path d="M5.40439 11.5859L4.78195 12.0529L2.57874 13.7347C3.97795 16.4543 6.84574 18.3331 10.1698 18.3331C12.4657 18.3331 14.3906 17.5907 15.7975 16.318L13.0378 14.2195C12.2802 14.7195 11.3139 15.0226 10.1698 15.0226C7.95891 15.0226 6.08046 13.5605 5.40786 11.5907L5.40439 11.5859Z" fill="#34A853"/>
<path d="M2.57875 6.26514C1.999 7.3863 1.66663 8.65147 1.66663 9.99993C1.66663 11.3484 1.999 12.6136 2.57875 13.7347C2.57875 13.7422 5.40815 11.5832 5.40815 11.5832C5.23808 11.0832 5.13756 10.5529 5.13756 9.99984C5.13756 9.44674 5.23808 8.91647 5.40815 8.41647L2.57875 6.26514Z" fill="#FBBC05"/>
<path d="M10.17 4.98468C11.4223 4.98468 12.5355 5.40891 13.4245 6.2271L15.8596 3.84077C14.3831 2.49231 12.466 1.6665 10.17 1.6665C6.84591 1.6665 3.97795 3.53771 2.57874 6.26499L5.40805 8.4165C6.08056 6.44679 7.95908 4.98468 10.17 4.98468Z" fill="#EA4335"/>
</svg>
