<svg width="84" height="84" viewBox="0 0 84 84" fill="none" xmlns="http://www.w3.org/2000/svg">
<path d="M35.6085 60.3083L64.8585 31.0583L61.0668 27.3749L35.6085 52.8332L22.8252 39.9416L19.1418 43.7332L35.6085 60.3083ZM42.0002 83.1666C36.3668 83.1666 31.0404 82.0832 26.021 79.9166C21.0016 77.7499 16.6321 74.8069 12.9127 71.0874C9.19322 67.368 6.25016 62.9985 4.0835 57.9791C1.91683 52.9596 0.833496 47.6332 0.833496 41.9999C0.833496 36.2944 1.91683 30.9319 4.0835 25.9124C6.25016 20.893 9.19322 16.5416 12.9127 12.8583C16.6321 9.17492 21.0016 6.24992 26.021 4.08325C31.0404 1.91659 36.3668 0.833252 42.0002 0.833252C47.7057 0.833252 53.0682 1.91659 58.0877 4.08325C63.1071 6.24992 67.4585 9.17492 71.1418 12.8583C74.8252 16.5416 77.7502 20.893 79.9168 25.9124C82.0835 30.9319 83.1668 36.2944 83.1668 41.9999C83.1668 47.6332 82.0835 52.9596 79.9168 57.9791C77.7502 62.9985 74.8252 67.368 71.1418 71.0874C67.4585 74.8069 63.1071 77.7499 58.0877 79.9166C53.0682 82.0832 47.7057 83.1666 42.0002 83.1666ZM42.0002 78.2916C52.1113 78.2916 60.6877 74.7527 67.7293 67.6749C74.771 60.5971 78.2918 52.0388 78.2918 41.9999C78.2918 31.8888 74.771 23.3124 67.7293 16.2708C60.6877 9.22908 52.1113 5.70825 42.0002 5.70825C31.9613 5.70825 23.4029 9.22908 16.3252 16.2708C9.24738 23.3124 5.7085 31.8888 5.7085 41.9999C5.7085 52.0388 9.24738 60.5971 16.3252 67.6749C23.4029 74.7527 31.9613 78.2916 42.0002 78.2916Z" fill="#E95F2A"/>
</svg>
