<svg width="21" height="20" viewBox="0 0 21 20" fill="none" xmlns="http://www.w3.org/2000/svg">
  <path
    d="M13.8489 11.6667H13.1906L12.9573 11.4417C13.7739 10.4917 14.2656 9.25833 14.2656 7.91667C14.2656 4.925 11.8406 2.5 8.84895 2.5C5.85728 2.5 3.43228 4.925 3.43228 7.91667C3.43228 10.9083 5.85728 13.3333 8.84895 13.3333C10.1906 13.3333 11.4239 12.8417 12.3739 12.025L12.5989 12.2583V12.9167L16.7656 17.075L18.0073 15.8333L13.8489 11.6667ZM8.84895 11.6667C6.77395 11.6667 5.09895 9.99167 5.09895 7.91667C5.09895 5.84167 6.77395 4.16667 8.84895 4.16667C10.9239 4.16667 12.5989 5.84167 12.5989 7.91667C12.5989 9.99167 10.9239 11.6667 8.84895 11.6667Z"
  />
</svg>
