<svg width="20" height="20" viewBox="0 0 20 20" fill="none" xmlns="http://www.w3.org/2000/svg">
<path d="M16.9644 7.08395C16.858 7.16646 14.9786 8.2244 14.9786 10.5768C14.9786 13.2977 17.37 14.2603 17.4416 14.2842C17.4306 14.3428 17.0617 15.6025 16.1807 16.8859C15.3952 18.0154 14.5748 19.143 13.3267 19.143C12.0787 19.143 11.7575 18.4188 10.3168 18.4188C8.91272 18.4188 8.4135 19.1668 7.27192 19.1668C6.13033 19.1668 5.33378 18.1217 4.41794 16.8383C3.35711 15.3311 2.5 12.9897 2.5 10.7675C2.5 7.20313 4.81988 5.31278 7.10306 5.31278C8.31623 5.31278 9.32751 6.10852 10.0892 6.10852C10.8141 6.10852 11.9447 5.26511 13.3249 5.26511C13.848 5.26511 15.7274 5.31278 16.9644 7.08395ZM12.6697 3.75612C13.2405 3.07955 13.6443 2.14079 13.6443 1.20203C13.6443 1.07185 13.6332 0.93984 13.6094 0.833496C12.6807 0.868333 11.5758 1.45139 10.9096 2.2233C10.3865 2.81736 9.8983 3.75612 9.8983 4.70772C9.8983 4.85073 9.92216 4.99374 9.93318 5.03958C9.99191 5.05058 10.0873 5.06342 10.1828 5.06342C11.016 5.06342 12.064 4.50603 12.6697 3.75612Z" fill="#171619"/>
</svg>
