<svg width="24" height="24" viewBox="0 0 24 24" fill="none" xmlns="http://www.w3.org/2000/svg">
<path d="M11.89 14.7151C13.1921 14.7151 14.2476 13.6596 14.2476 12.3576C14.2476 11.0555 13.1921 10 11.89 10C10.588 10 9.53247 11.0555 9.53247 12.3576C9.53247 13.6596 10.588 14.7151 11.89 14.7151Z" fill="#000"/>
<path d="M19.4225 14.7151C20.7246 14.7151 21.7801 13.6596 21.7801 12.3576C21.7801 11.0555 20.7246 10 19.4225 10C18.1205 10 17.0649 11.0555 17.0649 12.3576C17.0649 13.6596 18.1205 14.7151 19.4225 14.7151Z" fill="#000"/>
<path d="M4.35757 14.7151C5.65962 14.7151 6.71514 13.6596 6.71514 12.3576C6.71514 11.0555 5.65962 10 4.35757 10C3.05552 10 2 11.0555 2 12.3576C2 13.6596 3.05552 14.7151 4.35757 14.7151Z" fill="#000"/>
</svg>
