<svg width="61" height="31" viewBox="0 0 61 31" fill="none" xmlns="http://www.w3.org/2000/svg">
  <g id="Frame 427320561">
    <path
      id="Vector"
      d="M9.96281 30C13.1251 30 15.7217 29.02 17.4219 27.3819C18.6955 26.1203 19.4527 24.4391 19.4527 22.4763C19.4527 20.7003 18.7912 19.111 17.564 17.8983C16.3368 16.6826 14.5903 15.7946 12.3708 15.375L8.73559 14.6738C7.22405 14.3922 6.37399 13.645 6.37399 12.619C6.37399 11.2626 7.69695 10.3286 9.82065 10.3286C11.1436 10.3286 12.2751 10.7482 13.0323 11.4954C13.5052 12.0098 13.8359 12.6621 13.9288 13.4122L19.1684 12.2454C19.0262 10.751 18.3183 9.44056 17.2333 8.36574C15.5332 6.68455 12.8901 5.60973 9.77423 5.60973C6.89331 5.60973 4.4853 6.54373 2.8345 8.03813C1.4187 9.34572 0.61506 11.1218 0.61506 13.0846C0.61506 14.8146 1.1808 16.2631 2.31518 17.3838C3.44956 18.5046 5.10036 19.3467 7.27337 19.8611L10.8622 20.7031C12.6551 21.1227 13.4588 21.7779 13.4588 22.9447C13.4588 24.3931 12.1358 25.2352 9.96571 25.2352C8.40775 25.2352 7.13412 24.7208 6.33048 23.8787C5.76474 23.3183 5.434 22.5711 5.38758 21.7291L0 22.8959C0.14216 24.4851 0.896479 25.8875 2.03086 27.0083C3.82382 28.8763 6.70473 30 9.96281 30ZM49.8112 30C53.3042 30 55.9966 28.7384 57.8359 26.9624C59.3011 25.5599 60.1975 23.9247 60.6675 22.2435L55.1436 20.4215C54.9086 21.2635 54.4357 22.1515 53.6785 22.8528C52.782 23.6948 51.5548 24.3012 49.8083 24.3012C48.2039 24.3012 46.6923 23.6948 45.6073 22.62C44.5222 21.4992 43.8607 19.864 43.8607 17.8063C43.8607 15.7486 44.5222 14.1163 45.6073 12.9926C46.6923 11.9178 48.1575 11.3574 49.7618 11.3574C51.462 11.3574 52.6428 11.9178 53.4928 12.7598C54.2007 13.4611 54.6272 14.3491 54.9086 15.2371L60.5283 13.3691C60.1018 11.7339 59.2053 10.0987 57.8853 8.74222C55.9966 6.9202 53.2578 5.61261 49.6226 5.61261C46.2717 5.61261 43.2486 6.87422 41.0756 9.02385C38.9025 11.2195 37.5825 14.2571 37.5825 17.8092C37.5825 21.3612 38.9519 24.3989 41.1713 26.5945C43.3443 28.7441 46.4109 30.0057 49.8112 30.0057M30.7356 30.0057C33.19 30.0057 34.9366 29.2585 35.6938 28.6033V23.5569C35.128 23.9764 33.9937 24.4909 32.5314 24.4909C31.4928 24.4909 30.7385 24.2581 30.1699 23.7437C29.697 23.2752 29.462 22.482 29.462 21.4072V0H23.2301V6.30808H35.6938V12.2885H23.2301V22.8959C23.2301 25.0455 23.8916 26.7727 25.0724 27.9883C26.3954 29.2959 28.3305 29.9971 30.7385 29.9971"
      fill="white"
    />
  </g>
</svg>
