<svg width="18" height="18" viewBox="0 0 18 18" fill="none" xmlns="http://www.w3.org/2000/svg">
  <path
    d="M8.99996 17.3334C7.86107 17.3334 6.78468 17.1147 5.77079 16.6772C4.7569 16.2397 3.87149 15.6424 3.11454 14.8855C2.3576 14.1286 1.76038 13.2431 1.32288 12.2292C0.885376 11.2154 0.666626 10.139 0.666626 9.00008C0.666626 7.8473 0.885376 6.76744 1.32288 5.7605C1.76038 4.75355 2.3576 3.87161 3.11454 3.11466C3.87149 2.35772 4.7569 1.7605 5.77079 1.323C6.78468 0.885498 7.86107 0.666748 8.99996 0.666748C10.1527 0.666748 11.2326 0.885498 12.2395 1.323C13.2465 1.7605 14.1284 2.35772 14.8854 3.11466C15.6423 3.87161 16.2395 4.75355 16.677 5.7605C17.1145 6.76744 17.3333 7.8473 17.3333 9.00008C17.3333 10.139 17.1145 11.2154 16.677 12.2292C16.2395 13.2431 15.6423 14.1286 14.8854 14.8855C14.1284 15.6424 13.2465 16.2397 12.2395 16.6772C11.2326 17.1147 10.1527 17.3334 8.99996 17.3334ZM8.99996 15.6251C9.36107 15.1251 9.67357 14.6042 9.93746 14.0626C10.2013 13.5209 10.4166 12.9445 10.5833 12.3334H7.41663C7.58329 12.9445 7.79857 13.5209 8.06246 14.0626C8.32635 14.6042 8.63885 15.1251 8.99996 15.6251ZM6.83329 15.2917C6.58329 14.8334 6.36454 14.3577 6.17704 13.8647C5.98954 13.3716 5.83329 12.8612 5.70829 12.3334H3.24996C3.65274 13.0279 4.15621 13.632 4.76038 14.1459C5.36454 14.6598 6.05552 15.0417 6.83329 15.2917ZM11.1666 15.2917C11.9444 15.0417 12.6354 14.6598 13.2395 14.1459C13.8437 13.632 14.3472 13.0279 14.75 12.3334H12.2916C12.1666 12.8612 12.0104 13.3716 11.8229 13.8647C11.6354 14.3577 11.4166 14.8334 11.1666 15.2917ZM2.54163 10.6667H5.37496C5.33329 10.389 5.30204 10.1147 5.28121 9.84383C5.26038 9.573 5.24996 9.29175 5.24996 9.00008C5.24996 8.70842 5.26038 8.42717 5.28121 8.15633C5.30204 7.8855 5.33329 7.61119 5.37496 7.33342H2.54163C2.47218 7.61119 2.4201 7.8855 2.38538 8.15633C2.35065 8.42717 2.33329 8.70842 2.33329 9.00008C2.33329 9.29175 2.35065 9.573 2.38538 9.84383C2.4201 10.1147 2.47218 10.389 2.54163 10.6667ZM7.04163 10.6667H10.9583C11 10.389 11.0312 10.1147 11.052 9.84383C11.0729 9.573 11.0833 9.29175 11.0833 9.00008C11.0833 8.70842 11.0729 8.42717 11.052 8.15633C11.0312 7.8855 11 7.61119 10.9583 7.33342H7.04163C6.99996 7.61119 6.96871 7.8855 6.94788 8.15633C6.92704 8.42717 6.91663 8.70842 6.91663 9.00008C6.91663 9.29175 6.92704 9.573 6.94788 9.84383C6.96871 10.1147 6.99996 10.389 7.04163 10.6667ZM12.625 10.6667H15.4583C15.5277 10.389 15.5798 10.1147 15.6145 9.84383C15.6493 9.573 15.6666 9.29175 15.6666 9.00008C15.6666 8.70842 15.6493 8.42717 15.6145 8.15633C15.5798 7.8855 15.5277 7.61119 15.4583 7.33342H12.625C12.6666 7.61119 12.6979 7.8855 12.7187 8.15633C12.7395 8.42717 12.75 8.70842 12.75 9.00008C12.75 9.29175 12.7395 9.573 12.7187 9.84383C12.6979 10.1147 12.6666 10.389 12.625 10.6667ZM12.2916 5.66675H14.75C14.3472 4.9723 13.8437 4.36814 13.2395 3.85425C12.6354 3.34036 11.9444 2.95841 11.1666 2.70841C11.4166 3.16675 11.6354 3.64244 11.8229 4.1355C12.0104 4.62855 12.1666 5.13897 12.2916 5.66675ZM7.41663 5.66675H10.5833C10.4166 5.05564 10.2013 4.47925 9.93746 3.93758C9.67357 3.39591 9.36107 2.87508 8.99996 2.37508C8.63885 2.87508 8.32635 3.39591 8.06246 3.93758C7.79857 4.47925 7.58329 5.05564 7.41663 5.66675ZM3.24996 5.66675H5.70829C5.83329 5.13897 5.98954 4.62855 6.17704 4.1355C6.36454 3.64244 6.58329 3.16675 6.83329 2.70841C6.05552 2.95841 5.36454 3.34036 4.76038 3.85425C4.15621 4.36814 3.65274 4.9723 3.24996 5.66675Z"
  />
</svg>
