<svg width="24" height="24" viewBox="0 0 24 24" fill="none" xmlns="http://www.w3.org/2000/svg">
<g clip-path="url(#clip0_1330_3116)">
<path d="M12.0016 5.00052C11.0733 5.00052 10.1831 5.36927 9.52671 6.02565C8.87034 6.68202 8.50159 7.57226 8.50159 8.50052C8.50159 9.42878 8.87034 10.319 9.52671 10.9754C10.1831 11.6318 11.0733 12.0005 12.0016 12.0005C12.9298 12.0005 13.8201 11.6318 14.4765 10.9754C15.1328 10.319 15.5016 9.42878 15.5016 8.50052C15.5016 7.57226 15.1328 6.68202 14.4765 6.02565C13.8201 5.36927 12.9298 5.00052 12.0016 5.00052ZM12.0016 7.00052C12.3994 7.00052 12.7809 7.15855 13.0622 7.43986C13.3436 7.72116 13.5016 8.10269 13.5016 8.50052C13.5016 8.89834 13.3436 9.27987 13.0622 9.56118C12.7809 9.84248 12.3994 10.0005 12.0016 10.0005C11.6038 10.0005 11.2222 9.84248 10.9409 9.56118C10.6596 9.27987 10.5016 8.89834 10.5016 8.50052C10.5016 8.10269 10.6596 7.72116 10.9409 7.43986C11.2222 7.15855 11.6038 7.00052 12.0016 7.00052ZM5.50159 8.00052C4.83855 8.00052 4.20266 8.26391 3.73382 8.73275C3.26498 9.20159 3.00159 9.83748 3.00159 10.5005C3.00159 11.4405 3.53159 12.2505 4.29159 12.6805C4.65159 12.8805 5.06159 13.0005 5.50159 13.0005C5.94159 13.0005 6.35159 12.8805 6.71159 12.6805C7.08159 12.4705 7.39159 12.1705 7.62159 11.8105C6.89159 10.8605 6.50159 9.70052 6.50159 8.50052C6.50159 8.41052 6.50159 8.31052 6.50159 8.22052C6.20159 8.08052 5.86159 8.00052 5.50159 8.00052ZM18.5016 8.00052C18.1416 8.00052 17.8016 8.08052 17.5016 8.22052C17.5016 8.31052 17.5016 8.41052 17.5016 8.50052C17.5016 9.70052 17.1116 10.8605 16.3816 11.8105C16.5016 12.0005 16.6316 12.1505 16.7816 12.3005C16.9416 12.4505 17.1016 12.5805 17.2916 12.6805C17.6516 12.8805 18.0616 13.0005 18.5016 13.0005C18.9416 13.0005 19.3516 12.8805 19.7116 12.6805C20.4716 12.2505 21.0016 11.4405 21.0016 10.5005C21.0016 9.83748 20.7382 9.20159 20.2694 8.73275C19.8005 8.26391 19.1646 8.00052 18.5016 8.00052ZM12.0016 14.0005C9.66159 14.0005 5.00159 15.1705 5.00159 17.5005V19.0005H19.0016V17.5005C19.0016 15.1705 14.3416 14.0005 12.0016 14.0005ZM4.71159 14.5505C2.78159 14.7805 0.00158691 15.7605 0.00158691 17.5005V19.0005H3.00159V17.0705C3.00159 16.0605 3.69159 15.2205 4.71159 14.5505ZM19.2916 14.5505C20.3116 15.2205 21.0016 16.0605 21.0016 17.0705V19.0005H24.0016V17.5005C24.0016 15.7605 21.2216 14.7805 19.2916 14.5505ZM12.0016 16.0005C13.5316 16.0005 15.2416 16.5005 16.2316 17.0005H7.77159C8.76159 16.5005 10.4716 16.0005 12.0016 16.0005Z" fill=""/>
</g>
<defs>
<clipPath id="clip0_1330_3116">
<rect width="24" height="24" transform="translate(0 0.000610352)"/>
</clipPath>
</defs>
</svg>
