<svg width="24" height="25" viewBox="0 0 24 25" fill="none" xmlns="http://www.w3.org/2000/svg">
<g clip-path="url(#clip0_1330_2565)">
<path d="M11.9999 5.9118C12.9282 5.9118 13.8184 6.28055 14.4748 6.93693C15.1312 7.59331 15.4999 8.48355 15.4999 9.4118C15.4999 10.3401 15.1312 11.2303 14.4748 11.8867C13.8184 12.5431 12.9282 12.9118 11.9999 12.9118C11.0717 12.9118 10.1814 12.5431 9.52507 11.8867C8.86869 11.2303 8.49994 10.3401 8.49994 9.4118C8.49994 8.48355 8.86869 7.59331 9.52507 6.93693C10.1814 6.28055 11.0717 5.9118 11.9999 5.9118ZM4.99994 8.4118C5.55994 8.4118 6.07994 8.5618 6.52994 8.8318C6.37994 10.2618 6.79994 11.6818 7.65994 12.7918C7.15994 13.7518 6.15994 14.4118 4.99994 14.4118C4.20429 14.4118 3.44123 14.0957 2.87862 13.5331C2.31601 12.9705 1.99994 12.2075 1.99994 11.4118C1.99994 10.6162 2.31601 9.85309 2.87862 9.29048C3.44123 8.72787 4.20429 8.4118 4.99994 8.4118ZM18.9999 8.4118C19.7956 8.4118 20.5587 8.72787 21.1213 9.29048C21.6839 9.85309 21.9999 10.6162 21.9999 11.4118C21.9999 12.2075 21.6839 12.9705 21.1213 13.5331C20.5587 14.0957 19.7956 14.4118 18.9999 14.4118C17.8399 14.4118 16.8399 13.7518 16.3399 12.7918C17.1999 11.6818 17.6199 10.2618 17.4699 8.8318C17.9199 8.5618 18.4399 8.4118 18.9999 8.4118ZM5.49994 18.6618C5.49994 16.5918 8.40994 14.9118 11.9999 14.9118C15.5899 14.9118 18.4999 16.5918 18.4999 18.6618V20.4118H5.49994V18.6618ZM-6.10352e-05 20.4118V18.9118C-6.10352e-05 17.5218 1.88994 16.3518 4.44994 16.0118C3.85994 16.6918 3.49994 17.6318 3.49994 18.6618V20.4118H-6.10352e-05ZM23.9999 20.4118H20.4999V18.6618C20.4999 17.6318 20.1399 16.6918 19.5499 16.0118C22.1099 16.3518 23.9999 17.5218 23.9999 18.9118V20.4118Z" fill=""/>
</g>
<defs>
<clipPath id="clip0_1330_2565">
<rect width="24" height="24" fill="white" transform="translate(-6.10352e-05 0.411804)"/>
</clipPath>
</defs>
</svg>
