<svg width="24" height="24" viewBox="0 0 24 24" fill="none" xmlns="http://www.w3.org/2000/svg">
<path fill-rule="evenodd" clip-rule="evenodd" d="M20 2C21.11 2 22 2.9 22 4V16C22 17.11 21.11 18 20 18H6L2 22V4C2 2.89 2.9 2 4 2H20ZM12 9.99988C12.55 9.99988 13.0208 9.80404 13.4125 9.41238C13.8042 9.02071 14 8.54988 14 7.99988C14 7.44988 13.8042 6.97904 13.4125 6.58738C13.0208 6.19571 12.55 5.99988 12 5.99988C11.45 5.99988 10.9792 6.19571 10.5875 6.58738C10.1958 6.97904 10 7.44988 10 7.99988C10 8.54988 10.1958 9.02071 10.5875 9.41238C10.9792 9.80404 11.45 9.99988 12 9.99988ZM8 13.4499V13.9999H16V13.4499C16 12.7165 15.6333 12.1249 14.9 11.6749C14.1667 11.2249 13.2 10.9999 12 10.9999C10.8 10.9999 9.83333 11.2249 9.1 11.6749C8.36667 12.1249 8 12.7165 8 13.4499Z" fill=""/>
</svg>
