<svg width="24" height="24" viewBox="0 0 24 24" fill="none" xmlns="http://www.w3.org/2000/svg">
<path d="M12 12.8571C10.8213 12.8571 9.6908 12.3805 8.8573 11.5321C8.02381 10.6838 7.55556 9.53312 7.55556 8.33333H9.33333C9.33333 9.05321 9.61428 9.7436 10.1144 10.2526C10.6145 10.7617 11.2928 11.0476 12 11.0476C12.7072 11.0476 13.3855 10.7617 13.8856 10.2526C14.3857 9.7436 14.6667 9.05321 14.6667 8.33333H16.4444C16.4444 9.53312 15.9762 10.6838 15.1427 11.5321C14.3092 12.3805 13.1787 12.8571 12 12.8571ZM12 3.80952C12.7072 3.80952 13.3855 4.09549 13.8856 4.60452C14.3857 5.11355 14.6667 5.80394 14.6667 6.52381H9.33333C9.33333 5.80394 9.61428 5.11355 10.1144 4.60452C10.6145 4.09549 11.2928 3.80952 12 3.80952ZM18.2222 6.52381H16.4444C16.4444 5.92973 16.3295 5.34148 16.1061 4.79262C15.8828 4.24377 15.5554 3.74507 15.1427 3.32499C14.73 2.90492 14.24 2.5717 13.7008 2.34435C13.1616 2.11701 12.5837 2 12 2C10.8213 2 9.6908 2.47661 8.8573 3.32499C8.02381 4.17337 7.55556 5.32402 7.55556 6.52381H5.77778C4.79111 6.52381 4 7.32905 4 8.33333V19.1905C4 19.6704 4.1873 20.1307 4.5207 20.47C4.8541 20.8094 5.30628 21 5.77778 21H18.2222C18.6937 21 19.1459 20.8094 19.4793 20.47C19.8127 20.1307 20 19.6704 20 19.1905V8.33333C20 7.32905 19.2 6.52381 18.2222 6.52381Z" fill=""/>
</svg>
