<svg width="24" height="24" viewBox="0 0 24 24" fill="none" xmlns="http://www.w3.org/2000/svg">
    <path 
        d="M11.142 14.401v-4.8c0-.254.09-.498.25-.678A.813.813 0 0 1 12 8.642c.227 0 .445.101.606.281.16.18.25.424.25.679v4.8c0 .254-.09.498-.25.678a.813.813 0 0 1-.606.281.813.813 0 0 1-.606-.281 1.021 1.021 0 0 1-.251-.679zm12.514 8.16c-.225.438-.55.802-.941 1.055a2.354 2.354 0 0 1-1.288.384H2.57a2.353 2.353 0 0 1-1.287-.383 2.735 2.735 0 0 1-.942-1.055A3.138 3.138 0 0 1 0 21.119a3.133 3.133 0 0 1 .352-1.438L9.77 1.443c.226-.439.55-.803.942-1.056A2.364 2.364 0 0 1 11.999 0c.452 0 .896.133 1.287.387.391.253.716.617.941 1.056l9.418 18.238c.23.435.353.931.355 1.438a3.11 3.11 0 0 1-.344 1.441zm-1.49-1.92L12.738 2.402a.913.913 0 0 0-.313-.347.788.788 0 0 0-.426-.127.787.787 0 0 0-.426.127.913.913 0 0 0-.314.347L1.831 20.64a1.023 1.023 0 0 0 0 .96.905.905 0 0 0 .312.352c.13.085.277.129.427.128h18.857c.15 0 .298-.043.428-.128a.905.905 0 0 0 .311-.352 1.022 1.022 0 0 0 0-.96zM12 17.28a1.19 1.19 0 0 0-.715.242 1.417 1.417 0 0 0-.473.647 1.6 1.6 0 0 0-.073.832c.05.279.172.535.352.737.18.201.409.338.658.394.25.055.508.027.743-.082a1.33 1.33 0 0 0 .577-.53c.141-.237.216-.515.216-.8 0-.382-.135-.748-.376-1.018a1.22 1.22 0 0 0-.91-.422z" 
        fill="#FFDD40"
    />
</svg>
