<svg width="24" height="24" viewBox="0 0 24 24" fill="none" xmlns="http://www.w3.org/2000/svg">
<path d="M19.7128 10.37C19.0828 7.34 16.5228 4.97 13.4328 4.6C12.9128 4.54 12.3828 4.56 11.8628 4.54C11.7228 4.54 11.5828 4.54 11.4028 4.54C11.4228 3.59 11.9528 2.87 12.3128 2.09C12.2728 2.06 12.2428 2.03 12.2028 2C11.9628 2.12 11.7228 2.23 11.4928 2.37C9.05281 3.88 7.16281 5.92 5.85281 8.48C3.61281 12.85 5.97281 18.05 10.7428 19.17C11.4828 19.34 12.2628 19.31 13.0328 19.35C13.4128 19.37 13.5028 19.42 13.3628 19.78C13.1528 20.36 12.8728 20.92 12.6528 21.5C12.5928 21.65 12.6028 21.83 12.5728 21.99H12.7728C12.8628 21.92 12.9528 21.84 13.0528 21.78C15.7728 20.16 17.8328 17.93 19.2028 15.07C19.5728 14.29 19.8028 13.47 19.8528 12.6C19.8828 12.16 19.8528 11.16 19.7128 10.37V10.37ZM12.4428 14.91C10.8228 14.91 9.45281 13.54 9.45281 11.92C9.45281 10.31 10.8128 8.96 12.4328 8.96C14.0828 8.96 15.4028 10.29 15.4028 11.94C15.4028 13.56 14.0628 14.9 12.4428 14.9V14.91Z" fill="#000"/>
</svg>
