<svg width="24" height="24" viewBox="0 0 24 24" fill="none" xmlns="http://www.w3.org/2000/svg">
<path d="M8.20295 8.87952C8.53645 8.46027 8.87947 8.05055 9.23202 7.65989C9.27013 7.62178 9.30824 7.57413 9.34636 7.53602C8.88899 7.13583 8.46022 6.77375 8.06956 6.44026C6.93568 5.49695 6.00191 4.87761 5.04907 4.81091C4.91567 4.93478 4.79181 5.06818 4.66794 5.20158C3.01 6.98338 2 9.37499 2 12.0048C2 14.3107 2.78132 16.426 4.08671 18.122C3.82944 15.9305 5.68747 12.0715 8.21248 8.87952H8.20295Z" fill="#000"/>
<path d="M12.0048 5.11577C13.9486 3.76274 15.8352 3.44831 17.3502 3.55312C15.7971 2.5717 13.9677 2 11.9953 2C10.0229 2 8.20302 2.56217 6.6499 3.54359C8.17444 3.43878 10.0611 3.75322 11.9953 5.11577H12.0048Z" fill="#000"/>
<path d="M21.9999 12.0048C21.9999 9.37499 20.9899 6.98338 19.332 5.20158C19.2081 5.06818 19.0842 4.94431 18.9508 4.81091C18.0075 4.87761 17.0928 5.4779 15.9685 6.40215C15.5588 6.73564 15.1205 7.11677 14.6536 7.52649C14.6917 7.56461 14.7298 7.61225 14.7679 7.65036C15.1205 8.04102 15.4635 8.45074 15.7874 8.86999C18.3124 12.062 20.1705 15.9305 19.9037 18.1125C21.2091 16.4164 21.9904 14.3011 21.9904 11.9953L21.9999 12.0048Z" fill="#000"/>
<path d="M13.5388 11.2139C13.1577 10.8518 12.767 10.4993 12.3764 10.1467C12.2525 10.0324 12.1191 9.91805 11.9952 9.80371C11.8714 9.91805 11.7475 10.0229 11.6141 10.1372C11.2234 10.4898 10.8328 10.8423 10.4516 11.2044C8.36492 13.1767 6.45925 15.3016 5.58265 17.2168C5.25868 17.9123 5.07764 18.5793 5.06812 19.1987C5.20151 19.3321 5.34444 19.4559 5.47783 19.5703C7.23105 21.0757 9.50833 21.9905 11.9952 21.9905C14.4821 21.9905 16.7689 21.0757 18.5126 19.5703C18.6555 19.4464 18.7889 19.3225 18.9223 19.1987C18.9223 18.5698 18.7222 17.9028 18.3983 17.1977C17.5121 15.292 15.616 13.1672 13.5293 11.2044L13.5388 11.2139Z" fill="#000"/>
</svg>
