<svg width="24" height="24" viewBox="0 0 24 24" fill="none" xmlns="http://www.w3.org/2000/svg">
<path d="M11.597 22H7.34208C4.39925 22 2 19.6007 2 16.6579V7.34208C2 4.39925 4.39925 2 7.34208 2H11.597V22ZM7.34208 3.70572C5.33646 3.70572 3.70572 5.33646 3.70572 7.34208V16.6579C3.70572 18.6635 5.33646 20.2943 7.34208 20.2943H9.88191V3.70572H7.34208Z" fill="#000"/>
<path d="M6.79849 9.91936C7.8337 9.91936 8.6729 9.08016 8.6729 8.04495C8.6729 7.00974 7.8337 6.17053 6.79849 6.17053C5.76328 6.17053 4.92407 7.00974 4.92407 8.04495C4.92407 9.08016 5.76328 9.91936 6.79849 9.91936Z" fill="#000"/>
<path d="M16.3392 2H13.1152V22H16.3392C19.2821 22 21.6813 19.6007 21.6813 16.6579V7.34208C21.6813 4.39925 19.2821 2 16.3392 2ZM17.3983 14.7929C16.3673 14.7929 15.5239 13.9494 15.5239 12.9185C15.5239 11.8875 16.3673 11.044 17.3983 11.044C18.4292 11.044 19.2727 11.8875 19.2727 12.9185C19.2727 13.9494 18.4292 14.7929 17.3983 14.7929Z" fill="#000"/>
</svg>
