<svg width="24" height="24" viewBox="0 0 24 24" fill="none" xmlns="http://www.w3.org/2000/svg">
<path d="M9.42798 18.5778V4C11.5051 4.54309 16.2119 5.31486 17.2314 7.60157C18.2795 9.94546 17.5744 14.5284 14.03 12.699V8.04939C14.03 6.46775 12.7247 5.91512 12.7247 7.65874V19.5973L9.42798 18.5778V18.5778Z" fill="#000"/>
<path d="M7.12214 16.5007C7.12214 16.5007 6.92205 16.615 8.87529 15.8909V17.6441C8.87529 17.6441 6.49329 18.1872 3.68254 17.282C1.28149 16.5102 1.56733 15.4812 3.79688 14.6428C6.5981 13.5851 8.87529 12.7753 8.87529 12.7753V14.719C6.74102 15.5193 5.61672 15.9195 5.61672 15.9195C3.9398 16.5865 5.98831 16.8818 7.12214 16.4912V16.5007Z" fill="#000"/>
<path d="M19.7468 17.0438C16.1929 18.3777 13.3059 19.4163 13.3059 19.4163V17.463C14.1253 17.1677 16.5835 16.2816 18.5749 15.5574C19.8326 15.1001 18.2795 14.4617 16.5073 15.1287C14.7923 15.7671 13.7633 16.1387 13.3059 16.3006V14.2616C13.3059 14.2616 16.2596 12.8896 19.8326 14.033C22.8815 15.0048 22.5862 15.9767 19.7468 17.0438V17.0438Z" fill="#000"/>
</svg>
