<svg width="24" height="24" viewBox="0 0 24 24" fill="none" xmlns="http://www.w3.org/2000/svg">
<path d="M18.9225 5.26924C17.6273 4.66922 16.2558 4.25016 14.8558 4.00253C14.8272 4.00253 14.7986 4.00253 14.7891 4.03111C14.5986 4.37397 14.4367 4.71684 14.2843 5.06923C12.77 4.84065 11.2271 4.84065 9.71276 5.06923C9.56037 4.71684 9.38894 4.36445 9.19846 4.03111C9.18893 4.01206 9.16036 3.99301 9.13179 4.00253C7.72223 4.24064 6.36028 4.66922 5.06501 5.26924C5.05548 5.26924 5.04596 5.27876 5.03643 5.28828C2.44588 9.16459 1.73158 12.9456 2.08397 16.6696C2.08397 16.6886 2.09349 16.7077 2.11254 16.7172C3.62687 17.8315 5.31263 18.6887 7.10316 19.2411C7.13173 19.2411 7.1603 19.2411 7.16983 19.222C7.55079 18.6982 7.89366 18.1458 8.18891 17.5648C8.20795 17.5363 8.18891 17.4982 8.16033 17.4791C7.61746 17.2696 7.10316 17.022 6.59838 16.7362C6.56981 16.7172 6.56029 16.6791 6.57934 16.6505C6.57934 16.6505 6.58886 16.641 6.59838 16.6315C6.70315 16.5553 6.80791 16.4696 6.91268 16.3838C6.93173 16.3648 6.9603 16.3648 6.97935 16.3838C10.2556 17.8791 13.7986 17.8791 17.0273 16.3838C17.0463 16.3743 17.0749 16.3838 17.0939 16.3838C17.1987 16.4696 17.3035 16.5458 17.4082 16.6315C17.4368 16.6505 17.4463 16.6886 17.4177 16.7172C17.4177 16.7172 17.4082 16.7267 17.3987 16.7362C16.9034 17.0315 16.3796 17.2791 15.8367 17.4791C15.8082 17.4886 15.7891 17.5267 15.7986 17.5648C16.0939 18.1458 16.4368 18.7077 16.8177 19.2315C16.8368 19.2506 16.8653 19.2601 16.8844 19.2601C18.6844 18.7077 20.3702 17.8506 21.8845 16.7362C21.9036 16.7267 21.9131 16.7077 21.9131 16.6886C22.3322 12.3742 21.2179 8.62171 18.9511 5.30733C18.9511 5.29781 18.9416 5.28828 18.9225 5.27876V5.26924ZM8.67463 14.4028C7.69365 14.4028 6.87458 13.498 6.87458 12.3837C6.87458 11.2694 7.67461 10.3646 8.67463 10.3646C9.67466 10.3646 10.4842 11.2789 10.4747 12.3837C10.4747 13.498 9.67466 14.4028 8.67463 14.4028ZM15.3224 14.4028C14.3415 14.4028 13.5224 13.498 13.5224 12.3837C13.5224 11.2694 14.3224 10.3646 15.3224 10.3646C16.3225 10.3646 17.132 11.2789 17.1225 12.3837C17.1225 13.498 16.332 14.4028 15.3224 14.4028Z" fill="#000"/>
</svg>
