<svg width="24" height="24" viewBox="0 0 24 24" fill="none" xmlns="http://www.w3.org/2000/svg">
<g clip-path="url(#clip0_248_3714)">
<path d="M10.1799 16.26C10.5299 15.38 10.0999 14.39 9.21994 14.05L8.24994 13.67C8.40994 13.63 8.57994 13.61 8.74994 13.61C9.97994 13.61 10.9799 14.61 10.9799 15.84C10.9799 17.07 9.97994 18.07 8.74994 18.07C7.82994 18.07 7.03994 17.51 6.68994 16.71L7.95994 17.21C8.83994 17.56 9.82994 17.13 10.1699 16.25L10.1799 16.26Z" fill="#000"/>
<path d="M15.46 6.70996C13.96 6.70996 12.75 7.91996 12.75 9.41996C12.75 10.92 13.96 12.13 15.46 12.13C16.96 12.13 18.17 10.92 18.17 9.41996C18.17 7.91996 16.96 6.70996 15.46 6.70996V6.70996ZM15.46 11.47C14.33 11.47 13.42 10.55 13.42 9.42996C13.42 8.30996 14.34 7.38996 15.46 7.38996C16.58 7.38996 17.5 8.29996 17.5 9.42996C17.5 10.56 16.59 11.47 15.46 11.47Z" fill="#000"/>
<path d="M21.97 12C21.97 17.52 17.49 22 11.97 22C7.5 22 3.72 19.07 2.44 15.03L5.89 16.39C6.15 17.74 7.34 18.76 8.76 18.76C10.27 18.76 11.51 17.62 11.67 16.16L15.47 13.39C17.67 13.39 19.45 11.61 19.45 9.41C19.45 7.21 17.67 5.43 15.47 5.43C13.27 5.43 11.49 7.21 11.49 9.41L9.06 12.92C8.96 12.92 8.87 12.91 8.77 12.91C8.25 12.91 7.76 13.05 7.33 13.29L2 11.19C2.41 6.05 6.72 2 11.97 2C17.49 2 21.97 6.48 21.97 12Z" fill="#000"/>
</g>
<defs>
<clipPath id="clip0_248_3714">
<rect width="19.97" height="20" fill="white" transform="translate(2 2)"/>
</clipPath>
</defs>
</svg>
