<svg width="24" height="24" viewBox="0 0 24 24" fill="none" xmlns="http://www.w3.org/2000/svg">
<path d="M3 18.4285H20.46" fill='transparent' stroke="#000" stroke-width="1.5" stroke-linecap="round" stroke-linejoin="round"/>
<path d="M7.43569 21C8.85585 21 10.0071 19.8487 10.0071 18.4285C10.0071 17.0084 8.85585 15.8571 7.43569 15.8571C6.01553 15.8571 4.86426 17.0084 4.86426 18.4285C4.86426 19.8487 6.01553 21 7.43569 21Z" fill='transparent' fill="#FF6A39"/>
<path d="M3 5.57141H20.46" fill='transparent' stroke="#000" stroke-width="1.5" stroke-linecap="round" stroke-linejoin="round"/>
<path d="M7.43569 8.14286C8.85585 8.14286 10.0071 6.99159 10.0071 5.57143C10.0071 4.15127 8.85585 3 7.43569 3C6.01553 3 4.86426 4.15127 4.86426 5.57143C4.86426 6.99159 6.01553 8.14286 7.43569 8.14286Z" fill='transparent' fill="#FF6A39"/>
<path d="M20.46 12H3" fill='transparent' stroke="#000" stroke-width="1.5" stroke-linecap="round" stroke-linejoin="round"/>
<path d="M16.0243 14.5714C17.4445 14.5714 18.5957 13.4202 18.5957 12C18.5957 10.5799 17.4445 9.42859 16.0243 9.42859C14.6041 9.42859 13.4529 10.5799 13.4529 12C13.4529 13.4202 14.6041 14.5714 16.0243 14.5714Z" fill='transparent' fill="#FF6A39"/>
</svg>
