<svg width="24" height="24" viewBox="0 0 24 24" fill="none" xmlns="http://www.w3.org/2000/svg">
<path d="M15.6541 2V11.3081" stroke="#FF6A39" stroke-width="1.5" stroke-linecap="round" stroke-linejoin="round"/>
<path d="M11 6.65402H20.3081" stroke="#FF6A39" stroke-width="1.5" stroke-linecap="round" stroke-linejoin="round"/>
<path d="M12.5 2.61831C11.7795 2.22411 10.9527 2 10.0735 2C7.27756 2 5.01099 4.26657 5.01099 7.06253C5.01099 9.85849 7.27756 12.1251 10.0735 12.1251C10.9527 12.1251 11.7795 11.901 12.5 11.5067" stroke="white" stroke-width="1.5" stroke-miterlimit="10" stroke-linecap="round"/>
<path d="M9.1931 13.986H10.964C14.3857 13.986 17.1671 16.7674 17.1671 20.1891V21.1896C17.1671 21.6398 16.8069 22 16.3567 22H3.81041C3.36018 22 3 21.6398 3 21.1896V20.1891C3 16.7674 5.78139 13.986 9.2031 13.986H9.1931Z" stroke="white" stroke-width="1.5" stroke-miterlimit="10"/>
</svg>
