<svg width="24" height="24" viewBox="0 0 24 24" fill="none" xmlns="http://www.w3.org/2000/svg">
<path d="M17.3459 3V12.3081" fill='transparent' stroke="#FF6A39" stroke-width="1.5" stroke-linecap="round" stroke-linejoin="round"/>
<path d="M12.6919 7.65399H22" fill='transparent' stroke="#FF6A39" stroke-width="1.5" stroke-linecap="round" stroke-linejoin="round"/>
<path d="M9.33284 6.43923C8.71805 5.967 7.9518 5.6908 7.11426 5.6908C5.10061 5.6908 3.46118 7.33023 3.46118 9.35279C3.46118 11.3753 5.10061 13.0059 7.11426 13.0059C8.31711 13.0059 9.39521 12.4267 10.0545 11.5268" fill='transparent' stroke="#000" stroke-width="1.5" stroke-miterlimit="10"/>
<path d="M7.02521 20.9536H2.61479C2.27621 20.9536 2 20.6685 2 20.3299V19.8398C2 17.2559 4.09384 15.1621 6.67773 15.1621H7.53308C8.29043 15.1621 9.02104 15.3403 9.65365 15.67" fill='transparent' stroke="#000" stroke-width="1.5" stroke-miterlimit="10"/>
<path d="M14.9195 12.7635C14.4506 12.9263 13.947 13.0148 13.4226 13.0148C10.9031 13.0148 8.86072 10.9724 8.86072 8.45289C8.86072 5.93342 10.9031 3.89099 13.4226 3.89099C13.947 3.89099 14.4506 3.97945 14.9195 4.14226" fill='transparent' stroke="#000" stroke-width="1.5" stroke-miterlimit="10" stroke-linecap="round"/>
<path d="M13.3513 14.6899H13.5028C16.9866 14.6899 19.82 17.5232 19.82 21.007V21.0961C19.82 21.5505 19.4457 21.9248 18.9913 21.9248H7.86281C7.4084 21.9248 7.03418 21.5505 7.03418 21.0961V21.007C7.03418 17.5232 9.86754 14.6899 13.3513 14.6899Z" fill='transparent' stroke="#000" stroke-width="1.5" stroke-miterlimit="10"/>
</svg>
