<svg width="24" height="24" viewBox="0 0 24 24" fill="none" xmlns="http://www.w3.org/2000/svg">
<path d="M12.3925 14.72C13.972 14.72 15.2525 13.4395 15.2525 11.86C15.2525 10.2805 13.972 9 12.3925 9C10.8129 9 9.53247 10.2805 9.53247 11.86C9.53247 13.4395 10.8129 14.72 12.3925 14.72Z" fill="#000"/>
<path d="M19.9249 14.72C21.5045 14.72 22.7849 13.4395 22.7849 11.86C22.7849 10.2805 21.5045 9 19.9249 9C18.3454 9 17.0649 10.2805 17.0649 11.86C17.0649 13.4395 18.3454 14.72 19.9249 14.72Z" fill="#000"/>
<path d="M4.86 14.72C6.43953 14.72 7.72 13.4395 7.72 11.86C7.72 10.2805 6.43953 9 4.86 9C3.28047 9 2 10.2805 2 11.86C2 13.4395 3.28047 14.72 4.86 14.72Z" fill="#000"/>
</svg>
