<svg width="24" height="24" viewBox="0 0 24 24" fill="none" xmlns="http://www.w3.org/2000/svg">
<path d="M11.0909 7.45455V4.13504C11.0909 3.2872 12.0798 2.82405 12.7311 3.36682L21.0782 10.3227C21.5579 10.7225 21.5579 11.4593 21.0782 11.8591L12.7311 18.815C12.0798 19.3578 11.0909 18.8946 11.0909 18.0468V14.7273" fill='transparent' stroke="#000" stroke-width="2.5" stroke-linecap="round" stroke-linejoin="round"/>
<path d="M10.5319 15.8452C11.1494 16.154 11.9002 15.9037 12.2089 15.2862C12.5177 14.6687 12.2674 13.9179 11.6499 13.6092L10.5319 15.8452ZM0.75 21.0908C0.75 21.7812 1.30964 22.3408 2 22.3408C2.69036 22.3408 3.25 21.7812 3.25 21.0908H0.75ZM11.6499 13.6092C7.16821 11.3683 0.75 14.723 0.75 21.0908H3.25C3.25 16.5496 7.74088 14.4497 10.5319 15.8452L11.6499 13.6092ZM3.25 21.0908C3.25 16.2041 4.14539 13.1111 5.50632 11.2641C6.81291 9.49092 8.67084 8.70447 11.0909 8.70447V6.20447C8.05644 6.20447 5.36891 7.2362 3.49368 9.78115C1.6728 12.2524 0.75 15.9775 0.75 21.0908H3.25Z" fill="#000"/>
</svg>
