<svg width="13" height="17" viewBox="0 0 13 17" fill="none" xmlns="http://www.w3.org/2000/svg">
<path d="M12.5576 6.00345C12.5576 9.54114 10.2888 12.0529 7.14097 12.0529C5.59171 12.0529 4.3761 11.4752 3.54635 10.4522V16.1682H0.804688V0.310375H3.54635V1.57774C4.379 0.554651 5.61492 0 7.14097 0C10.2888 0 12.5576 2.46863 12.5576 6.00345ZM9.70275 6.00345C9.70275 3.8452 8.49004 2.53473 6.66807 2.53473C5.16233 2.53473 4.12949 3.33653 3.54345 4.55791V7.47198C4.12659 8.65025 5.16233 9.51815 6.66807 9.51815C8.48714 9.51815 9.70275 8.18469 9.70275 6.00345Z" fill="#E95F2A"/>
</svg>
