<svg width="11" height="13" viewBox="0 0 11 13" fill="none" xmlns="http://www.w3.org/2000/svg">
<path d="M10.8174 3.47085V11.7216H8.0525V10.3192C7.24306 11.4314 5.9172 12.055 4.20837 12.055C1.80326 12.055 0.164062 10.6095 0.164062 8.4742C0.164062 6.54011 1.37677 5.20377 3.39893 4.9595L8.04959 4.38186V3.80421C8.04959 3.11449 7.68984 2.75814 7.03707 2.75814H1.194V0.3125H7.15022C9.50892 0.3125 10.8145 1.44767 10.8145 3.47085M8.04959 7.96266V6.51712L4.4985 7.00567C3.50918 7.13787 2.96955 7.64941 2.96955 8.4742C2.96955 9.36509 3.66584 9.87663 4.87856 9.87663C6.27114 9.87663 7.5767 9.09782 8.0467 7.96266" fill="#E95F2A"/>
</svg>
